<svg width="959" height="200" viewBox="0 0 959 200" fill="none" xmlns="http://www.w3.org/2000/svg">
<rect x="138.929" width="40" height="200" fill="#943EE4"/>
<rect x="107.816" y="13.9529" width="40" height="180.663" transform="rotate(11.7791 107.816 13.9529)" fill="#943EE4"/>
<rect x="80.4326" y="62.7266" width="24.4848" height="147.081" transform="rotate(33.1518 80.4326 62.7266)" fill="#943EE4"/>
<rect x="186.929" y="58" width="40" height="142" fill="#943EE4"/>
<rect x="234.929" y="29" width="40" height="171" fill="#943EE4"/>
<rect x="282.929" width="40" height="200" fill="#943EE4"/>
<rect x="483.929" y="51" width="40" height="149" fill="#943EE4"/>
<rect x="531.929" y="26" width="40" height="174" fill="#943EE4"/>
<rect x="566.527" y="39.187" width="29.5126" height="164.611" transform="rotate(-12.3937 566.527 39.187)" fill="#943EE4"/>
<rect x="586.39" y="64.0435" width="29.5126" height="150.677" transform="rotate(-26.5341 586.39 64.0435)" fill="#943EE4"/>
<rect x="746.802" y="146.979" width="29.875" height="150.677" transform="rotate(-69.4774 746.802 146.979)" fill="#943EE4"/>
<rect x="801.929" y="146.64" width="43.5146" height="150.677" transform="rotate(-69.4774 801.929 146.64)" fill="#943EE4"/>
<rect x="618.929" y="104.28" width="39.1094" height="168.675" transform="rotate(-55.6262 618.929 104.28)" fill="#943EE4"/>
<rect x="435.929" y="11" width="40" height="189" fill="#943EE4"/>
<rect x="309.168" y="35.665" width="34.0061" height="171.849" transform="rotate(-17.2576 309.168 35.665)" fill="#943EE4"/>
<rect x="344.168" y="35.665" width="34.0061" height="171.849" transform="rotate(-17.2576 344.168 35.665)" fill="#943EE4"/>
</svg>
