<svg xmlns="http://www.w3.org/2000/svg" width="48" height="48"><rect width="100%" height="100%" fill="#fff"/><path fill="none" stroke="#8059d4" stroke-linecap="square" d="M5.323 7.811a10.23 10.23 0 0 1-11.77 0m60.894 0a10.23 10.23 0 0 1-11.77 0M-6.447 40.19a10.23 10.23 0 0 1 11.77 0m37.354 0a10.235 10.235 0 0 1 11.77 0m-24.562-7.817a10.23 10.23 0 0 1-11.77 0m0-16.746A10.23 10.23 0 0 1 24 13.767c2.107 0 4.162.649 5.886 1.86M15.627 5.323a10.23 10.23 0 0 1 0-11.77m16.746 0a10.23 10.23 0 0 1 0 11.77M15.627 54.447a10.23 10.23 0 0 1 0-11.77m16.746 0a10.23 10.23 0 0 1 0 11.77m7.817-24.562a10.23 10.23 0 0 1 0-11.77m-32.379 0a10.23 10.23 0 0 1 0 11.771"/></svg>