<svg width="10000" height="10000" viewBox="0 0 10000 10000" fill="none" xmlns="http://www.w3.org/2000/svg">
<g clipPath="url(#clip0_2108_15262)">
<rect width="10000" height="10000" fill="white"/>
<g clipPath="url(#clip1_2108_15262)">
<path d="M11403.2 0L0 5702.72V5726.29L11450.3 0H11403.2Z" fill="#A0A3BD"/>
<path d="M10451 0L0 5226.56V5250.12L10498.1 0H10451Z" fill="#A0A3BD"/>
<path d="M9498.86 0L0 4750.4V4773.96L9545.99 0H9498.86Z" fill="#A0A3BD"/>
<path d="M8546.74 0L0 4274.23V4297.8L8593.88 0H8546.74Z" fill="#A0A3BD"/>
<path d="M7594.59 0L0 3798.07V3821.63L7641.72 0H7594.59Z" fill="#A0A3BD"/>
<path d="M6642.43 0L0 3321.91V3345.47L6689.56 0H6642.43Z" fill="#A0A3BD"/>
<path d="M5690.32 0L0 2845.74V2869.31L5737.45 0H5690.32Z" fill="#A0A3BD"/>
<path d="M4738.17 0L0 2369.53V2393.14L4785.3 0H4738.17Z" fill="#A0A3BD"/>
<path d="M3786.01 0L0 1893.37V1916.94L3833.14 0H3786.01Z" fill="#A0A3BD"/>
<path d="M2833.86 0L0 1417.21V1440.77L2880.99 0H2833.86Z" fill="#A0A3BD"/>
<path d="M1881.74 0L0 941.044V964.609L1928.87 0H1881.74Z" fill="#A0A3BD"/>
<path d="M929.588 0L0 464.88V488.445L976.719 0H929.588Z" fill="#A0A3BD"/>
<path d="M0 0V12.2817L24.5634 0H0Z" fill="#A0A3BD"/>
<path d="M12355.3 0L0 6178.89V6202.45L12402.4 0H12355.3Z" fill="#A0A3BD"/>
<path d="M13307.4 0L0 6655.05V6678.62L13354.6 0H13307.4Z" fill="#A0A3BD"/>
<path d="M14259.6 0L0 7131.21V7154.78L14306.7 0H14259.6Z" fill="#A0A3BD"/>
<path d="M15211.7 0L0 7607.38V7630.99L15258.9 0H15211.7Z" fill="#A0A3BD"/>
<path d="M16163.9 0L0 8083.58V8107.15L16211 0H16163.9Z" fill="#A0A3BD"/>
<path d="M17116 0L0 8559.75V8583.31L17163.1 0H17116Z" fill="#A0A3BD"/>
<path d="M18068.2 0L0 9035.91V9059.48L18115.3 0H18068.2Z" fill="#A0A3BD"/>
<path d="M19020.3 0L0 9512.08V9535.64L19067.4 0H19020.3Z" fill="#A0A3BD"/>
<path d="M0 10000H23.5652L19996 11.7609V0H19972.4L0 9988.24V10000Z" fill="#A0A3BD"/>
<path d="M975.677 10000L19996 487.967V464.402L928.59 10000H975.677Z" fill="#A0A3BD"/>
<path d="M1927.83 10000L19996 964.132V940.566L1880.7 10000H1927.83Z" fill="#A0A3BD"/>
<path d="M2879.99 10000L19996 1440.3V1416.73L2832.86 10000H2879.99Z" fill="#A0A3BD"/>
<path d="M3832.14 10000L19996 1916.46V1892.89L3785.01 10000H3832.14Z" fill="#A0A3BD"/>
<path d="M4784.26 10000L19996 2392.62V2369.06L4737.17 10000H4784.26Z" fill="#A0A3BD"/>
<path d="M5736.41 10000L19996 2868.78V2845.22L5689.28 10000H5736.41Z" fill="#A0A3BD"/>
<path d="M6688.57 10000L19996 3344.95V3321.38L6641.44 10000H6688.57Z" fill="#A0A3BD"/>
<path d="M7640.72 10000L19996 3821.11V3797.55L7593.59 10000H7640.72Z" fill="#A0A3BD"/>
<path d="M8592.83 10000L19996 4297.28V4273.71L8545.7 10000H8592.83Z" fill="#A0A3BD"/>
<path d="M9544.99 10000L19996 4773.44V4749.88L9497.86 10000H9544.99Z" fill="#A0A3BD"/>
<path d="M16.6649 2.03906H0V9998.91H16.6649V2.03906Z" fill="#A0A3BD"/>
<path d="M683.217 2.03906H649.887V9998.91H683.217V2.03906Z" fill="#A0A3BD"/>
<path d="M1349.73 2.03906H1316.4V9998.91H1349.73V2.03906Z" fill="#A0A3BD"/>
<path d="M2016.28 2.03906H1982.95V9998.91H2016.28V2.03906Z" fill="#A0A3BD"/>
<path d="M2682.79 2.03906H2649.46V9998.91H2682.79V2.03906Z" fill="#A0A3BD"/>
<path d="M3349.34 2.03906H3316.01V9998.91H3349.34V2.03906Z" fill="#A0A3BD"/>
<path d="M4015.89 2.03906H3982.56V9998.91H4015.89V2.03906Z" fill="#A0A3BD"/>
<path d="M4682.4 2.03906H4649.07V9998.91H4682.4V2.03906Z" fill="#A0A3BD"/>
<path d="M5348.95 2.03906H5315.62V9998.91H5348.95V2.03906Z" fill="#A0A3BD"/>
<path d="M6015.46 2.03906H5982.13V9998.91H6015.46V2.03906Z" fill="#A0A3BD"/>
<path d="M6682.01 2.03906H6648.68V9998.91H6682.01V2.03906Z" fill="#A0A3BD"/>
<path d="M7348.52 2.03906H7315.19V9998.91H7348.52V2.03906Z" fill="#A0A3BD"/>
<path d="M8015.07 2.03906H7981.74V9998.91H8015.07V2.03906Z" fill="#A0A3BD"/>
<path d="M8681.63 2.03906H8648.3V9998.91H8681.63V2.03906Z" fill="#A0A3BD"/>
<path d="M9348.14 2.03906H9314.81V9998.91H9348.14V2.03906Z" fill="#A0A3BD"/>
<path d="M349.919 2.03906H316.589V9998.91H349.919V2.03906Z" fill="#A0A3BD"/>
<path d="M1016.47 2.03906H983.142V9998.91H1016.47V2.03906Z" fill="#A0A3BD"/>
<path d="M1683.02 2.03906H1649.69V9998.91H1683.02V2.03906Z" fill="#A0A3BD"/>
<path d="M2349.53 2.03906H2316.2V9998.91H2349.53V2.03906Z" fill="#A0A3BD"/>
<path d="M3016.08 2.03906H2982.75V9998.91H3016.08V2.03906Z" fill="#A0A3BD"/>
<path d="M3682.59 2.03906H3649.26V9998.91H3682.59V2.03906Z" fill="#A0A3BD"/>
<path d="M4349.15 2.03906H4315.82V9998.91H4349.15V2.03906Z" fill="#A0A3BD"/>
<path d="M5015.65 2.03906H4982.32V9998.91H5015.65V2.03906Z" fill="#A0A3BD"/>
<path d="M5682.21 2.03906H5648.88V9998.91H5682.21V2.03906Z" fill="#A0A3BD"/>
<path d="M6348.76 2.03906H6315.43V9998.91H6348.76V2.03906Z" fill="#A0A3BD"/>
<path d="M7015.27 2.03906H6981.94V9998.91H7015.27V2.03906Z" fill="#A0A3BD"/>
<path d="M7681.82 2.03906H7648.49V9998.91H7681.82V2.03906Z" fill="#A0A3BD"/>
<path d="M8348.33 2.03906H8315V9998.91H8348.33V2.03906Z" fill="#A0A3BD"/>
<path d="M9014.88 2.03906H8981.55V9998.91H9014.88V2.03906Z" fill="#A0A3BD"/>
<path d="M9681.39 2.03906H9648.06V9998.91H9681.39V2.03906Z" fill="#A0A3BD"/>
</g>
</g>
<defs>
<clipPath id="clip0_2108_15262">
<rect width="10000" height="10000" fill="white"/>
</clipPath>
<clipPath id="clip1_2108_15262">
<rect width="19996" height="10000" fill="white"/>
</clipPath>
</defs>
</svg>
