<svg width="100" height="100" viewBox="0 0 100 100" fill="none" xmlns="http://www.w3.org/2000/svg">
<g clip-path="url(#clip0_2_17)">
<rect width="100" height="100" fill="white" fill-opacity="0.4"/>
<g clip-path="url(#clip1_2_17)">
<path d="M42.9289 42.9289C39.0233 46.8346 39.0233 53.1654 42.9289 57.0711C46.8346 60.9767 53.1654 60.9767 57.0711 57.0711C60.9767 53.1654 60.9767 46.8346 57.0711 42.9289C53.1654 39.0233 46.8346 39.0233 42.9289 42.9289ZM50.6187 45.5419C49.5525 45.4646 48.1052 45.7076 46.9064 46.9064C45.7077 48.1052 45.4646 49.5525 45.5419 50.6187C45.5668 50.964 45.3071 51.2623 44.9619 51.2872C44.6166 51.312 44.3183 51.0524 44.2934 50.7071C44.2023 49.384 44.5006 47.5445 46.0225 46.0225C47.5445 44.5006 49.3841 44.2023 50.7071 44.2934C51.0524 44.3183 51.312 44.6166 51.2872 44.9619C51.2623 45.3071 50.964 45.5668 50.6187 45.5419ZM52.6406 50.011C52.1517 49.5222 52.1517 48.7322 52.6406 48.2433C53.1295 47.7544 53.9195 47.7544 54.4084 48.2433C54.8973 48.7322 54.8973 49.5222 54.4084 50.011C53.9195 50.4999 53.1295 50.4999 52.6406 50.011ZM48.2212 52.6627C48.7101 52.1738 49.5001 52.1738 49.989 52.6627C50.4779 53.1516 50.4779 53.9416 49.989 54.4305C49.5001 54.9194 48.7101 54.9194 48.2212 54.4305C47.7323 53.9416 47.7323 53.1516 48.2212 52.6627Z" fill="#8A2BE2"/>
</g>
<g clip-path="url(#clip2_2_17)">
<path d="M43.0711 9.07105C39.1654 12.9767 39.1654 19.3075 43.0711 23.2132C46.9767 27.1188 53.3075 27.1188 57.2132 23.2132C61.1189 19.3075 61.1189 12.9767 57.2132 9.07105C53.3075 5.16539 46.9767 5.16539 43.0711 9.07105ZM50.7609 11.684C49.6947 11.6067 48.2473 11.8498 47.0485 13.0485C45.8498 14.2473 45.6067 15.6947 45.684 16.7608C45.7089 17.1061 45.4493 17.4044 45.104 17.4293C44.7587 17.4541 44.4604 17.1945 44.4356 16.8492C44.3444 15.5262 44.6427 13.6866 46.1647 12.1646C47.6866 10.6427 49.5262 10.3444 50.8492 10.4355C51.1945 10.4604 51.4542 10.7587 51.4293 11.104C51.4044 11.4493 51.1061 11.7089 50.7609 11.684ZM52.7827 16.1532C52.2938 15.6643 52.2938 14.8743 52.7827 14.3854C53.2716 13.8965 54.0616 13.8965 54.5505 14.3854C55.0394 14.8743 55.0394 15.6643 54.5505 16.1532C54.0616 16.6421 53.2716 16.6421 52.7827 16.1532ZM48.3633 18.8048C48.8522 18.3159 49.6422 18.3159 50.1311 18.8048C50.62 19.2937 50.62 20.0837 50.1311 20.5726C49.6422 21.0615 48.8522 21.0615 48.3633 20.5726C47.8744 20.0837 47.8744 19.2937 48.3633 18.8048Z" fill="#8A2BE2"/>
</g>
<g clip-path="url(#clip3_2_17)">
<path d="M43.0711 77.0711C39.1654 80.9767 39.1654 87.3075 43.0711 91.2132C46.9767 95.1188 53.3075 95.1188 57.2132 91.2132C61.1189 87.3075 61.1189 80.9767 57.2132 77.0711C53.3075 73.1654 46.9767 73.1654 43.0711 77.0711ZM50.7609 79.684C49.6947 79.6067 48.2473 79.8498 47.0485 81.0485C45.8498 82.2473 45.6067 83.6947 45.684 84.7608C45.7089 85.1061 45.4493 85.4044 45.104 85.4293C44.7587 85.4541 44.4604 85.1945 44.4356 84.8492C44.3444 83.5262 44.6427 81.6866 46.1647 80.1646C47.6866 78.6427 49.5262 78.3444 50.8492 78.4355C51.1945 78.4604 51.4542 78.7587 51.4293 79.104C51.4044 79.4493 51.1061 79.7089 50.7609 79.684ZM52.7827 84.1532C52.2938 83.6643 52.2938 82.8743 52.7827 82.3854C53.2716 81.8965 54.0616 81.8965 54.5505 82.3854C55.0394 82.8743 55.0394 83.6643 54.5505 84.1532C54.0616 84.6421 53.2716 84.6421 52.7827 84.1532ZM48.3633 86.8048C48.8522 86.3159 49.6422 86.3159 50.1311 86.8048C50.62 87.2937 50.62 88.0837 50.1311 88.5726C49.6422 89.0615 48.8522 89.0615 48.3633 88.5726C47.8744 88.0837 47.8744 87.2937 48.3633 86.8048Z" fill="#8A2BE2"/>
</g>
<g clip-path="url(#clip4_2_17)">
<path d="M33 43C38.5234 43 43 38.5234 43 33C43 27.4766 38.5234 23 33 23C27.4766 23 23 27.4766 23 33C23 38.5234 27.4766 43 33 43ZM29.4102 35.7148C30.1094 36.5234 31.3047 37.375 33 37.375C34.6953 37.375 35.8906 36.5234 36.5898 35.7148C36.8164 35.4531 37.2109 35.4258 37.4727 35.6523C37.7344 35.8789 37.7617 36.2734 37.5352 36.5352C36.6641 37.5352 35.1523 38.625 33 38.625C30.8477 38.625 29.3359 37.5352 28.4648 36.5352C28.2383 36.2734 28.2656 35.8789 28.5273 35.6523C28.7891 35.4258 29.1836 35.4531 29.4102 35.7148ZM31.1406 31.125C31.1406 31.8164 30.582 32.375 29.8906 32.375C29.1992 32.375 28.6406 31.8164 28.6406 31.125C28.6406 30.4336 29.1992 29.875 29.8906 29.875C30.582 29.875 31.1406 30.4336 31.1406 31.125ZM36.1406 32.375C35.4492 32.375 34.8906 31.8164 34.8906 31.125C34.8906 30.4336 35.4492 29.875 36.1406 29.875C36.832 29.875 37.3906 30.4336 37.3906 31.125C37.3906 31.8164 36.832 32.375 36.1406 32.375Z" fill="#8A2BE2"/>
</g>
<g clip-path="url(#clip5_2_17)">
<path d="M75.9289 23.0711C79.8346 26.9767 86.1654 26.9767 90.0711 23.0711C93.9767 19.1654 93.9767 12.8346 90.0711 8.92892C86.1654 5.02326 79.8346 5.02326 75.9289 8.92892C72.0233 12.8346 72.0233 19.1654 75.9289 23.0711ZM78.5419 15.3813C78.4646 16.4475 78.7076 17.8948 79.9064 19.0936C81.1052 20.2923 82.5525 20.5354 83.6187 20.4581C83.964 20.4332 84.2623 20.6929 84.2872 21.0381C84.312 21.3834 84.0524 21.6817 83.7071 21.7066C82.384 21.7977 80.5445 21.4994 79.0225 19.9775C77.5006 18.4555 77.2023 16.6159 77.2934 15.2929C77.3183 14.9476 77.6166 14.688 77.9619 14.7128C78.3071 14.7377 78.5668 15.036 78.5419 15.3813ZM83.011 13.3594C82.5222 13.8483 81.7322 13.8483 81.2433 13.3594C80.7544 12.8705 80.7544 12.0805 81.2433 11.5916C81.7322 11.1027 82.5222 11.1027 83.011 11.5916C83.4999 12.0805 83.4999 12.8705 83.011 13.3594ZM85.6627 17.7788C85.1738 17.2899 85.1738 16.4999 85.6627 16.011C86.1516 15.5221 86.9416 15.5221 87.4305 16.011C87.9194 16.4999 87.9194 17.2899 87.4305 17.7788C86.9416 18.2677 86.1516 18.2677 85.6627 17.7788Z" fill="#8A2BE2"/>
</g>
<g clip-path="url(#clip6_2_17)">
<path d="M76.0711 57.2132C79.9767 61.1189 86.3075 61.1189 90.2132 57.2132C94.1188 53.3075 94.1188 46.9767 90.2132 43.0711C86.3075 39.1654 79.9767 39.1654 76.0711 43.0711C72.1654 46.9767 72.1654 53.3075 76.0711 57.2132ZM78.684 49.5234C78.6067 50.5896 78.8498 52.037 80.0485 53.2357C81.2473 54.4345 82.6947 54.6776 83.7608 54.6002C84.1061 54.5754 84.4044 54.835 84.4293 55.1803C84.4541 55.5255 84.1945 55.8238 83.8492 55.8487C82.5262 55.9399 80.6866 55.6415 79.1646 54.1196C77.6427 52.5977 77.3444 50.7581 77.4355 49.435C77.4604 49.0898 77.7587 48.8301 78.104 48.855C78.4493 48.8798 78.7089 49.1782 78.684 49.5234ZM83.1532 47.5015C82.6643 47.9904 81.8743 47.9904 81.3854 47.5015C80.8965 47.0126 80.8965 46.2227 81.3854 45.7338C81.8743 45.2449 82.6643 45.2449 83.1532 45.7338C83.6421 46.2227 83.6421 47.0126 83.1532 47.5015ZM85.8048 51.921C85.3159 51.4321 85.3159 50.6421 85.8048 50.1532C86.2937 49.6643 87.0837 49.6643 87.5726 50.1532C88.0615 50.6421 88.0615 51.4321 87.5726 51.921C87.0837 52.4098 86.2937 52.4098 85.8048 51.921Z" fill="#8A2BE2"/>
</g>
<g clip-path="url(#clip7_2_17)">
<path d="M76.0711 91.2132C79.9767 95.1189 86.3075 95.1189 90.2132 91.2132C94.1188 87.3075 94.1188 80.9767 90.2132 77.0711C86.3075 73.1654 79.9767 73.1654 76.0711 77.0711C72.1654 80.9767 72.1654 87.3075 76.0711 91.2132ZM78.684 83.5234C78.6067 84.5896 78.8498 86.037 80.0485 87.2357C81.2473 88.4345 82.6947 88.6776 83.7608 88.6002C84.1061 88.5754 84.4044 88.835 84.4293 89.1803C84.4541 89.5255 84.1945 89.8238 83.8492 89.8487C82.5262 89.9399 80.6866 89.6415 79.1646 88.1196C77.6427 86.5977 77.3444 84.7581 77.4355 83.435C77.4604 83.0898 77.7587 82.8301 78.104 82.855C78.4493 82.8798 78.7089 83.1782 78.684 83.5234ZM83.1532 81.5015C82.6643 81.9904 81.8743 81.9904 81.3854 81.5015C80.8965 81.0126 80.8965 80.2227 81.3854 79.7338C81.8743 79.2449 82.6643 79.2449 83.1532 79.7338C83.6421 80.2227 83.6421 81.0126 83.1532 81.5015ZM85.8048 85.921C85.3159 85.4321 85.3159 84.6421 85.8048 84.1532C86.2937 83.6643 87.0837 83.6643 87.5726 84.1532C88.0615 84.6421 88.0615 85.4321 87.5726 85.921C87.0837 86.4098 86.2937 86.4098 85.8048 85.921Z" fill="#8A2BE2"/>
</g>
<g clip-path="url(#clip8_2_17)">
<path d="M24.2132 43.0711C20.3075 39.1654 13.9767 39.1654 10.0711 43.0711C6.16539 46.9767 6.16539 53.3075 10.0711 57.2132C13.9767 61.1189 20.3075 61.1189 24.2132 57.2132C28.1188 53.3075 28.1188 46.9767 24.2132 43.0711ZM21.6002 50.7609C21.6775 49.6947 21.4345 48.2473 20.2357 47.0485C19.0369 45.8498 17.5896 45.6067 16.5234 45.684C16.1781 45.7089 15.8798 45.4493 15.855 45.104C15.8301 44.7587 16.0897 44.4604 16.435 44.4356C17.7581 44.3444 19.5977 44.6427 21.1196 46.1647C22.6415 47.6866 22.9398 49.5262 22.8487 50.8492C22.8238 51.1945 22.5255 51.4542 22.1803 51.4293C21.835 51.4044 21.5753 51.1061 21.6002 50.7609ZM17.1311 52.7827C17.62 52.2938 18.4099 52.2938 18.8988 52.7827C19.3877 53.2716 19.3877 54.0616 18.8988 54.5505C18.4099 55.0394 17.62 55.0394 17.1311 54.5505C16.6422 54.0616 16.6422 53.2716 17.1311 52.7827ZM14.4794 48.3633C14.9683 48.8522 14.9683 49.6422 14.4794 50.1311C13.9905 50.62 13.2006 50.62 12.7117 50.1311C12.2228 49.6422 12.2228 48.8522 12.7117 48.3633C13.2006 47.8744 13.9905 47.8744 14.4794 48.3633Z" fill="#8A2BE2"/>
</g>
<g clip-path="url(#clip9_2_17)">
<path d="M24.2132 9.07107C20.3076 5.16541 13.9767 5.16541 10.0711 9.07107C6.16542 12.9767 6.16542 19.3075 10.0711 23.2132C13.9767 27.1189 20.3076 27.1189 24.2132 23.2132C28.1189 19.3075 28.1189 12.9767 24.2132 9.07107ZM21.6002 16.7609C21.6776 15.6947 21.4345 14.2473 20.2357 13.0485C19.037 11.8498 17.5896 11.6067 16.5234 11.684C16.1782 11.7089 15.8799 11.4493 15.855 11.104C15.8301 10.7587 16.0898 10.4604 16.435 10.4356C17.7581 10.3444 19.5977 10.6427 21.1196 12.1647C22.6416 13.6866 22.9399 15.5262 22.8487 16.8492C22.8239 17.1945 22.5256 17.4542 22.1803 17.4293C21.835 17.4044 21.5754 17.1061 21.6002 16.7609ZM17.1311 18.7827C17.62 18.2938 18.41 18.2938 18.8989 18.7827C19.3878 19.2716 19.3878 20.0616 18.8989 20.5505C18.41 21.0394 17.62 21.0394 17.1311 20.5505C16.6422 20.0616 16.6422 19.2716 17.1311 18.7827ZM14.4795 14.3633C14.9683 14.8522 14.9683 15.6422 14.4795 16.1311C13.9906 16.62 13.2006 16.62 12.7117 16.1311C12.2228 15.6422 12.2228 14.8522 12.7117 14.3633C13.2006 13.8744 13.9906 13.8744 14.4795 14.3633Z" fill="#8A2BE2"/>
</g>
<g clip-path="url(#clip10_2_17)">
<path d="M24.2132 77.0711C20.3076 73.1654 13.9767 73.1654 10.0711 77.0711C6.16542 80.9767 6.16542 87.3075 10.0711 91.2132C13.9767 95.1189 20.3076 95.1189 24.2132 91.2132C28.1189 87.3075 28.1189 80.9767 24.2132 77.0711ZM21.6002 84.7609C21.6776 83.6947 21.4345 82.2473 20.2357 81.0485C19.037 79.8498 17.5896 79.6067 16.5234 79.684C16.1782 79.7089 15.8799 79.4493 15.855 79.104C15.8301 78.7587 16.0898 78.4604 16.435 78.4356C17.7581 78.3444 19.5977 78.6427 21.1196 80.1647C22.6416 81.6866 22.9399 83.5262 22.8487 84.8492C22.8239 85.1945 22.5256 85.4542 22.1803 85.4293C21.835 85.4044 21.5754 85.1061 21.6002 84.7609ZM17.1311 86.7827C17.62 86.2938 18.41 86.2938 18.8989 86.7827C19.3878 87.2716 19.3878 88.0616 18.8989 88.5505C18.41 89.0394 17.62 89.0394 17.1311 88.5505C16.6422 88.0616 16.6422 87.2716 17.1311 86.7827ZM14.4795 82.3633C14.9683 82.8522 14.9683 83.6422 14.4795 84.1311C13.9906 84.62 13.2006 84.62 12.7117 84.1311C12.2228 83.6422 12.2228 82.8522 12.7117 82.3633C13.2006 81.8744 13.9906 81.8744 14.4795 82.3633Z" fill="#8A2BE2"/>
</g>
<g clip-path="url(#clip11_2_17)">
<path d="M33 77C38.5234 77 43 72.5234 43 67C43 61.4766 38.5234 57 33 57C27.4766 57 23 61.4766 23 67C23 72.5234 27.4766 77 33 77ZM29.4102 69.7148C30.1094 70.5234 31.3047 71.375 33 71.375C34.6953 71.375 35.8906 70.5234 36.5898 69.7148C36.8164 69.4531 37.2109 69.4258 37.4727 69.6523C37.7344 69.8789 37.7617 70.2734 37.5352 70.5352C36.6641 71.5352 35.1523 72.625 33 72.625C30.8477 72.625 29.3359 71.5352 28.4648 70.5352C28.2383 70.2734 28.2656 69.8789 28.5273 69.6523C28.7891 69.4258 29.1836 69.4531 29.4102 69.7148ZM31.1406 65.125C31.1406 65.8164 30.582 66.375 29.8906 66.375C29.1992 66.375 28.6406 65.8164 28.6406 65.125C28.6406 64.4336 29.1992 63.875 29.8906 63.875C30.582 63.875 31.1406 64.4336 31.1406 65.125ZM36.1406 66.375C35.4492 66.375 34.8906 65.8164 34.8906 65.125C34.8906 64.4336 35.4492 63.875 36.1406 63.875C36.832 63.875 37.3906 64.4336 37.3906 65.125C37.3906 65.8164 36.832 66.375 36.1406 66.375Z" fill="#8A2BE2"/>
</g>
<g clip-path="url(#clip12_2_17)">
<path d="M33 110C38.5234 110 43 105.523 43 100C43 94.4766 38.5234 90 33 90C27.4766 90 23 94.4766 23 100C23 105.523 27.4766 110 33 110ZM29.4102 102.715C30.1094 103.523 31.3047 104.375 33 104.375C34.6953 104.375 35.8906 103.523 36.5898 102.715C36.8164 102.453 37.2109 102.426 37.4727 102.652C37.7344 102.879 37.7617 103.273 37.5352 103.535C36.6641 104.535 35.1523 105.625 33 105.625C30.8477 105.625 29.3359 104.535 28.4648 103.535C28.2383 103.273 28.2656 102.879 28.5273 102.652C28.7891 102.426 29.1836 102.453 29.4102 102.715ZM31.1406 98.125C31.1406 98.8164 30.582 99.375 29.8906 99.375C29.1992 99.375 28.6406 98.8164 28.6406 98.125C28.6406 97.4336 29.1992 96.875 29.8906 96.875C30.582 96.875 31.1406 97.4336 31.1406 98.125ZM36.1406 99.375C35.4492 99.375 34.8906 98.8164 34.8906 98.125C34.8906 97.4336 35.4492 96.875 36.1406 96.875C36.832 96.875 37.3906 97.4336 37.3906 98.125C37.3906 98.8164 36.832 99.375 36.1406 99.375Z" fill="#8A2BE2"/>
</g>
<g clip-path="url(#clip13_2_17)">
<path d="M67 77C72.5234 77 77 72.5234 77 67C77 61.4766 72.5234 57 67 57C61.4766 57 57 61.4766 57 67C57 72.5234 61.4766 77 67 77ZM63.4102 69.7148C64.1094 70.5234 65.3047 71.375 67 71.375C68.6953 71.375 69.8906 70.5234 70.5898 69.7148C70.8164 69.4531 71.2109 69.4258 71.4727 69.6523C71.7344 69.8789 71.7617 70.2734 71.5352 70.5352C70.6641 71.5352 69.1523 72.625 67 72.625C64.8477 72.625 63.3359 71.5352 62.4648 70.5352C62.2383 70.2734 62.2656 69.8789 62.5273 69.6523C62.7891 69.4258 63.1836 69.4531 63.4102 69.7148ZM65.1406 65.125C65.1406 65.8164 64.582 66.375 63.8906 66.375C63.1992 66.375 62.6406 65.8164 62.6406 65.125C62.6406 64.4336 63.1992 63.875 63.8906 63.875C64.582 63.875 65.1406 64.4336 65.1406 65.125ZM70.1406 66.375C69.4492 66.375 68.8906 65.8164 68.8906 65.125C68.8906 64.4336 69.4492 63.875 70.1406 63.875C70.832 63.875 71.3906 64.4336 71.3906 65.125C71.3906 65.8164 70.832 66.375 70.1406 66.375Z" fill="#8A2BE2"/>
</g>
<g clip-path="url(#clip14_2_17)">
<path d="M67 43C72.5234 43 77 38.5234 77 33C77 27.4766 72.5234 23 67 23C61.4766 23 57 27.4766 57 33C57 38.5234 61.4766 43 67 43ZM63.4102 35.7148C64.1094 36.5234 65.3047 37.375 67 37.375C68.6953 37.375 69.8906 36.5234 70.5898 35.7148C70.8164 35.4531 71.2109 35.4258 71.4727 35.6523C71.7344 35.8789 71.7617 36.2734 71.5352 36.5352C70.6641 37.5352 69.1523 38.625 67 38.625C64.8477 38.625 63.3359 37.5352 62.4648 36.5352C62.2383 36.2734 62.2656 35.8789 62.5273 35.6523C62.7891 35.4258 63.1836 35.4531 63.4102 35.7148ZM65.1406 31.125C65.1406 31.8164 64.582 32.375 63.8906 32.375C63.1992 32.375 62.6406 31.8164 62.6406 31.125C62.6406 30.4336 63.1992 29.875 63.8906 29.875C64.582 29.875 65.1406 30.4336 65.1406 31.125ZM70.1406 32.375C69.4492 32.375 68.8906 31.8164 68.8906 31.125C68.8906 30.4336 69.4492 29.875 70.1406 29.875C70.832 29.875 71.3906 30.4336 71.3906 31.125C71.3906 31.8164 70.832 32.375 70.1406 32.375Z" fill="#8A2BE2"/>
</g>
<g clip-path="url(#clip15_2_17)">
<path d="M67 110C72.5234 110 77 105.523 77 100C77 94.4766 72.5234 90 67 90C61.4766 90 57 94.4766 57 100C57 105.523 61.4766 110 67 110ZM63.4102 102.715C64.1094 103.523 65.3047 104.375 67 104.375C68.6953 104.375 69.8906 103.523 70.5898 102.715C70.8164 102.453 71.2109 102.426 71.4727 102.652C71.7344 102.879 71.7617 103.273 71.5352 103.535C70.6641 104.535 69.1523 105.625 67 105.625C64.8477 105.625 63.3359 104.535 62.4648 103.535C62.2383 103.273 62.2656 102.879 62.5273 102.652C62.7891 102.426 63.1836 102.453 63.4102 102.715ZM65.1406 98.125C65.1406 98.8164 64.582 99.375 63.8906 99.375C63.1992 99.375 62.6406 98.8164 62.6406 98.125C62.6406 97.4336 63.1992 96.875 63.8906 96.875C64.582 96.875 65.1406 97.4336 65.1406 98.125ZM70.1406 99.375C69.4492 99.375 68.8906 98.8164 68.8906 98.125C68.8906 97.4336 69.4492 96.875 70.1406 96.875C70.832 96.875 71.3906 97.4336 71.3906 98.125C71.3906 98.8164 70.832 99.375 70.1406 99.375Z" fill="#8A2BE2"/>
</g>
<path d="M0 43C5.52344 43 10 38.5234 10 33C10 27.4766 5.52344 23 0 23C-5.52344 23 -10 27.4766 -10 33C-10 38.5234 -5.52344 43 0 43ZM-3.58984 35.7148C-2.89062 36.5234 -1.69531 37.375 0 37.375C1.69531 37.375 2.89062 36.5234 3.58984 35.7148C3.81641 35.4531 4.21094 35.4258 4.47266 35.6523C4.73437 35.8789 4.76172 36.2734 4.53516 36.5352C3.66406 37.5352 2.15234 38.625 0 38.625C-2.15234 38.625 -3.66406 37.5352 -4.53516 36.5352C-4.76172 36.2734 -4.73437 35.8789 -4.47266 35.6523C-4.21094 35.4258 -3.81641 35.4531 -3.58984 35.7148ZM-1.85938 31.125C-1.85938 31.8164 -2.41797 32.375 -3.10938 32.375C-3.80078 32.375 -4.35938 31.8164 -4.35938 31.125C-4.35938 30.4336 -3.80078 29.875 -3.10938 29.875C-2.41797 29.875 -1.85938 30.4336 -1.85938 31.125ZM3.14062 32.375C2.44922 32.375 1.89062 31.8164 1.89062 31.125C1.89062 30.4336 2.44922 29.875 3.14062 29.875C3.83203 29.875 4.39062 30.4336 4.39062 31.125C4.39062 31.8164 3.83203 32.375 3.14062 32.375Z" fill="#8A2BE2"/>
<path d="M0 110C5.52344 110 10 105.523 10 100C10 94.4766 5.52344 90 0 90C-5.52344 90 -10 94.4766 -10 100C-10 105.523 -5.52344 110 0 110ZM-3.58984 102.715C-2.89062 103.523 -1.69531 104.375 0 104.375C1.69531 104.375 2.89062 103.523 3.58984 102.715C3.81641 102.453 4.21094 102.426 4.47266 102.652C4.73437 102.879 4.76172 103.273 4.53516 103.535C3.66406 104.535 2.15234 105.625 0 105.625C-2.15234 105.625 -3.66406 104.535 -4.53516 103.535C-4.76172 103.273 -4.73437 102.879 -4.47266 102.652C-4.21094 102.426 -3.81641 102.453 -3.58984 102.715ZM-1.85938 98.125C-1.85938 98.8164 -2.41797 99.375 -3.10938 99.375C-3.80078 99.375 -4.35938 98.8164 -4.35938 98.125C-4.35938 97.4336 -3.80078 96.875 -3.10938 96.875C-2.41797 96.875 -1.85938 97.4336 -1.85938 98.125ZM3.14062 99.375C2.44922 99.375 1.89062 98.8164 1.89062 98.125C1.89062 97.4336 2.44922 96.875 3.14062 96.875C3.83203 96.875 4.39062 97.4336 4.39062 98.125C4.39062 98.8164 3.83203 99.375 3.14062 99.375Z" fill="#8A2BE2"/>
<path d="M100 110C105.523 110 110 105.523 110 100C110 94.4766 105.523 90 100 90C94.4766 90 90 94.4766 90 100C90 105.523 94.4766 110 100 110ZM96.4102 102.715C97.1094 103.523 98.3047 104.375 100 104.375C101.695 104.375 102.891 103.523 103.59 102.715C103.816 102.453 104.211 102.426 104.473 102.652C104.734 102.879 104.762 103.273 104.535 103.535C103.664 104.535 102.152 105.625 100 105.625C97.8477 105.625 96.3359 104.535 95.4648 103.535C95.2383 103.273 95.2656 102.879 95.5273 102.652C95.7891 102.426 96.1836 102.453 96.4102 102.715ZM98.1406 98.125C98.1406 98.8164 97.582 99.375 96.8906 99.375C96.1992 99.375 95.6406 98.8164 95.6406 98.125C95.6406 97.4336 96.1992 96.875 96.8906 96.875C97.582 96.875 98.1406 97.4336 98.1406 98.125ZM103.141 99.375C102.449 99.375 101.891 98.8164 101.891 98.125C101.891 97.4336 102.449 96.875 103.141 96.875C103.832 96.875 104.391 97.4336 104.391 98.125C104.391 98.8164 103.832 99.375 103.141 99.375Z" fill="#8A2BE2"/>
<path d="M0 10C5.52344 10 10 5.52344 10 0C10 -5.52344 5.52344 -10 0 -10C-5.52344 -10 -10 -5.52344 -10 0C-10 5.52344 -5.52344 10 0 10ZM-3.58984 2.71484C-2.89062 3.52344 -1.69531 4.375 0 4.375C1.69531 4.375 2.89062 3.52344 3.58984 2.71484C3.81641 2.45313 4.21094 2.42578 4.47266 2.65234C4.73437 2.87891 4.76172 3.27344 4.53516 3.53516C3.66406 4.53516 2.15234 5.625 0 5.625C-2.15234 5.625 -3.66406 4.53516 -4.53516 3.53516C-4.76172 3.27344 -4.73437 2.87891 -4.47266 2.65234C-4.21094 2.42578 -3.81641 2.45313 -3.58984 2.71484ZM-1.85938 -1.875C-1.85938 -1.18359 -2.41797 -0.625 -3.10938 -0.625C-3.80078 -0.625 -4.35938 -1.18359 -4.35938 -1.875C-4.35938 -2.56641 -3.80078 -3.125 -3.10938 -3.125C-2.41797 -3.125 -1.85938 -2.56641 -1.85938 -1.875ZM3.14062 -0.625C2.44922 -0.625 1.89062 -1.18359 1.89062 -1.875C1.89062 -2.56641 2.44922 -3.125 3.14062 -3.125C3.83203 -3.125 4.39062 -2.56641 4.39062 -1.875C4.39062 -1.18359 3.83203 -0.625 3.14062 -0.625Z" fill="#8A2BE2"/>
<path d="M100 10C105.523 10 110 5.52344 110 0C110 -5.52344 105.523 -10 100 -10C94.4766 -10 90 -5.52344 90 0C90 5.52344 94.4766 10 100 10ZM96.4102 2.71484C97.1094 3.52344 98.3047 4.375 100 4.375C101.695 4.375 102.891 3.52344 103.59 2.71484C103.816 2.45313 104.211 2.42578 104.473 2.65234C104.734 2.87891 104.762 3.27344 104.535 3.53516C103.664 4.53516 102.152 5.625 100 5.625C97.8477 5.625 96.3359 4.53516 95.4648 3.53516C95.2383 3.27344 95.2656 2.87891 95.5273 2.65234C95.7891 2.42578 96.1836 2.45313 96.4102 2.71484ZM98.1406 -1.875C98.1406 -1.18359 97.582 -0.625 96.8906 -0.625C96.1992 -0.625 95.6406 -1.18359 95.6406 -1.875C95.6406 -2.56641 96.1992 -3.125 96.8906 -3.125C97.582 -3.125 98.1406 -2.56641 98.1406 -1.875ZM103.141 -0.625C102.449 -0.625 101.891 -1.18359 101.891 -1.875C101.891 -2.56641 102.449 -3.125 103.141 -3.125C103.832 -3.125 104.391 -2.56641 104.391 -1.875C104.391 -1.18359 103.832 -0.625 103.141 -0.625Z" fill="#8A2BE2"/>
<g clip-path="url(#clip16_2_17)">
<path d="M33 10C38.5234 10 43 5.52344 43 0C43 -5.52344 38.5234 -10 33 -10C27.4766 -10 23 -5.52344 23 0C23 5.52344 27.4766 10 33 10ZM29.4102 2.71484C30.1094 3.52344 31.3047 4.375 33 4.375C34.6953 4.375 35.8906 3.52344 36.5898 2.71484C36.8164 2.45313 37.2109 2.42578 37.4727 2.65234C37.7344 2.87891 37.7617 3.27344 37.5352 3.53516C36.6641 4.53516 35.1523 5.625 33 5.625C30.8477 5.625 29.3359 4.53516 28.4648 3.53516C28.2383 3.27344 28.2656 2.87891 28.5273 2.65234C28.7891 2.42578 29.1836 2.45313 29.4102 2.71484ZM31.1406 -1.875C31.1406 -1.18359 30.582 -0.625 29.8906 -0.625C29.1992 -0.625 28.6406 -1.18359 28.6406 -1.875C28.6406 -2.56641 29.1992 -3.125 29.8906 -3.125C30.582 -3.125 31.1406 -2.56641 31.1406 -1.875ZM36.1406 -0.625C35.4492 -0.625 34.8906 -1.18359 34.8906 -1.875C34.8906 -2.56641 35.4492 -3.125 36.1406 -3.125C36.832 -3.125 37.3906 -2.56641 37.3906 -1.875C37.3906 -1.18359 36.832 -0.625 36.1406 -0.625Z" fill="#8A2BE2"/>
</g>
<g clip-path="url(#clip17_2_17)">
<path d="M67 10C72.5234 10 77 5.52344 77 0C77 -5.52344 72.5234 -10 67 -10C61.4766 -10 57 -5.52344 57 0C57 5.52344 61.4766 10 67 10ZM63.4102 2.71484C64.1094 3.52344 65.3047 4.375 67 4.375C68.6953 4.375 69.8906 3.52344 70.5898 2.71484C70.8164 2.45313 71.2109 2.42578 71.4727 2.65234C71.7344 2.87891 71.7617 3.27344 71.5352 3.53516C70.6641 4.53516 69.1523 5.625 67 5.625C64.8477 5.625 63.3359 4.53516 62.4648 3.53516C62.2383 3.27344 62.2656 2.87891 62.5273 2.65234C62.7891 2.42578 63.1836 2.45313 63.4102 2.71484ZM65.1406 -1.875C65.1406 -1.18359 64.582 -0.625 63.8906 -0.625C63.1992 -0.625 62.6406 -1.18359 62.6406 -1.875C62.6406 -2.56641 63.1992 -3.125 63.8906 -3.125C64.582 -3.125 65.1406 -2.56641 65.1406 -1.875ZM70.1406 -0.625C69.4492 -0.625 68.8906 -1.18359 68.8906 -1.875C68.8906 -2.56641 69.4492 -3.125 70.1406 -3.125C70.832 -3.125 71.3906 -2.56641 71.3906 -1.875C71.3906 -1.18359 70.832 -0.625 70.1406 -0.625Z" fill="#8A2BE2"/>
<g clip-path="url(#clip18_2_17)">
<path d="M67 10C72.5234 10 77 5.52344 77 0C77 -5.52344 72.5234 -10 67 -10C61.4766 -10 57 -5.52344 57 0C57 5.52344 61.4766 10 67 10ZM63.4102 2.71484C64.1094 3.52344 65.3047 4.375 67 4.375C68.6953 4.375 69.8906 3.52344 70.5898 2.71484C70.8164 2.45313 71.2109 2.42578 71.4727 2.65234C71.7344 2.87891 71.7617 3.27344 71.5352 3.53516C70.6641 4.53516 69.1523 5.625 67 5.625C64.8477 5.625 63.3359 4.53516 62.4648 3.53516C62.2383 3.27344 62.2656 2.87891 62.5273 2.65234C62.7891 2.42578 63.1836 2.45313 63.4102 2.71484ZM65.1406 -1.875C65.1406 -1.18359 64.582 -0.625 63.8906 -0.625C63.1992 -0.625 62.6406 -1.18359 62.6406 -1.875C62.6406 -2.56641 63.1992 -3.125 63.8906 -3.125C64.582 -3.125 65.1406 -2.56641 65.1406 -1.875ZM70.1406 -0.625C69.4492 -0.625 68.8906 -1.18359 68.8906 -1.875C68.8906 -2.56641 69.4492 -3.125 70.1406 -3.125C70.832 -3.125 71.3906 -2.56641 71.3906 -1.875C71.3906 -1.18359 70.832 -0.625 70.1406 -0.625Z" fill="#8A2BE2"/>
</g>
</g>
<path d="M100 43C105.523 43 110 38.5234 110 33C110 27.4766 105.523 23 100 23C94.4766 23 90 27.4766 90 33C90 38.5234 94.4766 43 100 43ZM96.4102 35.7148C97.1094 36.5234 98.3047 37.375 100 37.375C101.695 37.375 102.891 36.5234 103.59 35.7148C103.816 35.4531 104.211 35.4258 104.473 35.6523C104.734 35.8789 104.762 36.2734 104.535 36.5352C103.664 37.5352 102.152 38.625 100 38.625C97.8477 38.625 96.3359 37.5352 95.4648 36.5352C95.2383 36.2734 95.2656 35.8789 95.5273 35.6523C95.7891 35.4258 96.1836 35.4531 96.4102 35.7148ZM98.1406 31.125C98.1406 31.8164 97.582 32.375 96.8906 32.375C96.1992 32.375 95.6406 31.8164 95.6406 31.125C95.6406 30.4336 96.1992 29.875 96.8906 29.875C97.582 29.875 98.1406 30.4336 98.1406 31.125ZM103.141 32.375C102.449 32.375 101.891 31.8164 101.891 31.125C101.891 30.4336 102.449 29.875 103.141 29.875C103.832 29.875 104.391 30.4336 104.391 31.125C104.391 31.8164 103.832 32.375 103.141 32.375Z" fill="#8A2BE2"/>
<path d="M0 76C5.52344 76 10 71.5234 10 66C10 60.4766 5.52344 56 0 56C-5.52344 56 -10 60.4766 -10 66C-10 71.5234 -5.52344 76 0 76ZM-3.58984 68.7148C-2.89062 69.5234 -1.69531 70.375 0 70.375C1.69531 70.375 2.89062 69.5234 3.58984 68.7148C3.81641 68.4531 4.21094 68.4258 4.47266 68.6523C4.73437 68.8789 4.76172 69.2734 4.53516 69.5352C3.66406 70.5352 2.15234 71.625 0 71.625C-2.15234 71.625 -3.66406 70.5352 -4.53516 69.5352C-4.76172 69.2734 -4.73437 68.8789 -4.47266 68.6523C-4.21094 68.4258 -3.81641 68.4531 -3.58984 68.7148ZM-1.85938 64.125C-1.85938 64.8164 -2.41797 65.375 -3.10938 65.375C-3.80078 65.375 -4.35938 64.8164 -4.35938 64.125C-4.35938 63.4336 -3.80078 62.875 -3.10938 62.875C-2.41797 62.875 -1.85938 63.4336 -1.85938 64.125ZM3.14062 65.375C2.44922 65.375 1.89062 64.8164 1.89062 64.125C1.89062 63.4336 2.44922 62.875 3.14062 62.875C3.83203 62.875 4.39062 63.4336 4.39062 64.125C4.39062 64.8164 3.83203 65.375 3.14062 65.375Z" fill="#8A2BE2"/>
<path d="M100 76C105.523 76 110 71.5234 110 66C110 60.4766 105.523 56 100 56C94.4766 56 90 60.4766 90 66C90 71.5234 94.4766 76 100 76ZM96.4102 68.7148C97.1094 69.5234 98.3047 70.375 100 70.375C101.695 70.375 102.891 69.5234 103.59 68.7148C103.816 68.4531 104.211 68.4258 104.473 68.6523C104.734 68.8789 104.762 69.2734 104.535 69.5352C103.664 70.5352 102.152 71.625 100 71.625C97.8477 71.625 96.3359 70.5352 95.4648 69.5352C95.2383 69.2734 95.2656 68.8789 95.5273 68.6523C95.7891 68.4258 96.1836 68.4531 96.4102 68.7148ZM98.1406 64.125C98.1406 64.8164 97.582 65.375 96.8906 65.375C96.1992 65.375 95.6406 64.8164 95.6406 64.125C95.6406 63.4336 96.1992 62.875 96.8906 62.875C97.582 62.875 98.1406 63.4336 98.1406 64.125ZM103.141 65.375C102.449 65.375 101.891 64.8164 101.891 64.125C101.891 63.4336 102.449 62.875 103.141 62.875C103.832 62.875 104.391 63.4336 104.391 64.125C104.391 64.8164 103.832 65.375 103.141 65.375Z" fill="#8A2BE2"/>
</g>
<defs>
<clipPath id="clip0_2_17">
<rect width="100" height="100" fill="white"/>
</clipPath>
<clipPath id="clip1_2_17">
<rect width="20" height="20" fill="white" transform="translate(64.1422 50) rotate(135)"/>
</clipPath>
<clipPath id="clip2_2_17">
<rect width="20" height="20" fill="white" transform="translate(64.2843 16.1421) rotate(135)"/>
</clipPath>
<clipPath id="clip3_2_17">
<rect width="20" height="20" fill="white" transform="translate(64.2843 84.1421) rotate(135)"/>
</clipPath>
<clipPath id="clip4_2_17">
<rect width="20" height="20" fill="white" transform="translate(23 23)"/>
</clipPath>
<clipPath id="clip5_2_17">
<rect width="20" height="20" fill="white" transform="translate(83 1.85785) rotate(45)"/>
</clipPath>
<clipPath id="clip6_2_17">
<rect width="20" height="20" fill="white" transform="translate(83.1421 36) rotate(45)"/>
</clipPath>
<clipPath id="clip7_2_17">
<rect width="20" height="20" fill="white" transform="translate(83.1421 70) rotate(45)"/>
</clipPath>
<clipPath id="clip8_2_17">
<rect width="20" height="20" fill="white" transform="translate(17.1421 64.2843) rotate(-135)"/>
</clipPath>
<clipPath id="clip9_2_17">
<rect width="20" height="20" fill="white" transform="translate(17.1422 30.2843) rotate(-135)"/>
</clipPath>
<clipPath id="clip10_2_17">
<rect width="20" height="20" fill="white" transform="translate(17.1422 98.2843) rotate(-135)"/>
</clipPath>
<clipPath id="clip11_2_17">
<rect width="20" height="20" fill="white" transform="translate(23 57)"/>
</clipPath>
<clipPath id="clip12_2_17">
<rect width="20" height="20" fill="white" transform="translate(23 90)"/>
</clipPath>
<clipPath id="clip13_2_17">
<rect width="20" height="20" fill="white" transform="translate(57 57)"/>
</clipPath>
<clipPath id="clip14_2_17">
<rect width="20" height="20" fill="white" transform="translate(57 23)"/>
</clipPath>
<clipPath id="clip15_2_17">
<rect width="20" height="20" fill="white" transform="translate(57 90)"/>
</clipPath>
<clipPath id="clip16_2_17">
<rect width="20" height="20" fill="white" transform="translate(23 -10)"/>
</clipPath>
<clipPath id="clip17_2_17">
<rect width="20" height="20" fill="white" transform="translate(57 -10)"/>
</clipPath>
<clipPath id="clip18_2_17">
<rect width="20" height="20" fill="white" transform="translate(57 -10)"/>
</clipPath>
</defs>
</svg>
