<svg width="100" height="100" viewBox="0 0 100 100" fill="none" xmlns="http://www.w3.org/2000/svg">
<g clip-path="url(#clip0_2_5)">
<rect width="100" height="100" fill="white"/>
<g clip-path="url(#clip1_2_5)">
<path d="M50 60C55.5234 60 60 55.5234 60 50C60 44.4766 55.5234 40 50 40C44.4766 40 40 44.4766 40 50C40 55.5234 44.4766 60 50 60ZM46.4102 52.7148C47.1094 53.5234 48.3047 54.375 50 54.375C51.6953 54.375 52.8906 53.5234 53.5898 52.7148C53.8164 52.4531 54.2109 52.4258 54.4727 52.6523C54.7344 52.8789 54.7617 53.2734 54.5352 53.5352C53.6641 54.5352 52.1523 55.625 50 55.625C47.8477 55.625 46.3359 54.5352 45.4648 53.5352C45.2383 53.2734 45.2656 52.8789 45.5273 52.6523C45.7891 52.4258 46.1836 52.4531 46.4102 52.7148ZM48.1406 48.125C48.1406 48.8164 47.582 49.375 46.8906 49.375C46.1992 49.375 45.6406 48.8164 45.6406 48.125C45.6406 47.4336 46.1992 46.875 46.8906 46.875C47.582 46.875 48.1406 47.4336 48.1406 48.125ZM53.1406 49.375C52.4492 49.375 51.8906 48.8164 51.8906 48.125C51.8906 47.4336 52.4492 46.875 53.1406 46.875C53.832 46.875 54.3906 47.4336 54.3906 48.125C54.3906 48.8164 53.832 49.375 53.1406 49.375Z" fill="#8A2BE2"/>
</g>
<g clip-path="url(#clip2_2_5)">
<path d="M92.9289 57.0711C96.8346 60.9767 103.165 60.9767 107.071 57.0711C110.977 53.1654 110.977 46.8346 107.071 42.9289C103.165 39.0233 96.8346 39.0233 92.9289 42.9289C89.0233 46.8346 89.0233 53.1654 92.9289 57.0711ZM95.5419 49.3813C95.4646 50.4475 95.7076 51.8948 96.9064 53.0936C98.1052 54.2923 99.5525 54.5354 100.619 54.4581C100.964 54.4332 101.262 54.6929 101.287 55.0381C101.312 55.3834 101.052 55.6817 100.707 55.7066C99.384 55.7977 97.5445 55.4994 96.0225 53.9775C94.5006 52.4555 94.2023 50.6159 94.2934 49.2929C94.3183 48.9476 94.6166 48.688 94.9619 48.7128C95.3071 48.7377 95.5668 49.036 95.5419 49.3813ZM100.011 47.3594C99.5222 47.8483 98.7322 47.8483 98.2433 47.3594C97.7544 46.8705 97.7544 46.0805 98.2433 45.5916C98.7322 45.1027 99.5222 45.1027 100.011 45.5916C100.5 46.0805 100.5 46.8705 100.011 47.3594ZM102.663 51.7788C102.174 51.2899 102.174 50.4999 102.663 50.011C103.152 49.5221 103.942 49.5221 104.43 50.011C104.919 50.4999 104.919 51.2899 104.43 51.7788C103.942 52.2677 103.152 52.2677 102.663 51.7788Z" fill="#8A2BE2"/>
</g>
<g clip-path="url(#clip3_2_5)">
<path d="M-6.92895 57.2132C-3.02329 61.1189 3.30753 61.1189 7.21319 57.2132C11.1188 53.3075 11.1188 46.9767 7.21319 43.0711C3.30753 39.1654 -3.02329 39.1654 -6.92895 43.0711C-10.8346 46.9767 -10.8346 53.3075 -6.92895 57.2132ZM-4.31597 49.5234C-4.39331 50.5896 -4.15024 52.037 -2.95147 53.2357C-1.7527 54.4345 -0.305346 54.6776 0.760839 54.6002C1.10611 54.5754 1.40442 54.835 1.42928 55.1803C1.45414 55.5255 1.19449 55.8238 0.849227 55.8487C-0.473836 55.9399 -2.31342 55.6415 -3.83536 54.1196C-5.35729 52.5977 -5.6556 50.7581 -5.56445 49.435C-5.53959 49.0898 -5.24128 48.8301 -4.89602 48.855C-4.55075 48.8798 -4.29111 49.1782 -4.31597 49.5234ZM0.153169 47.5015C-0.335729 47.9904 -1.1257 47.9904 -1.6146 47.5015C-2.1035 47.0126 -2.1035 46.2227 -1.6146 45.7338C-1.1257 45.2449 -0.335729 45.2449 0.153169 45.7338C0.642067 46.2227 0.642067 47.0126 0.153169 47.5015ZM2.80482 51.921C2.31592 51.4321 2.31592 50.6421 2.80482 50.1532C3.29372 49.6643 4.08369 49.6643 4.57259 50.1532C5.06148 50.6421 5.06148 51.4321 4.57259 51.921C4.08369 52.4098 3.29372 52.4098 2.80482 51.921Z" fill="#8A2BE2"/>
</g>
<g clip-path="url(#clip4_2_5)">
<path d="M57.2132 7.21319C61.1189 3.30753 61.1189 -3.02329 57.2132 -6.92895C53.3075 -10.8346 46.9767 -10.8346 43.0711 -6.92895C39.1654 -3.02329 39.1654 3.30753 43.0711 7.21319C46.9767 11.1188 53.3075 11.1188 57.2132 7.21319ZM49.5234 4.60021C50.5896 4.67755 52.037 4.43448 53.2357 3.23571C54.4345 2.03695 54.6776 0.589587 54.6002 -0.476598C54.5754 -0.821865 54.835 -1.12018 55.1803 -1.14504C55.5255 -1.16989 55.8238 -0.910254 55.8487 -0.564987C55.9399 0.758076 55.6415 2.59766 54.1196 4.1196C52.5977 5.64153 50.7581 5.93984 49.435 5.84869C49.0898 5.82383 48.8301 5.52552 48.855 5.18026C48.8798 4.83499 49.1782 4.57535 49.5234 4.60021ZM47.5015 0.131072C47.9904 0.61997 47.9904 1.40994 47.5015 1.89884C47.0126 2.38774 46.2227 2.38774 45.7338 1.89884C45.2449 1.40994 45.2449 0.61997 45.7338 0.131072C46.2227 -0.357826 47.0126 -0.357826 47.5015 0.131072ZM51.921 -2.52058C51.4321 -2.03168 50.6421 -2.03168 50.1532 -2.52058C49.6643 -3.00948 49.6643 -3.79945 50.1532 -4.28835C50.6421 -4.77724 51.4321 -4.77724 51.921 -4.28835C52.4098 -3.79945 52.4098 -3.00948 51.921 -2.52058Z" fill="#8A2BE2"/>
</g>
<g clip-path="url(#clip5_2_5)">
<path d="M57.2132 107.213C61.1189 103.308 61.1189 96.9767 57.2132 93.0711C53.3075 89.1654 46.9767 89.1654 43.0711 93.0711C39.1654 96.9767 39.1654 103.308 43.0711 107.213C46.9767 111.119 53.3075 111.119 57.2132 107.213ZM49.5234 104.6C50.5896 104.678 52.037 104.434 53.2357 103.236C54.4345 102.037 54.6776 100.59 54.6002 99.5234C54.5754 99.1781 54.835 98.8798 55.1803 98.855C55.5255 98.8301 55.8238 99.0897 55.8487 99.435C55.9399 100.758 55.6415 102.598 54.1196 104.12C52.5977 105.642 50.7581 105.94 49.435 105.849C49.0898 105.824 48.8301 105.526 48.855 105.18C48.8798 104.835 49.1782 104.575 49.5234 104.6ZM47.5015 100.131C47.9904 100.62 47.9904 101.41 47.5015 101.899C47.0126 102.388 46.2227 102.388 45.7338 101.899C45.2449 101.41 45.2449 100.62 45.7338 100.131C46.2227 99.6422 47.0126 99.6422 47.5015 100.131ZM51.921 97.4794C51.4321 97.9683 50.6421 97.9683 50.1532 97.4794C49.6643 96.9905 49.6643 96.2006 50.1532 95.7117C50.6421 95.2228 51.4321 95.2228 51.921 95.7117C52.4098 96.2006 52.4098 96.9905 51.921 97.4794Z" fill="#8A2BE2"/>
</g>
</g>
<defs>
<clipPath id="clip0_2_5">
<rect width="100" height="100" fill="white"/>
</clipPath>
<clipPath id="clip1_2_5">
<rect width="20" height="20" fill="white" transform="translate(40 40)"/>
</clipPath>
<clipPath id="clip2_2_5">
<rect width="20" height="20" fill="white" transform="translate(100 35.8578) rotate(45)"/>
</clipPath>
<clipPath id="clip3_2_5">
<rect width="20" height="20" fill="white" transform="translate(0.14212 36) rotate(45)"/>
</clipPath>
<clipPath id="clip4_2_5">
<rect width="20" height="20" fill="white" transform="translate(36 0.14212) rotate(-45)"/>
</clipPath>
<clipPath id="clip5_2_5">
<rect width="20" height="20" fill="white" transform="translate(36 100.142) rotate(-45)"/>
</clipPath>
</defs>
</svg>
