<svg width="56" height="40" viewBox="0 0 56 40" fill="none" xmlns="http://www.w3.org/2000/svg">
<rect y="8" width="56" height="32" rx="16" fill="#8A2BE2"/>
<circle cx="16" cy="24" r="12" fill="white"/>
<rect x="4" y="12" width="24" height="24" stroke="#4CAEE5" stroke-width="0.5"/>
<rect x="2.5" y="10.5" width="3" height="3" fill="#FDFDFD" stroke="#4CAEE5" stroke-width="0.5"/>
<rect x="26.5" y="10.5" width="3" height="3" fill="#FDFDFD" stroke="#4CAEE5" stroke-width="0.5"/>
<rect x="2.5" y="34.5" width="3" height="3" fill="#FDFDFD" stroke="#4CAEE5" stroke-width="0.5"/>
<path d="M4 24H28" stroke="#4CAEE5" stroke-width="0.5" stroke-dasharray="1 1"/>
<path d="M16 12L16 36" stroke="#4CAEE5" stroke-width="0.5" stroke-dasharray="1 1"/>
<rect x="26.5" y="34.5" width="3" height="3" fill="#FDFDFD" stroke="#4CAEE5" stroke-width="0.5"/>
<path d="M6.08984 6V5.34668H4.21777L5.02051 4.49707C5.15918 4.35449 5.28516 4.21875 5.39844 4.08984C5.51172 3.95898 5.60938 3.83105 5.69141 3.70605C5.77148 3.58105 5.83301 3.45508 5.87598 3.32812C5.9209 3.19922 5.94336 3.06445 5.94336 2.92383C5.94336 2.73828 5.91406 2.56934 5.85547 2.41699C5.79688 2.2627 5.71191 2.13086 5.60059 2.02148C5.4873 1.91211 5.34668 1.82715 5.17871 1.7666C5.0127 1.70605 4.82129 1.67578 4.60449 1.67578C4.37793 1.67578 4.1709 1.71289 3.9834 1.78711C3.79785 1.85938 3.63965 1.95898 3.50879 2.08594C3.37598 2.21289 3.27344 2.36133 3.20117 2.53125C3.12891 2.69922 3.09277 2.87793 3.09277 3.06738H3.91016C3.91016 2.95215 3.9248 2.84961 3.9541 2.75977C3.9834 2.66992 4.02637 2.59473 4.08301 2.53418C4.1377 2.47559 4.20605 2.43164 4.28809 2.40234C4.37207 2.37109 4.46875 2.35547 4.57812 2.35547C4.66211 2.35547 4.73828 2.36914 4.80664 2.39648C4.87695 2.42383 4.9375 2.46289 4.98828 2.51367C5.03711 2.56641 5.0752 2.62988 5.10254 2.7041C5.12988 2.77832 5.14355 2.86328 5.14355 2.95898C5.14355 3.02344 5.13281 3.08984 5.11133 3.1582C5.0918 3.22656 5.05957 3.2998 5.01465 3.37793C4.96777 3.45801 4.90723 3.5459 4.83301 3.6416C4.75879 3.7373 4.66797 3.84375 4.56055 3.96094L3.18066 5.44336V6H6.08984ZM9.2832 4.41504V1.73438H8.45703L6.66406 4.56445L6.69629 5.07422H8.46875V6H9.2832V5.07422H9.77832V4.41504H9.2832ZM7.46387 4.41504L8.38965 2.9707L8.46875 2.83008V4.41504H7.46387ZM15.5615 3.82031L14.876 2.83008H14L15.0605 4.38574L13.959 6H14.8408L15.5645 4.96289L16.2939 6H17.1729L16.0713 4.38574L17.1348 2.83008H16.2588L15.5615 3.82031ZM24.1074 6V5.34668H22.2354L23.0381 4.49707C23.1768 4.35449 23.3027 4.21875 23.416 4.08984C23.5293 3.95898 23.627 3.83105 23.709 3.70605C23.7891 3.58105 23.8506 3.45508 23.8936 3.32812C23.9385 3.19922 23.9609 3.06445 23.9609 2.92383C23.9609 2.73828 23.9316 2.56934 23.873 2.41699C23.8145 2.2627 23.7295 2.13086 23.6182 2.02148C23.5049 1.91211 23.3643 1.82715 23.1963 1.7666C23.0303 1.70605 22.8389 1.67578 22.6221 1.67578C22.3955 1.67578 22.1885 1.71289 22.001 1.78711C21.8154 1.85938 21.6572 1.95898 21.5264 2.08594C21.3936 2.21289 21.291 2.36133 21.2188 2.53125C21.1465 2.69922 21.1104 2.87793 21.1104 3.06738H21.9277C21.9277 2.95215 21.9424 2.84961 21.9717 2.75977C22.001 2.66992 22.0439 2.59473 22.1006 2.53418C22.1553 2.47559 22.2236 2.43164 22.3057 2.40234C22.3896 2.37109 22.4863 2.35547 22.5957 2.35547C22.6797 2.35547 22.7559 2.36914 22.8242 2.39648C22.8945 2.42383 22.9551 2.46289 23.0059 2.51367C23.0547 2.56641 23.0928 2.62988 23.1201 2.7041C23.1475 2.77832 23.1611 2.86328 23.1611 2.95898C23.1611 3.02344 23.1504 3.08984 23.1289 3.1582C23.1094 3.22656 23.0771 3.2998 23.0322 3.37793C22.9854 3.45801 22.9248 3.5459 22.8506 3.6416C22.7764 3.7373 22.6855 3.84375 22.5781 3.96094L21.1982 5.44336V6H24.1074ZM27.3008 4.41504V1.73438H26.4746L24.6816 4.56445L24.7139 5.07422H26.4863V6H27.3008V5.07422H27.7959V4.41504H27.3008ZM25.4814 4.41504L26.4072 2.9707L26.4863 2.83008V4.41504H25.4814Z" fill="black"/>
</svg>
