<svg width="816" height="402" viewBox="0 0 816 402" fill="none" xmlns="http://www.w3.org/2000/svg">
<rect width="203" height="402" rx="6" fill="#DDDDDD"/>
<path d="M22 25H105" stroke="#8A2BE2" stroke-width="10" stroke-linecap="round"/>
<path d="M20 37H181" stroke="#777777" stroke-width="5" stroke-linecap="round"/>
<path d="M20 57H181" stroke="#777777" stroke-width="5" stroke-linecap="round"/>
<path d="M20 67H181" stroke="#777777" stroke-width="5" stroke-linecap="round"/>
<path d="M20 77H181" stroke="#777777" stroke-width="5" stroke-linecap="round"/>
<path d="M20 47H181" stroke="#777777" stroke-width="5" stroke-linecap="round"/>
<path d="M22 96H105" stroke="#8A2BE2" stroke-width="6" stroke-linecap="round"/>
<path d="M21 108H182" stroke="#C4C4C4" stroke-width="5" stroke-linecap="round"/>
<path d="M21 128H182" stroke="#C4C4C4" stroke-width="5" stroke-linecap="round"/>
<path d="M21 138H182" stroke="#C4C4C4" stroke-width="5" stroke-linecap="round"/>
<path d="M21 148H182" stroke="#C4C4C4" stroke-width="5" stroke-linecap="round"/>
<path d="M21 118H182" stroke="#C4C4C4" stroke-width="5" stroke-linecap="round"/>
<path d="M21 158H182" stroke="#C4C4C4" stroke-width="5" stroke-linecap="round"/>
<path d="M21 178H182" stroke="#C4C4C4" stroke-width="5" stroke-linecap="round"/>
<path d="M21 188H182" stroke="#C4C4C4" stroke-width="5" stroke-linecap="round"/>
<path d="M21 198H182" stroke="#C4C4C4" stroke-width="5" stroke-linecap="round"/>
<path d="M21 168H182" stroke="#C4C4C4" stroke-width="5" stroke-linecap="round"/>
<path d="M23 279H106" stroke="#8A2BE2" stroke-width="6" stroke-linecap="round"/>
<path d="M22 291H183" stroke="#C4C4C4" stroke-width="5" stroke-linecap="round"/>
<path d="M22 311H183" stroke="#C4C4C4" stroke-width="5" stroke-linecap="round"/>
<path d="M22 321H183" stroke="#C4C4C4" stroke-width="5" stroke-linecap="round"/>
<path d="M22 331H183" stroke="#C4C4C4" stroke-width="5" stroke-linecap="round"/>
<path d="M22 301H183" stroke="#C4C4C4" stroke-width="5" stroke-linecap="round"/>
<path d="M22 341H183" stroke="#C4C4C4" stroke-width="5" stroke-linecap="round"/>
<path d="M22 361H183" stroke="#C4C4C4" stroke-width="5" stroke-linecap="round"/>
<path d="M22 371H183" stroke="#C4C4C4" stroke-width="5" stroke-linecap="round"/>
<path d="M22 381H183" stroke="#C4C4C4" stroke-width="5" stroke-linecap="round"/>
<path d="M22 351H183" stroke="#C4C4C4" stroke-width="5" stroke-linecap="round"/>
<rect x="19" y="213" width="50" height="50" rx="5" fill="#8A2BE2"/>
<rect x="133" y="213" width="50" height="50" rx="5" fill="#8A2BE2"/>
<rect x="76" y="213" width="50" height="50" rx="5" fill="#8A2BE2"/>
<rect x="288" y="57" width="151.493" height="300" rx="6" fill="#DDDDDD"/>
<path d="M304.418 75.6567H366.358" stroke="#8A2BE2" stroke-width="10" stroke-linecap="round"/>
<path d="M302.925 84.6121H423.075" stroke="#777777" stroke-width="5" stroke-linecap="round"/>
<path d="M302.925 99.5374H423.075" stroke="#777777" stroke-width="5" stroke-linecap="round"/>
<path d="M302.925 107H423.075" stroke="#777777" stroke-width="5" stroke-linecap="round"/>
<path d="M302.925 114.463H423.075" stroke="#777777" stroke-width="5" stroke-linecap="round"/>
<path d="M302.925 92.0747H423.075" stroke="#777777" stroke-width="5" stroke-linecap="round"/>
<path d="M304.418 128.642H366.358" stroke="#8A2BE2" stroke-width="6" stroke-linecap="round"/>
<path d="M303.672 137.597H423.821" stroke="#C4C4C4" stroke-width="5" stroke-linecap="round"/>
<path d="M303.672 152.522H423.821" stroke="#C4C4C4" stroke-width="5" stroke-linecap="round"/>
<path d="M303.672 159.985H423.821" stroke="#C4C4C4" stroke-width="5" stroke-linecap="round"/>
<path d="M303.672 167.448H423.821" stroke="#C4C4C4" stroke-width="5" stroke-linecap="round"/>
<path d="M303.672 145.06H423.821" stroke="#C4C4C4" stroke-width="5" stroke-linecap="round"/>
<path d="M303.672 174.91H423.821" stroke="#C4C4C4" stroke-width="5" stroke-linecap="round"/>
<path d="M303.672 189.836H423.821" stroke="#C4C4C4" stroke-width="5" stroke-linecap="round"/>
<path d="M303.672 197.299H423.821" stroke="#C4C4C4" stroke-width="5" stroke-linecap="round"/>
<path d="M303.672 204.761H423.821" stroke="#C4C4C4" stroke-width="5" stroke-linecap="round"/>
<path d="M303.672 182.373H423.821" stroke="#C4C4C4" stroke-width="5" stroke-linecap="round"/>
<path d="M305.165 265.209H367.105" stroke="#8A2BE2" stroke-width="6" stroke-linecap="round"/>
<path d="M304.418 274.164H424.567" stroke="#C4C4C4" stroke-width="5" stroke-linecap="round"/>
<path d="M304.418 289.09H424.567" stroke="#C4C4C4" stroke-width="5" stroke-linecap="round"/>
<path d="M304.418 296.552H424.567" stroke="#C4C4C4" stroke-width="5" stroke-linecap="round"/>
<path d="M304.418 304.015H424.567" stroke="#C4C4C4" stroke-width="5" stroke-linecap="round"/>
<path d="M304.418 281.627H424.567" stroke="#C4C4C4" stroke-width="5" stroke-linecap="round"/>
<path d="M304.418 311.478H424.567" stroke="#C4C4C4" stroke-width="5" stroke-linecap="round"/>
<path d="M304.418 326.403H424.567" stroke="#C4C4C4" stroke-width="5" stroke-linecap="round"/>
<path d="M304.418 333.866H424.567" stroke="#C4C4C4" stroke-width="5" stroke-linecap="round"/>
<path d="M304.418 341.328H424.567" stroke="#C4C4C4" stroke-width="5" stroke-linecap="round"/>
<path d="M304.418 318.94H424.567" stroke="#C4C4C4" stroke-width="5" stroke-linecap="round"/>
<rect x="302.179" y="215.955" width="37.3134" height="37.3134" rx="5" fill="#8A2BE2"/>
<rect x="387.254" y="215.955" width="37.3134" height="37.3134" rx="5" fill="#8A2BE2"/>
<rect x="344.716" y="215.955" width="37.3134" height="37.3134" rx="5" fill="#8A2BE2"/>
<path d="M442 59.5H451H460" stroke="black" stroke-width="4"/>
<path d="M442 355H460" stroke="black" stroke-width="4"/>
<path d="M451 353L459.66 338L442.34 338L451 353ZM451 61L442.34 76L459.66 76L451 61ZM452.5 339.5L452.5 74.5L449.5 74.5L449.5 339.5L452.5 339.5Z" fill="black"/>
<path d="M798 113H807H816" stroke="black" stroke-width="4"/>
<path d="M798 281.714H816" stroke="black" stroke-width="4"/>
<path d="M807 280.572L815.66 265.572L798.34 265.572L807 280.572ZM807 113.856L798.34 128.856L815.66 128.856L807 113.856ZM808.5 267.072L808.5 127.356L805.5 127.356L805.5 267.072L808.5 267.072Z" fill="black"/>
<path d="M621.098 306.547H617.987C617.93 306.144 617.814 305.787 617.639 305.474C617.464 305.157 617.239 304.887 616.964 304.665C616.69 304.442 616.373 304.272 616.013 304.153C615.658 304.035 615.272 303.976 614.855 303.976C614.102 303.976 613.446 304.163 612.888 304.537C612.329 304.906 611.896 305.446 611.588 306.156C611.28 306.862 611.126 307.719 611.126 308.727C611.126 309.764 611.28 310.635 611.588 311.341C611.901 312.046 612.336 312.579 612.895 312.939C613.454 313.299 614.1 313.479 614.834 313.479C615.246 313.479 615.627 313.424 615.977 313.315C616.332 313.206 616.647 313.048 616.922 312.839C617.196 312.626 617.424 312.368 617.604 312.065C617.788 311.762 617.916 311.417 617.987 311.028L621.098 311.043C621.018 311.71 620.816 312.354 620.494 312.974C620.177 313.59 619.749 314.142 619.209 314.629C618.674 315.112 618.035 315.496 617.291 315.78C616.553 316.059 615.717 316.199 614.784 316.199C613.487 316.199 612.327 315.905 611.304 315.318C610.286 314.731 609.481 313.881 608.889 312.768C608.302 311.656 608.009 310.309 608.009 308.727C608.009 307.141 608.307 305.792 608.903 304.679C609.5 303.566 610.31 302.719 611.332 302.136C612.355 301.549 613.506 301.256 614.784 301.256C615.627 301.256 616.408 301.374 617.128 301.611C617.852 301.848 618.494 302.193 619.053 302.648C619.611 303.098 620.066 303.649 620.416 304.303C620.771 304.956 620.999 305.704 621.098 306.547ZM626.272 301.455V316H623.246V301.455H626.272ZM628.696 316V305.091H631.721V316H628.696ZM630.216 303.685C629.766 303.685 629.38 303.536 629.058 303.237C628.741 302.934 628.582 302.572 628.582 302.151C628.582 301.734 628.741 301.376 629.058 301.078C629.38 300.775 629.766 300.624 630.216 300.624C630.665 300.624 631.049 300.775 631.366 301.078C631.688 301.376 631.849 301.734 631.849 302.151C631.849 302.572 631.688 302.934 631.366 303.237C631.049 303.536 630.665 303.685 630.216 303.685ZM639.116 316.213C637.994 316.213 637.028 315.986 636.219 315.531C635.414 315.072 634.794 314.423 634.358 313.585C633.922 312.742 633.705 311.746 633.705 310.595C633.705 309.473 633.922 308.488 634.358 307.641C634.794 306.793 635.407 306.133 636.197 305.659C636.993 305.186 637.926 304.949 638.996 304.949C639.715 304.949 640.385 305.065 641.006 305.297C641.631 305.524 642.175 305.867 642.639 306.327C643.108 306.786 643.473 307.364 643.733 308.06C643.993 308.751 644.124 309.561 644.124 310.489V311.32H634.912V309.445H641.276C641.276 309.009 641.181 308.623 640.991 308.287C640.802 307.951 640.539 307.688 640.203 307.499C639.872 307.304 639.486 307.207 639.045 307.207C638.586 307.207 638.179 307.314 637.824 307.527C637.473 307.735 637.199 308.017 637 308.372C636.801 308.723 636.699 309.113 636.695 309.544V311.327C636.695 311.866 636.794 312.333 636.993 312.726C637.196 313.119 637.483 313.422 637.852 313.635C638.222 313.848 638.66 313.955 639.166 313.955C639.502 313.955 639.81 313.907 640.089 313.812C640.369 313.718 640.608 313.576 640.807 313.386C641.006 313.197 641.157 312.965 641.261 312.69L644.06 312.875C643.918 313.547 643.626 314.134 643.186 314.636C642.75 315.134 642.187 315.522 641.496 315.801C640.809 316.076 640.016 316.213 639.116 316.213ZM649.124 309.693V316H646.098V305.091H648.982V307.016H649.109C649.351 306.381 649.756 305.879 650.324 305.51C650.892 305.136 651.581 304.949 652.391 304.949C653.148 304.949 653.809 305.115 654.372 305.446C654.936 305.777 655.374 306.251 655.686 306.866C655.999 307.477 656.155 308.206 656.155 309.054V316H653.129V309.594C653.134 308.926 652.964 308.405 652.618 308.031C652.272 307.652 651.796 307.463 651.19 307.463C650.783 307.463 650.423 307.551 650.111 307.726C649.803 307.901 649.562 308.157 649.386 308.493C649.216 308.824 649.128 309.224 649.124 309.693ZM664.342 305.091V307.364H657.772V305.091H664.342ZM659.264 302.477H662.289V312.648C662.289 312.927 662.332 313.145 662.417 313.301C662.502 313.453 662.621 313.559 662.772 313.621C662.929 313.682 663.109 313.713 663.312 313.713C663.454 313.713 663.596 313.701 663.738 313.678C663.88 313.649 663.989 313.628 664.065 313.614L664.541 315.865C664.389 315.912 664.176 315.967 663.902 316.028C663.627 316.095 663.293 316.135 662.9 316.149C662.171 316.178 661.532 316.08 660.983 315.858C660.438 315.635 660.014 315.29 659.711 314.821C659.408 314.352 659.259 313.76 659.264 313.045V302.477ZM670.999 316V301.455H674.074V307.456H680.317V301.455H683.385V316H680.317V309.991H674.074V316H670.999ZM690.835 316.213C689.713 316.213 688.747 315.986 687.938 315.531C687.133 315.072 686.512 314.423 686.077 313.585C685.641 312.742 685.423 311.746 685.423 310.595C685.423 309.473 685.641 308.488 686.077 307.641C686.512 306.793 687.125 306.133 687.916 305.659C688.712 305.186 689.644 304.949 690.714 304.949C691.434 304.949 692.104 305.065 692.724 305.297C693.349 305.524 693.894 305.867 694.358 306.327C694.827 306.786 695.191 307.364 695.452 308.06C695.712 308.751 695.842 309.561 695.842 310.489V311.32H686.631V309.445H692.994C692.994 309.009 692.9 308.623 692.71 308.287C692.521 307.951 692.258 307.688 691.922 307.499C691.59 307.304 691.205 307.207 690.764 307.207C690.305 307.207 689.898 307.314 689.543 307.527C689.192 307.735 688.918 308.017 688.719 308.372C688.52 308.723 688.418 309.113 688.413 309.544V311.327C688.413 311.866 688.513 312.333 688.712 312.726C688.915 313.119 689.202 313.422 689.571 313.635C689.94 313.848 690.378 313.955 690.885 313.955C691.221 313.955 691.529 313.907 691.808 313.812C692.088 313.718 692.327 313.576 692.526 313.386C692.724 313.197 692.876 312.965 692.98 312.69L695.778 312.875C695.636 313.547 695.345 314.134 694.905 314.636C694.469 315.134 693.906 315.522 693.214 315.801C692.528 316.076 691.735 316.213 690.835 316.213ZM697.817 316V305.091H700.842V316H697.817ZM699.337 303.685C698.887 303.685 698.501 303.536 698.179 303.237C697.862 302.934 697.703 302.572 697.703 302.151C697.703 301.734 697.862 301.376 698.179 301.078C698.501 300.775 698.887 300.624 699.337 300.624C699.786 300.624 700.17 300.775 700.487 301.078C700.809 301.376 700.97 301.734 700.97 302.151C700.97 302.572 700.809 302.934 700.487 303.237C700.17 303.536 699.786 303.685 699.337 303.685ZM708.181 320.318C707.201 320.318 706.36 320.183 705.659 319.913C704.963 319.648 704.409 319.286 703.998 318.827C703.586 318.367 703.318 317.851 703.195 317.278L705.993 316.902C706.078 317.12 706.213 317.323 706.398 317.513C706.583 317.702 706.827 317.854 707.13 317.967C707.437 318.086 707.811 318.145 708.252 318.145C708.91 318.145 709.452 317.984 709.878 317.662C710.309 317.345 710.525 316.812 710.525 316.064V314.068H710.397C710.264 314.371 710.065 314.658 709.8 314.928C709.535 315.197 709.194 315.418 708.777 315.588C708.361 315.759 707.864 315.844 707.286 315.844C706.467 315.844 705.721 315.654 705.049 315.276C704.381 314.892 703.848 314.307 703.451 313.521C703.058 312.731 702.861 311.732 702.861 310.524C702.861 309.288 703.062 308.256 703.465 307.428C703.867 306.599 704.402 305.979 705.07 305.567C705.742 305.155 706.479 304.949 707.279 304.949C707.89 304.949 708.401 305.053 708.813 305.261C709.225 305.465 709.556 305.721 709.807 306.028C710.063 306.331 710.259 306.63 710.397 306.923H710.51V305.091H713.515V316.107C713.515 317.035 713.287 317.811 712.833 318.436C712.378 319.061 711.748 319.53 710.944 319.842C710.143 320.16 709.222 320.318 708.181 320.318ZM708.245 313.571C708.732 313.571 709.144 313.45 709.48 313.209C709.821 312.963 710.082 312.612 710.262 312.158C710.446 311.698 710.539 311.149 710.539 310.51C710.539 309.871 710.449 309.317 710.269 308.848C710.089 308.375 709.828 308.008 709.488 307.747C709.147 307.487 708.732 307.357 708.245 307.357C707.748 307.357 707.328 307.491 706.988 307.761C706.647 308.027 706.389 308.396 706.213 308.869C706.038 309.343 705.951 309.89 705.951 310.51C705.951 311.14 706.038 311.684 706.213 312.143C706.393 312.598 706.651 312.951 706.988 313.202C707.328 313.448 707.748 313.571 708.245 313.571ZM718.948 309.693V316H715.922V301.455H718.863V307.016H718.99C719.237 306.372 719.634 305.867 720.184 305.503C720.733 305.134 721.422 304.949 722.25 304.949C723.008 304.949 723.668 305.115 724.232 305.446C724.8 305.773 725.24 306.244 725.553 306.859C725.87 307.47 726.026 308.202 726.022 309.054V316H722.996V309.594C723.001 308.921 722.83 308.398 722.485 308.024C722.144 307.65 721.666 307.463 721.05 307.463C720.638 307.463 720.274 307.551 719.956 307.726C719.644 307.901 719.398 308.157 719.218 308.493C719.042 308.824 718.953 309.224 718.948 309.693ZM734.205 305.091V307.364H727.636V305.091H734.205ZM729.127 302.477H732.153V312.648C732.153 312.927 732.195 313.145 732.281 313.301C732.366 313.453 732.484 313.559 732.636 313.621C732.792 313.682 732.972 313.713 733.175 313.713C733.317 313.713 733.46 313.701 733.602 313.678C733.744 313.649 733.853 313.628 733.928 313.614L734.404 315.865C734.253 315.912 734.04 315.967 733.765 316.028C733.49 316.095 733.156 316.135 732.763 316.149C732.034 316.178 731.395 316.08 730.846 315.858C730.301 315.635 729.878 315.29 729.575 314.821C729.272 314.352 729.122 313.76 729.127 313.045V302.477Z" fill="black"/>
<path d="M309.155 374.638C309.098 374.065 308.854 373.62 308.423 373.303C307.992 372.985 307.408 372.827 306.669 372.827C306.167 372.827 305.743 372.898 305.398 373.04C305.052 373.177 304.787 373.369 304.602 373.615C304.422 373.861 304.332 374.141 304.332 374.453C304.323 374.714 304.377 374.941 304.496 375.135C304.619 375.329 304.787 375.497 305 375.639C305.213 375.777 305.459 375.897 305.739 376.001C306.018 376.101 306.316 376.186 306.634 376.257L307.94 376.57C308.575 376.712 309.157 376.901 309.688 377.138C310.218 377.375 310.677 377.666 311.065 378.011C311.454 378.357 311.754 378.764 311.967 379.233C312.185 379.702 312.296 380.239 312.301 380.845C312.296 381.735 312.069 382.507 311.619 383.161C311.174 383.809 310.53 384.313 309.688 384.673C308.849 385.028 307.839 385.206 306.655 385.206C305.481 385.206 304.458 385.026 303.587 384.666C302.72 384.306 302.043 383.774 301.555 383.068C301.072 382.358 300.819 381.48 300.795 380.433H303.771C303.804 380.921 303.944 381.328 304.19 381.655C304.441 381.977 304.775 382.221 305.192 382.386C305.613 382.547 306.089 382.628 306.619 382.628C307.14 382.628 307.592 382.552 307.976 382.401C308.364 382.249 308.665 382.038 308.878 381.768C309.091 381.499 309.197 381.188 309.197 380.838C309.197 380.511 309.1 380.237 308.906 380.014C308.717 379.792 308.438 379.602 308.068 379.446C307.704 379.29 307.256 379.148 306.726 379.02L305.142 378.622C303.916 378.324 302.947 377.857 302.237 377.223C301.527 376.589 301.174 375.734 301.179 374.659C301.174 373.778 301.409 373.009 301.882 372.351C302.36 371.693 303.016 371.179 303.849 370.81C304.683 370.44 305.63 370.256 306.69 370.256C307.77 370.256 308.712 370.44 309.517 370.81C310.327 371.179 310.956 371.693 311.406 372.351C311.856 373.009 312.088 373.771 312.102 374.638H309.155ZM319.242 385.213C318.124 385.213 317.163 384.976 316.358 384.503C315.558 384.025 314.943 383.362 314.512 382.514C314.086 381.667 313.873 380.691 313.873 379.588C313.873 378.471 314.088 377.491 314.519 376.648C314.954 375.8 315.572 375.14 316.373 374.666C317.173 374.188 318.124 373.949 319.228 373.949C320.179 373.949 321.013 374.122 321.728 374.467C322.443 374.813 323.008 375.298 323.425 375.923C323.842 376.548 324.071 377.282 324.114 378.125H321.259C321.178 377.58 320.965 377.143 320.62 376.811C320.279 376.475 319.831 376.307 319.277 376.307C318.809 376.307 318.399 376.435 318.049 376.69C317.703 376.941 317.433 377.308 317.239 377.791C317.045 378.274 316.948 378.859 316.948 379.545C316.948 380.241 317.042 380.833 317.232 381.321C317.426 381.809 317.698 382.18 318.049 382.436C318.399 382.692 318.809 382.82 319.277 382.82C319.623 382.82 319.933 382.749 320.208 382.607C320.487 382.464 320.717 382.259 320.897 381.989C321.081 381.714 321.202 381.385 321.259 381.001H324.114C324.067 381.835 323.839 382.569 323.432 383.203C323.03 383.833 322.473 384.325 321.763 384.68C321.053 385.036 320.212 385.213 319.242 385.213ZM326.051 385V374.091H328.984V375.994H329.098C329.297 375.317 329.631 374.806 330.099 374.46C330.568 374.11 331.108 373.935 331.719 373.935C331.87 373.935 332.034 373.944 332.209 373.963C332.384 373.982 332.538 374.008 332.67 374.041V376.726C332.528 376.683 332.332 376.645 332.081 376.612C331.83 376.579 331.6 376.562 331.392 376.562C330.947 376.562 330.549 376.66 330.199 376.854C329.853 377.043 329.579 377.308 329.375 377.649C329.176 377.99 329.077 378.383 329.077 378.828V385H326.051ZM338.656 385.213C337.553 385.213 336.599 384.979 335.794 384.51C334.993 384.036 334.376 383.378 333.94 382.536C333.504 381.688 333.287 380.705 333.287 379.588C333.287 378.461 333.504 377.476 333.94 376.634C334.376 375.786 334.993 375.128 335.794 374.659C336.599 374.186 337.553 373.949 338.656 373.949C339.759 373.949 340.711 374.186 341.511 374.659C342.316 375.128 342.936 375.786 343.372 376.634C343.807 377.476 344.025 378.461 344.025 379.588C344.025 380.705 343.807 381.688 343.372 382.536C342.936 383.378 342.316 384.036 341.511 384.51C340.711 384.979 339.759 385.213 338.656 385.213ZM338.67 382.869C339.172 382.869 339.591 382.727 339.927 382.443C340.263 382.154 340.517 381.761 340.687 381.264C340.862 380.767 340.95 380.201 340.95 379.567C340.95 378.932 340.862 378.366 340.687 377.869C340.517 377.372 340.263 376.979 339.927 376.69C339.591 376.402 339.172 376.257 338.67 376.257C338.163 376.257 337.737 376.402 337.392 376.69C337.051 376.979 336.793 377.372 336.618 377.869C336.447 378.366 336.362 378.932 336.362 379.567C336.362 380.201 336.447 380.767 336.618 381.264C336.793 381.761 337.051 382.154 337.392 382.443C337.737 382.727 338.163 382.869 338.67 382.869ZM349.018 370.455V385H345.993V370.455H349.018ZM354.467 370.455V385H351.442V370.455H354.467ZM361.577 385V370.455H364.652V376.456H370.895V370.455H373.963V385H370.895V378.991H364.652V385H361.577ZM381.413 385.213C380.291 385.213 379.325 384.986 378.516 384.531C377.711 384.072 377.09 383.423 376.655 382.585C376.219 381.742 376.001 380.746 376.001 379.595C376.001 378.473 376.219 377.488 376.655 376.641C377.09 375.793 377.704 375.133 378.494 374.659C379.29 374.186 380.223 373.949 381.293 373.949C382.012 373.949 382.682 374.065 383.303 374.297C383.928 374.524 384.472 374.867 384.936 375.327C385.405 375.786 385.769 376.364 386.03 377.06C386.29 377.751 386.42 378.561 386.42 379.489V380.32H377.209V378.445H383.572C383.572 378.009 383.478 377.623 383.288 377.287C383.099 376.951 382.836 376.688 382.5 376.499C382.169 376.304 381.783 376.207 381.342 376.207C380.883 376.207 380.476 376.314 380.121 376.527C379.77 376.735 379.496 377.017 379.297 377.372C379.098 377.723 378.996 378.113 378.991 378.544V380.327C378.991 380.866 379.091 381.333 379.29 381.726C379.493 382.119 379.78 382.422 380.149 382.635C380.518 382.848 380.956 382.955 381.463 382.955C381.799 382.955 382.107 382.907 382.386 382.812C382.666 382.718 382.905 382.576 383.104 382.386C383.303 382.197 383.454 381.965 383.558 381.69L386.357 381.875C386.214 382.547 385.923 383.134 385.483 383.636C385.047 384.134 384.484 384.522 383.793 384.801C383.106 385.076 382.313 385.213 381.413 385.213ZM388.395 385V374.091H391.42V385H388.395ZM389.915 372.685C389.465 372.685 389.079 372.536 388.757 372.237C388.44 371.934 388.281 371.572 388.281 371.151C388.281 370.734 388.44 370.376 388.757 370.078C389.079 369.775 389.465 369.624 389.915 369.624C390.365 369.624 390.748 369.775 391.065 370.078C391.387 370.376 391.548 370.734 391.548 371.151C391.548 371.572 391.387 371.934 391.065 372.237C390.748 372.536 390.365 372.685 389.915 372.685ZM398.759 389.318C397.779 389.318 396.938 389.183 396.238 388.913C395.542 388.648 394.988 388.286 394.576 387.827C394.164 387.367 393.896 386.851 393.773 386.278L396.571 385.902C396.657 386.12 396.792 386.323 396.976 386.513C397.161 386.702 397.405 386.854 397.708 386.967C398.016 387.086 398.39 387.145 398.83 387.145C399.488 387.145 400.03 386.984 400.456 386.662C400.887 386.345 401.103 385.812 401.103 385.064V383.068H400.975C400.842 383.371 400.643 383.658 400.378 383.928C400.113 384.197 399.772 384.418 399.355 384.588C398.939 384.759 398.442 384.844 397.864 384.844C397.045 384.844 396.299 384.654 395.627 384.276C394.959 383.892 394.426 383.307 394.029 382.521C393.636 381.731 393.439 380.732 393.439 379.524C393.439 378.288 393.641 377.256 394.043 376.428C394.445 375.599 394.98 374.979 395.648 374.567C396.32 374.155 397.057 373.949 397.857 373.949C398.468 373.949 398.979 374.053 399.391 374.261C399.803 374.465 400.134 374.721 400.385 375.028C400.641 375.331 400.837 375.63 400.975 375.923H401.088V374.091H404.093V385.107C404.093 386.035 403.865 386.811 403.411 387.436C402.956 388.061 402.327 388.53 401.522 388.842C400.721 389.16 399.801 389.318 398.759 389.318ZM398.823 382.571C399.31 382.571 399.722 382.45 400.059 382.209C400.4 381.963 400.66 381.612 400.84 381.158C401.025 380.698 401.117 380.149 401.117 379.51C401.117 378.871 401.027 378.317 400.847 377.848C400.667 377.375 400.407 377.008 400.066 376.747C399.725 376.487 399.31 376.357 398.823 376.357C398.326 376.357 397.907 376.491 397.566 376.761C397.225 377.027 396.967 377.396 396.792 377.869C396.616 378.343 396.529 378.89 396.529 379.51C396.529 380.14 396.616 380.684 396.792 381.143C396.971 381.598 397.23 381.951 397.566 382.202C397.907 382.448 398.326 382.571 398.823 382.571ZM409.526 378.693V385H406.5V370.455H409.441V376.016H409.569C409.815 375.372 410.212 374.867 410.762 374.503C411.311 374.134 412 373.949 412.828 373.949C413.586 373.949 414.247 374.115 414.81 374.446C415.378 374.773 415.819 375.244 416.131 375.859C416.448 376.47 416.605 377.202 416.6 378.054V385H413.574V378.594C413.579 377.921 413.408 377.398 413.063 377.024C412.722 376.65 412.244 376.463 411.628 376.463C411.216 376.463 410.852 376.551 410.534 376.726C410.222 376.901 409.976 377.157 409.796 377.493C409.621 377.824 409.531 378.224 409.526 378.693ZM424.783 374.091V376.364H418.214V374.091H424.783ZM419.705 371.477H422.731V381.648C422.731 381.927 422.773 382.145 422.859 382.301C422.944 382.453 423.062 382.559 423.214 382.621C423.37 382.682 423.55 382.713 423.754 382.713C423.896 382.713 424.038 382.701 424.18 382.678C424.322 382.649 424.431 382.628 424.506 382.614L424.982 384.865C424.831 384.912 424.618 384.967 424.343 385.028C424.068 385.095 423.735 385.135 423.342 385.149C422.612 385.178 421.973 385.08 421.424 384.858C420.879 384.635 420.456 384.29 420.153 383.821C419.85 383.352 419.701 382.76 419.705 382.045V371.477Z" fill="black"/>
<rect x="528" y="114" width="259" height="166" rx="9" fill="#4E1285" stroke="#8A2BE2" stroke-width="6"/>
<mask id="mask0_101_712" style="mask-type:alpha" maskUnits="userSpaceOnUse" x="531" y="117" width="253" height="160">
<rect x="531" y="117" width="253" height="160" rx="6" fill="#4E1285"/>
</mask>
<g mask="url(#mask0_101_712)">
<rect x="582" y="67" width="151.493" height="300" rx="6" fill="#DDDDDD"/>
<path d="M596.925 117H717.075" stroke="#777777" stroke-width="5" stroke-linecap="round"/>
<path d="M596.925 124.463H717.075" stroke="#777777" stroke-width="5" stroke-linecap="round"/>
<path d="M598.418 138.642H660.358" stroke="#8A2BE2" stroke-width="6" stroke-linecap="round"/>
<path d="M597.672 147.597H717.821" stroke="#C4C4C4" stroke-width="5" stroke-linecap="round"/>
<path d="M597.672 162.522H717.821" stroke="#C4C4C4" stroke-width="5" stroke-linecap="round"/>
<path d="M597.672 169.985H717.821" stroke="#C4C4C4" stroke-width="5" stroke-linecap="round"/>
<path d="M597.672 177.448H717.821" stroke="#C4C4C4" stroke-width="5" stroke-linecap="round"/>
<path d="M597.672 155.06H717.821" stroke="#C4C4C4" stroke-width="5" stroke-linecap="round"/>
<path d="M597.672 184.91H717.821" stroke="#C4C4C4" stroke-width="5" stroke-linecap="round"/>
<path d="M597.672 199.836H717.821" stroke="#C4C4C4" stroke-width="5" stroke-linecap="round"/>
<path d="M597.672 207.299H717.821" stroke="#C4C4C4" stroke-width="5" stroke-linecap="round"/>
<path d="M597.672 214.761H717.821" stroke="#C4C4C4" stroke-width="5" stroke-linecap="round"/>
<path d="M597.672 192.373H717.821" stroke="#C4C4C4" stroke-width="5" stroke-linecap="round"/>
<path d="M599.165 275.209H661.105" stroke="#8A2BE2" stroke-width="6" stroke-linecap="round"/>
<rect x="596.179" y="225.955" width="37.3134" height="37.3134" rx="5" fill="#8A2BE2"/>
<rect x="681.254" y="225.955" width="37.3134" height="37.3134" rx="5" fill="#8A2BE2"/>
<rect x="638.716" y="225.955" width="37.3134" height="37.3134" rx="5" fill="#8A2BE2"/>
</g>
<circle cx="531" cy="102" r="5" fill="#8A2BE2"/>
<circle cx="531" cy="102" r="5" fill="#8A2BE2"/>
<circle cx="544" cy="102" r="5" fill="black"/>
<circle cx="557" cy="102" r="5" fill="#4E1285"/>
</svg>
