<svg width="60" height="46" viewBox="0 0 60 46" fill="none" xmlns="http://www.w3.org/2000/svg">
<rect x="2" y="12" width="56" height="32" rx="16" fill="#8A2BE2"/>
<circle cx="18" cy="28" r="12" fill="white"/>
<rect x="2" y="12" width="56" height="32" stroke="#4CAEE5" stroke-width="0.5"/>
<rect x="0.5" y="10.5" width="3" height="3" fill="#FDFDFD" stroke="#4CAEE5" stroke-width="0.5"/>
<rect x="56.5" y="10.5" width="3" height="3" fill="#FDFDFD" stroke="#4CAEE5" stroke-width="0.5"/>
<rect x="0.5" y="42.5" width="3" height="3" fill="#FDFDFD" stroke="#4CAEE5" stroke-width="0.5"/>
<path d="M2 28H58" stroke="#4CAEE5" stroke-width="0.5" stroke-dasharray="1 1"/>
<path d="M30 12L30 44" stroke="#4CAEE5" stroke-width="0.5" stroke-dasharray="1 1"/>
<rect x="56.5" y="42.5" width="3" height="3" fill="#FDFDFD" stroke="#4CAEE5" stroke-width="0.5"/>
<path d="M17.3418 3.89941L17.9922 4.06055C18.0234 4.0293 18.0566 4 18.0918 3.97266C18.127 3.94336 18.167 3.91797 18.2119 3.89648C18.2568 3.875 18.3086 3.85742 18.3672 3.84375C18.4258 3.83008 18.4951 3.82324 18.5752 3.82324C18.6943 3.82324 18.7979 3.8418 18.8857 3.87891C18.9736 3.91602 19.0469 3.96875 19.1055 4.03711C19.1641 4.10547 19.207 4.1875 19.2344 4.2832C19.2637 4.37695 19.2783 4.48047 19.2783 4.59375C19.2783 4.70898 19.2666 4.81641 19.2432 4.91602C19.2217 5.01562 19.1875 5.10156 19.1406 5.17383C19.0918 5.24609 19.0283 5.30273 18.9502 5.34375C18.874 5.38477 18.7812 5.40527 18.6719 5.40527C18.4941 5.40527 18.3477 5.35449 18.2324 5.25293C18.1191 5.15137 18.0527 5.00781 18.0332 4.82227H17.2305C17.2363 5.01953 17.2803 5.19531 17.3623 5.34961C17.4463 5.50195 17.5547 5.63086 17.6875 5.73633C17.8203 5.8418 17.9717 5.92188 18.1416 5.97656C18.3135 6.03125 18.4912 6.05859 18.6748 6.05859C18.917 6.05859 19.127 6.02051 19.3047 5.94434C19.4824 5.86816 19.6299 5.76465 19.7471 5.63379C19.8643 5.50293 19.9512 5.35156 20.0078 5.17969C20.0645 5.00781 20.0928 4.82617 20.0928 4.63477C20.0928 4.41016 20.0635 4.20898 20.0049 4.03125C19.9463 3.85352 19.8623 3.70312 19.7529 3.58008C19.6416 3.45703 19.5049 3.36328 19.3428 3.29883C19.1826 3.23242 19 3.19922 18.7949 3.19922C18.6504 3.19922 18.5225 3.21777 18.4111 3.25488C18.2998 3.29199 18.2139 3.32812 18.1533 3.36328L18.2559 2.42578H19.9521V1.73438H17.585L17.3418 3.89941ZM23.0664 1.69922H22.958C22.6045 1.69922 22.293 1.75879 22.0234 1.87793C21.7539 1.99512 21.5283 2.1582 21.3467 2.36719C21.165 2.57812 21.0283 2.82812 20.9365 3.11719C20.8447 3.4043 20.7988 3.7168 20.7988 4.05469V4.36816C20.7988 4.6123 20.833 4.83789 20.9014 5.04492C20.9717 5.25 21.0713 5.42773 21.2002 5.57812C21.3271 5.72852 21.4824 5.84668 21.666 5.93262C21.8496 6.0166 22.0557 6.05859 22.2842 6.05859C22.5029 6.05859 22.7002 6.02148 22.876 5.94727C23.0518 5.87109 23.2012 5.76758 23.3242 5.63672C23.4473 5.50586 23.542 5.35156 23.6084 5.17383C23.6748 4.99609 23.708 4.80371 23.708 4.59668C23.708 4.40332 23.6826 4.21973 23.6318 4.0459C23.583 3.87012 23.5078 3.71582 23.4062 3.58301C23.3047 3.45215 23.1777 3.34863 23.0254 3.27246C22.875 3.19434 22.6982 3.15527 22.4951 3.15527C22.3955 3.15527 22.3027 3.16699 22.2168 3.19043C22.1309 3.21387 22.0518 3.24414 21.9795 3.28125C21.9053 3.32031 21.8389 3.36426 21.7803 3.41309C21.7217 3.45996 21.6699 3.50781 21.625 3.55664C21.6426 3.37891 21.6846 3.21777 21.751 3.07324C21.8193 2.92871 21.9121 2.80469 22.0293 2.70117C22.1445 2.59766 22.2842 2.51758 22.4482 2.46094C22.6143 2.4043 22.8047 2.37598 23.0195 2.37598H23.0664V1.69922ZM22.2578 3.80859C22.3594 3.80859 22.4492 3.8291 22.5273 3.87012C22.6074 3.90918 22.6748 3.96387 22.7295 4.03418C22.7842 4.10645 22.8262 4.19141 22.8555 4.28906C22.8848 4.38672 22.8994 4.49316 22.8994 4.6084C22.8994 4.72363 22.8848 4.83008 22.8555 4.92773C22.8262 5.02344 22.7842 5.10645 22.7295 5.17676C22.6748 5.24707 22.6084 5.30273 22.5303 5.34375C22.4521 5.38281 22.3652 5.40234 22.2695 5.40234C22.1758 5.40234 22.0889 5.38281 22.0088 5.34375C21.9287 5.30469 21.8594 5.24609 21.8008 5.16797C21.7422 5.0918 21.6963 4.99512 21.6631 4.87793C21.6318 4.76074 21.6162 4.62402 21.6162 4.46777V4.22754C21.6436 4.16895 21.6768 4.11523 21.7158 4.06641C21.7568 4.01758 21.8018 3.97461 21.8506 3.9375C21.9072 3.89648 21.9697 3.86523 22.0381 3.84375C22.1064 3.82031 22.1797 3.80859 22.2578 3.80859ZM29.5615 3.82031L28.876 2.83008H28L29.0605 4.38574L27.959 6H28.8408L29.5645 4.96289L30.2939 6H31.1729L30.0713 4.38574L31.1348 2.83008H30.2588L29.5615 3.82031ZM36.1387 3.50977V4.14258H36.5811C36.6924 4.14258 36.792 4.15527 36.8799 4.18066C36.9697 4.20605 37.0469 4.24512 37.1113 4.29785C37.1738 4.35059 37.2217 4.41797 37.2549 4.5C37.2881 4.58203 37.3047 4.68066 37.3047 4.7959C37.3047 4.8877 37.29 4.9707 37.2607 5.04492C37.2334 5.11914 37.1924 5.18164 37.1377 5.23242C37.0811 5.28906 37.0107 5.33203 36.9268 5.36133C36.8428 5.39062 36.748 5.40527 36.6426 5.40527C36.5488 5.40527 36.4629 5.3916 36.3848 5.36426C36.3066 5.33496 36.2393 5.29492 36.1826 5.24414C36.124 5.19531 36.0791 5.13672 36.0479 5.06836C36.0166 4.99805 36.001 4.92188 36.001 4.83984H35.1865C35.1865 5.04688 35.2266 5.22656 35.3066 5.37891C35.3887 5.53125 35.4971 5.65723 35.6318 5.75684C35.7666 5.8584 35.9199 5.93457 36.0918 5.98535C36.2656 6.03418 36.4434 6.05859 36.625 6.05859C36.8359 6.05859 37.0322 6.03125 37.2139 5.97656C37.3975 5.91992 37.5557 5.83789 37.6885 5.73047C37.8213 5.625 37.9258 5.49414 38.002 5.33789C38.0781 5.18164 38.1162 5.00391 38.1162 4.80469C38.1162 4.69141 38.1025 4.58398 38.0752 4.48242C38.0479 4.38086 38.0059 4.28711 37.9492 4.20117C37.8926 4.11719 37.8203 4.04199 37.7324 3.97559C37.6465 3.90918 37.5439 3.85449 37.4248 3.81152C37.5264 3.7627 37.6162 3.70508 37.6943 3.63867C37.7725 3.57031 37.8379 3.49609 37.8906 3.41602C37.9434 3.33594 37.9834 3.25195 38.0107 3.16406C38.0381 3.07422 38.0518 2.9834 38.0518 2.8916C38.0518 2.69238 38.0166 2.51758 37.9463 2.36719C37.8779 2.21484 37.7812 2.08691 37.6562 1.9834C37.5312 1.88184 37.3809 1.80566 37.2051 1.75488C37.0293 1.70215 36.8359 1.67578 36.625 1.67578C36.4297 1.67578 36.2471 1.7041 36.0771 1.76074C35.9092 1.81738 35.7627 1.89648 35.6377 1.99805C35.5127 2.10156 35.4141 2.22461 35.3418 2.36719C35.2715 2.50977 35.2363 2.66797 35.2363 2.8418H36.0508C36.0508 2.76367 36.0664 2.69336 36.0977 2.63086C36.1289 2.56836 36.1719 2.51465 36.2266 2.46973C36.2793 2.42676 36.3408 2.39355 36.4111 2.37012C36.4834 2.34668 36.5605 2.33496 36.6426 2.33496C36.7422 2.33496 36.8291 2.34863 36.9033 2.37598C36.9795 2.40332 37.042 2.44141 37.0908 2.49023C37.1396 2.54102 37.1758 2.60156 37.1992 2.67188C37.2246 2.74023 37.2373 2.81641 37.2373 2.90039C37.2373 2.98633 37.2246 3.06641 37.1992 3.14062C37.1758 3.21289 37.1396 3.27441 37.0908 3.3252C37.0381 3.38379 36.9688 3.42969 36.8828 3.46289C36.7988 3.49414 36.6982 3.50977 36.5811 3.50977H36.1387ZM41.7109 6V5.34668H39.8389L40.6416 4.49707C40.7803 4.35449 40.9062 4.21875 41.0195 4.08984C41.1328 3.95898 41.2305 3.83105 41.3125 3.70605C41.3926 3.58105 41.4541 3.45508 41.4971 3.32812C41.542 3.19922 41.5645 3.06445 41.5645 2.92383C41.5645 2.73828 41.5352 2.56934 41.4766 2.41699C41.418 2.2627 41.333 2.13086 41.2217 2.02148C41.1084 1.91211 40.9678 1.82715 40.7998 1.7666C40.6338 1.70605 40.4424 1.67578 40.2256 1.67578C39.999 1.67578 39.792 1.71289 39.6045 1.78711C39.4189 1.85938 39.2607 1.95898 39.1299 2.08594C38.9971 2.21289 38.8945 2.36133 38.8223 2.53125C38.75 2.69922 38.7139 2.87793 38.7139 3.06738H39.5312C39.5312 2.95215 39.5459 2.84961 39.5752 2.75977C39.6045 2.66992 39.6475 2.59473 39.7041 2.53418C39.7588 2.47559 39.8271 2.43164 39.9092 2.40234C39.9932 2.37109 40.0898 2.35547 40.1992 2.35547C40.2832 2.35547 40.3594 2.36914 40.4277 2.39648C40.498 2.42383 40.5586 2.46289 40.6094 2.51367C40.6582 2.56641 40.6963 2.62988 40.7236 2.7041C40.751 2.77832 40.7646 2.86328 40.7646 2.95898C40.7646 3.02344 40.7539 3.08984 40.7324 3.1582C40.7129 3.22656 40.6807 3.2998 40.6357 3.37793C40.5889 3.45801 40.5283 3.5459 40.4541 3.6416C40.3799 3.7373 40.2891 3.84375 40.1816 3.96094L38.8018 5.44336V6H41.7109Z" fill="black"/>
</svg>
