<svg width="390" height="390" viewBox="0 0 390 390" fill="none" xmlns="http://www.w3.org/2000/svg">
<g clip-path="url(#clip0_5_450)">
<path d="M7.50659 5.07312C6.06387 4.97693 4.97048 6.07033 5.06666 7.51305L6.29778 25.9799C6.39396 27.4226 7.64356 28.6722 9.08628 28.7684C10.529 28.8646 11.6224 27.7712 11.5262 26.3285L10.7091 14.1573L29.5945 33.0427C30.684 34.1322 32.3345 34.2423 33.2879 33.2889C34.2412 32.3356 34.1312 30.6851 33.0416 29.5956L14.1623 10.7163L26.3212 11.5211C27.764 11.6173 28.8573 10.5239 28.7612 9.08119C28.665 7.63847 27.4154 6.38887 25.9727 6.29269L7.50582 5.06157L7.50659 5.07312Z" fill="#8A2BE2"/>
</g>
<g clip-path="url(#clip1_5_450)">
<path d="M7.50659 44.0731C6.06387 43.9769 4.97048 45.0703 5.06666 46.513L6.29778 64.9799C6.39396 66.4226 7.64356 67.6722 9.08628 67.7684C10.529 67.8646 11.6224 66.7712 11.5262 65.3285L10.7091 53.1573L29.5945 72.0427C30.684 73.1322 32.3345 73.2423 33.2879 72.2889C34.2412 71.3356 34.1312 69.6851 33.0416 68.5956L14.1623 49.7163L26.3212 50.5211C27.764 50.6173 28.8573 49.5239 28.7612 48.0812C28.665 46.6385 27.4154 45.3889 25.9727 45.2927L7.50582 44.0616L7.50659 44.0731Z" fill="#8A2BE2"/>
</g>
<g clip-path="url(#clip2_5_450)">
<path d="M31.4934 111.927C32.9361 112.023 34.0295 110.93 33.9333 109.487L32.7022 91.0201C32.606 89.5774 31.3564 88.3278 29.9137 88.2316C28.471 88.1354 27.3776 89.2288 27.4738 90.6715L28.2909 102.843L9.40551 83.9573C8.31597 82.8678 6.66549 82.7577 5.71214 83.7111C4.75879 84.6644 4.86882 86.3149 5.95837 87.4044L24.8377 106.284L12.6788 105.479C11.236 105.383 10.1427 106.476 10.2388 107.919C10.335 109.362 11.5846 110.611 13.0273 110.707L31.4942 111.938L31.4934 111.927Z" fill="#8A2BE2"/>
</g>
<g clip-path="url(#clip3_5_450)">
<path d="M31.4934 150.927C32.9361 151.023 34.0295 149.93 33.9333 148.487L32.7022 130.02C32.606 128.577 31.3564 127.328 29.9137 127.232C28.471 127.135 27.3776 128.229 27.4738 129.672L28.2909 141.843L9.40551 122.957C8.31597 121.868 6.66549 121.758 5.71214 122.711C4.75879 123.664 4.86882 125.315 5.95837 126.404L24.8377 145.284L12.6788 144.479C11.236 144.383 10.1427 145.476 10.2388 146.919C10.335 148.362 11.5846 149.611 13.0273 149.707L31.4942 150.938L31.4934 150.927Z" fill="#8A2BE2"/>
</g>
<g clip-path="url(#clip4_5_450)">
<path d="M5.07299 187.493C4.97681 188.936 6.0702 190.03 7.51293 189.933L25.9798 188.702C27.4225 188.606 28.6721 187.357 28.7683 185.914C28.8645 184.471 27.7711 183.378 26.3283 183.474L14.1571 184.291L33.0426 165.406C34.1321 164.316 34.2422 162.666 33.2888 161.712C32.3354 160.759 30.685 160.869 29.5954 161.958L10.7162 180.838L11.521 168.679C11.6172 167.236 10.5238 166.143 9.08107 166.239C7.63834 166.335 6.38875 167.585 6.29257 169.027L5.06145 187.494L5.07299 187.493Z" fill="#8A2BE2"/>
</g>
<g clip-path="url(#clip5_5_450)">
<path d="M33.927 202.507C34.0232 201.064 32.9298 199.97 31.4871 200.067L13.0202 201.298C11.5775 201.394 10.3279 202.643 10.2317 204.086C10.1355 205.529 11.2289 206.622 12.6717 206.526L24.8429 205.709L5.95742 224.594C4.86788 225.684 4.75785 227.334 5.7112 228.288C6.66455 229.241 8.31503 229.131 9.40457 228.042L28.2838 209.162L27.479 221.321C27.3828 222.764 28.4762 223.857 29.9189 223.761C31.3617 223.665 32.6112 222.415 32.7074 220.973L33.9385 202.506L33.927 202.507Z" fill="#8A2BE2"/>
</g>
<g clip-path="url(#clip6_5_450)">
<path d="M7.50659 239.073C6.06387 238.977 4.97048 240.07 5.06666 241.513L6.29778 259.98C6.39396 261.423 7.64356 262.672 9.08628 262.768C10.529 262.865 11.6224 261.771 11.5262 260.328L10.7091 248.157L29.5945 267.043C30.684 268.132 32.3345 268.242 33.2879 267.289C34.2412 266.336 34.1312 264.685 33.0416 263.596L14.1623 244.716L26.3212 245.521C27.764 245.617 28.8573 244.524 28.7612 243.081C28.665 241.638 27.4154 240.389 25.9727 240.293L7.50582 239.062L7.50659 239.073Z" fill="#8A2BE2"/>
</g>
<g clip-path="url(#clip7_5_450)">
<path d="M31.4934 306.927C32.9361 307.023 34.0295 305.93 33.9333 304.487L32.7022 286.02C32.606 284.577 31.3564 283.328 29.9137 283.232C28.471 283.135 27.3776 284.229 27.4738 285.672L28.2909 297.843L9.40551 278.957C8.31597 277.868 6.66549 277.758 5.71214 278.711C4.75879 279.664 4.86882 281.315 5.95837 282.404L24.8377 301.284L12.6788 300.479C11.236 300.383 10.1427 301.476 10.2388 302.919C10.335 304.362 11.5846 305.611 13.0273 305.707L31.4942 306.938L31.4934 306.927Z" fill="#8A2BE2"/>
</g>
<g clip-path="url(#clip8_5_450)">
<path d="M33.927 319.507C34.0232 318.064 32.9298 316.97 31.4871 317.067L13.0202 318.298C11.5775 318.394 10.3279 319.644 10.2317 321.086C10.1355 322.529 11.2289 323.622 12.6717 323.526L24.8429 322.709L5.95742 341.594C4.86788 342.684 4.75785 344.335 5.7112 345.288C6.66455 346.241 8.31503 346.131 9.40457 345.042L28.2838 326.162L27.479 338.321C27.3828 339.764 28.4762 340.857 29.9189 340.761C31.3617 340.665 32.6112 339.415 32.7074 337.973L33.9385 319.506L33.927 319.507Z" fill="#8A2BE2"/>
</g>
<g clip-path="url(#clip9_5_450)">
<path d="M7.50659 356.073C6.06387 355.977 4.97048 357.07 5.06666 358.513L6.29778 376.98C6.39396 378.423 7.64356 379.672 9.08628 379.768C10.529 379.865 11.6224 378.771 11.5262 377.328L10.7091 365.157L29.5945 384.043C30.684 385.132 32.3345 385.242 33.2879 384.289C34.2412 383.336 34.1312 381.685 33.0416 380.596L14.1623 361.716L26.3212 362.521C27.764 362.617 28.8573 361.524 28.7612 360.081C28.665 358.638 27.4154 357.389 25.9727 357.293L7.50582 356.062L7.50659 356.073Z" fill="#8A2BE2"/>
</g>
<g clip-path="url(#clip10_5_450)">
<path d="M44.073 31.4935C43.9768 32.9362 45.0702 34.0296 46.5129 33.9334L64.9798 32.7023C66.4225 32.6061 67.6721 31.3565 67.7683 29.9138C67.8645 28.4711 66.7711 27.3777 65.3283 27.4739L53.1571 28.291L72.0426 9.40557C73.1321 8.31603 73.2422 6.66555 72.2888 5.7122C71.3354 4.75885 69.685 4.86888 68.5954 5.95843L49.7162 24.8377L50.521 12.6788C50.6172 11.2361 49.5238 10.1427 48.0811 10.2389C46.6383 10.3351 45.3888 11.5847 45.2926 13.0274L44.0615 31.4942L44.073 31.4935Z" fill="#8A2BE2"/>
</g>
<g clip-path="url(#clip11_5_450)">
<path d="M70.4934 72.9269C71.9361 73.0231 73.0295 71.9297 72.9333 70.487L71.7022 52.0201C71.606 50.5774 70.3564 49.3278 68.9137 49.2316C67.471 49.1354 66.3776 50.2288 66.4738 51.6715L67.2909 63.8427L48.4055 44.9573C47.316 43.8678 45.6655 43.7577 44.7121 44.7111C43.7588 45.6644 43.8688 47.3149 44.9584 48.4044L63.8377 67.2837L51.6788 66.4789C50.236 66.3827 49.1427 67.4761 49.2388 68.9188C49.335 70.3615 50.5846 71.6111 52.0273 71.7073L70.4942 72.9384L70.4934 72.9269Z" fill="#8A2BE2"/>
</g>
<g clip-path="url(#clip12_5_450)">
<path d="M44.073 109.493C43.9768 110.936 45.0702 112.03 46.5129 111.933L64.9798 110.702C66.4225 110.606 67.6721 109.357 67.7683 107.914C67.8645 106.471 66.7711 105.378 65.3283 105.474L53.1571 106.291L72.0426 87.4056C73.1321 86.316 73.2422 84.6656 72.2888 83.7122C71.3354 82.7589 69.685 82.8689 68.5954 83.9584L49.7162 102.838L50.521 90.6788C50.6172 89.2361 49.5238 88.1427 48.0811 88.2389C46.6383 88.3351 45.3888 89.5847 45.2926 91.0274L44.0615 109.494L44.073 109.493Z" fill="#8A2BE2"/>
</g>
<g clip-path="url(#clip13_5_450)">
<path d="M46.5066 122.073C45.0639 121.977 43.9705 123.07 44.0667 124.513L45.2978 142.98C45.394 144.423 46.6436 145.672 48.0863 145.768C49.529 145.865 50.6224 144.771 50.5262 143.328L49.7091 131.157L68.5945 150.043C69.684 151.132 71.3345 151.242 72.2879 150.289C73.2412 149.336 73.1312 147.685 72.0416 146.596L53.1623 127.716L65.3212 128.521C66.764 128.617 67.8573 127.524 67.7612 126.081C67.665 124.638 66.4154 123.389 64.9727 123.293L46.5058 122.062L46.5066 122.073Z" fill="#8A2BE2"/>
</g>
<g clip-path="url(#clip14_5_450)">
<path d="M44.073 187.493C43.9768 188.936 45.0702 190.03 46.5129 189.933L64.9798 188.702C66.4225 188.606 67.6721 187.357 67.7683 185.914C67.8645 184.471 66.7711 183.378 65.3283 183.474L53.1571 184.291L72.0426 165.406C73.1321 164.316 73.2422 162.666 72.2888 161.712C71.3354 160.759 69.685 160.869 68.5954 161.958L49.7162 180.838L50.521 168.679C50.6172 167.236 49.5238 166.143 48.0811 166.239C46.6383 166.335 45.3888 167.585 45.2926 169.027L44.0615 187.494L44.073 187.493Z" fill="#8A2BE2"/>
</g>
<g clip-path="url(#clip15_5_450)">
<path d="M46.5066 200.073C45.0639 199.977 43.9705 201.07 44.0667 202.513L45.2978 220.98C45.394 222.423 46.6436 223.672 48.0863 223.768C49.529 223.865 50.6224 222.771 50.5262 221.328L49.7091 209.157L68.5945 228.043C69.684 229.132 71.3345 229.242 72.2879 228.289C73.2412 227.336 73.1312 225.685 72.0416 224.596L53.1623 205.716L65.3212 206.521C66.764 206.617 67.8573 205.524 67.7612 204.081C67.665 202.638 66.4154 201.389 64.9727 201.293L46.5058 200.062L46.5066 200.073Z" fill="#8A2BE2"/>
</g>
<g clip-path="url(#clip16_5_450)">
<path d="M72.927 241.507C73.0232 240.064 71.9298 238.97 70.4871 239.067L52.0202 240.298C50.5775 240.394 49.3279 241.643 49.2317 243.086C49.1355 244.529 50.2289 245.622 51.6717 245.526L63.8429 244.709L44.9574 263.594C43.8679 264.684 43.7578 266.334 44.7112 267.288C45.6646 268.241 47.315 268.131 48.4046 267.042L67.2838 248.162L66.479 260.321C66.3828 261.764 67.4762 262.857 68.9189 262.761C70.3617 262.665 71.6112 261.415 71.7074 259.973L72.9385 241.506L72.927 241.507Z" fill="#8A2BE2"/>
</g>
<g clip-path="url(#clip17_5_450)">
<path d="M72.927 280.507C73.0232 279.064 71.9298 277.97 70.4871 278.067L52.0202 279.298C50.5775 279.394 49.3279 280.643 49.2317 282.086C49.1355 283.529 50.2289 284.622 51.6717 284.526L63.8429 283.709L44.9574 302.594C43.8679 303.684 43.7578 305.334 44.7112 306.288C45.6646 307.241 47.315 307.131 48.4046 306.042L67.2838 287.162L66.479 299.321C66.3828 300.764 67.4762 301.857 68.9189 301.761C70.3617 301.665 71.6112 300.415 71.7074 298.973L72.9385 280.506L72.927 280.507Z" fill="#8A2BE2"/>
</g>
<g clip-path="url(#clip18_5_450)">
<path d="M44.073 343.493C43.9768 344.936 45.0702 346.03 46.5129 345.933L64.9798 344.702C66.4225 344.606 67.6721 343.356 67.7683 341.914C67.8645 340.471 66.7711 339.378 65.3283 339.474L53.1571 340.291L72.0426 321.406C73.1321 320.316 73.2422 318.665 72.2888 317.712C71.3354 316.759 69.685 316.869 68.5954 317.958L49.7162 336.838L50.521 324.679C50.6172 323.236 49.5238 322.143 48.0811 322.239C46.6383 322.335 45.3888 323.585 45.2926 325.027L44.0615 343.494L44.073 343.493Z" fill="#8A2BE2"/>
</g>
<g clip-path="url(#clip19_5_450)">
<path d="M46.5066 356.073C45.0639 355.977 43.9705 357.07 44.0667 358.513L45.2978 376.98C45.394 378.423 46.6436 379.672 48.0863 379.768C49.529 379.865 50.6224 378.771 50.5262 377.328L49.7091 365.157L68.5945 384.043C69.684 385.132 71.3345 385.242 72.2879 384.289C73.2412 383.336 73.1312 381.685 72.0416 380.596L53.1623 361.716L65.3212 362.521C66.764 362.617 67.8573 361.524 67.7612 360.081C67.665 358.638 66.4154 357.389 64.9727 357.293L46.5058 356.062L46.5066 356.073Z" fill="#8A2BE2"/>
</g>
<g clip-path="url(#clip20_5_450)">
<path d="M83.073 31.4935C82.9768 32.9362 84.0702 34.0296 85.5129 33.9334L103.98 32.7023C105.422 32.6061 106.672 31.3565 106.768 29.9138C106.864 28.4711 105.771 27.3777 104.328 27.4739L92.1571 28.291L111.043 9.40557C112.132 8.31603 112.242 6.66555 111.289 5.7122C110.335 4.75885 108.685 4.86888 107.595 5.95843L88.7162 24.8377L89.521 12.6788C89.6172 11.2361 88.5238 10.1427 87.0811 10.2389C85.6383 10.3351 84.3888 11.5847 84.2926 13.0274L83.0615 31.4942L83.073 31.4935Z" fill="#8A2BE2"/>
</g>
<g clip-path="url(#clip21_5_450)">
<path d="M109.493 72.9269C110.936 73.0231 112.03 71.9297 111.933 70.487L110.702 52.0201C110.606 50.5774 109.356 49.3278 107.914 49.2316C106.471 49.1354 105.378 50.2288 105.474 51.6715L106.291 63.8427L87.4055 44.9573C86.316 43.8678 84.6655 43.7577 83.7121 44.7111C82.7588 45.6644 82.8688 47.3149 83.9584 48.4044L102.838 67.2837L90.6788 66.4789C89.236 66.3827 88.1427 67.4761 88.2388 68.9188C88.335 70.3615 89.5846 71.6111 91.0273 71.7073L109.494 72.9384L109.493 72.9269Z" fill="#8A2BE2"/>
</g>
<g clip-path="url(#clip22_5_450)">
<path d="M109.493 111.927C110.936 112.023 112.03 110.93 111.933 109.487L110.702 91.0201C110.606 89.5774 109.356 88.3278 107.914 88.2316C106.471 88.1354 105.378 89.2288 105.474 90.6715L106.291 102.843L87.4055 83.9573C86.316 82.8678 84.6655 82.7577 83.7121 83.7111C82.7588 84.6644 82.8688 86.3149 83.9584 87.4044L102.838 106.284L90.6788 105.479C89.236 105.383 88.1427 106.476 88.2388 107.919C88.335 109.362 89.5846 110.611 91.0273 110.707L109.494 111.938L109.493 111.927Z" fill="#8A2BE2"/>
</g>
<g clip-path="url(#clip23_5_450)">
<path d="M83.073 148.493C82.9768 149.936 84.0702 151.03 85.5129 150.933L103.98 149.702C105.422 149.606 106.672 148.357 106.768 146.914C106.864 145.471 105.771 144.378 104.328 144.474L92.1571 145.291L111.043 126.406C112.132 125.316 112.242 123.666 111.289 122.712C110.335 121.759 108.685 121.869 107.595 122.958L88.7162 141.838L89.521 129.679C89.6172 128.236 88.5238 127.143 87.0811 127.239C85.6383 127.335 84.3888 128.585 84.2926 130.027L83.0615 148.494L83.073 148.493Z" fill="#8A2BE2"/>
</g>
<g clip-path="url(#clip24_5_450)">
<path d="M109.493 189.927C110.936 190.023 112.03 188.93 111.933 187.487L110.702 169.02C110.606 167.577 109.356 166.328 107.914 166.232C106.471 166.135 105.378 167.229 105.474 168.672L106.291 180.843L87.4055 161.957C86.316 160.868 84.6655 160.758 83.7121 161.711C82.7588 162.664 82.8688 164.315 83.9584 165.404L102.838 184.284L90.6788 183.479C89.236 183.383 88.1427 184.476 88.2388 185.919C88.335 187.362 89.5846 188.611 91.0273 188.707L109.494 189.938L109.493 189.927Z" fill="#8A2BE2"/>
</g>
<g clip-path="url(#clip25_5_450)">
<path d="M109.493 228.927C110.936 229.023 112.03 227.93 111.933 226.487L110.702 208.02C110.606 206.577 109.356 205.328 107.914 205.232C106.471 205.135 105.378 206.229 105.474 207.672L106.291 219.843L87.4055 200.957C86.316 199.868 84.6655 199.758 83.7121 200.711C82.7588 201.664 82.8688 203.315 83.9584 204.404L102.838 223.284L90.6788 222.479C89.236 222.383 88.1427 223.476 88.2388 224.919C88.335 226.362 89.5846 227.611 91.0273 227.707L109.494 228.938L109.493 228.927Z" fill="#8A2BE2"/>
</g>
<g clip-path="url(#clip26_5_450)">
<path d="M109.493 267.927C110.936 268.023 112.03 266.93 111.933 265.487L110.702 247.02C110.606 245.577 109.356 244.328 107.914 244.232C106.471 244.135 105.378 245.229 105.474 246.672L106.291 258.843L87.4055 239.957C86.316 238.868 84.6655 238.758 83.7121 239.711C82.7588 240.664 82.8688 242.315 83.9584 243.404L102.838 262.284L90.6788 261.479C89.236 261.383 88.1427 262.476 88.2388 263.919C88.335 265.362 89.5846 266.611 91.0273 266.707L109.494 267.938L109.493 267.927Z" fill="#8A2BE2"/>
</g>
<g clip-path="url(#clip27_5_450)">
<path d="M83.073 304.493C82.9768 305.936 84.0702 307.03 85.5129 306.933L103.98 305.702C105.422 305.606 106.672 304.357 106.768 302.914C106.864 301.471 105.771 300.378 104.328 300.474L92.1571 301.291L111.043 282.406C112.132 281.316 112.242 279.666 111.289 278.712C110.335 277.759 108.685 277.869 107.595 278.958L88.7162 297.838L89.521 285.679C89.6172 284.236 88.5238 283.143 87.0811 283.239C85.6383 283.335 84.3888 284.585 84.2926 286.027L83.0615 304.494L83.073 304.493Z" fill="#8A2BE2"/>
</g>
<g clip-path="url(#clip28_5_450)">
<path d="M85.5066 317.073C84.0639 316.977 82.9705 318.07 83.0667 319.513L84.2978 337.98C84.394 339.423 85.6436 340.672 87.0863 340.768C88.529 340.865 89.6224 339.771 89.5262 338.328L88.7091 326.157L107.594 345.043C108.684 346.132 110.335 346.242 111.288 345.289C112.241 344.336 112.131 342.685 111.042 341.596L92.1623 322.716L104.321 323.521C105.764 323.617 106.857 322.524 106.761 321.081C106.665 319.638 105.415 318.389 103.973 318.293L85.5058 317.062L85.5066 317.073Z" fill="#8A2BE2"/>
</g>
<g clip-path="url(#clip29_5_450)">
<path d="M83.073 382.493C82.9768 383.936 84.0702 385.03 85.5129 384.933L103.98 383.702C105.422 383.606 106.672 382.356 106.768 380.914C106.864 379.471 105.771 378.378 104.328 378.474L92.1571 379.291L111.043 360.406C112.132 359.316 112.242 357.665 111.289 356.712C110.335 355.759 108.685 355.869 107.595 356.958L88.7162 375.838L89.521 363.679C89.6172 362.236 88.5238 361.143 87.0811 361.239C85.6383 361.335 84.3888 362.585 84.2926 364.027L83.0615 382.494L83.073 382.493Z" fill="#8A2BE2"/>
</g>
<g clip-path="url(#clip30_5_450)">
<path d="M150.927 7.50653C151.023 6.06381 149.93 4.97041 148.487 5.0666L130.02 6.29772C128.578 6.3939 127.328 7.64349 127.232 9.08622C127.136 10.5289 128.229 11.6223 129.672 11.5261L141.843 10.709L122.957 29.5944C121.868 30.684 121.758 32.3344 122.711 33.2878C123.665 34.2411 125.315 34.1311 126.405 33.0416L145.284 14.1623L144.479 26.3212C144.383 27.7639 145.476 28.8573 146.919 28.7611C148.362 28.6649 149.611 27.4153 149.707 25.9726L150.939 7.50576L150.927 7.50653Z" fill="#8A2BE2"/>
</g>
<g clip-path="url(#clip31_5_450)">
<path d="M122.073 70.4935C121.977 71.9362 123.07 73.0296 124.513 72.9334L142.98 71.7023C144.422 71.6061 145.672 70.3565 145.768 68.9138C145.864 67.4711 144.771 66.3777 143.328 66.4739L131.157 67.291L150.043 48.4056C151.132 47.316 151.242 45.6656 150.289 44.7122C149.335 43.7589 147.685 43.8689 146.595 44.9584L127.716 63.8377L128.521 51.6788C128.617 50.2361 127.524 49.1427 126.081 49.2389C124.638 49.3351 123.389 50.5847 123.293 52.0274L122.061 70.4942L122.073 70.4935Z" fill="#8A2BE2"/>
</g>
<g clip-path="url(#clip32_5_450)">
<path d="M122.073 109.493C121.977 110.936 123.07 112.03 124.513 111.933L142.98 110.702C144.422 110.606 145.672 109.357 145.768 107.914C145.864 106.471 144.771 105.378 143.328 105.474L131.157 106.291L150.043 87.4056C151.132 86.316 151.242 84.6656 150.289 83.7122C149.335 82.7589 147.685 82.8689 146.595 83.9584L127.716 102.838L128.521 90.6788C128.617 89.2361 127.524 88.1427 126.081 88.2389C124.638 88.3351 123.389 89.5847 123.293 91.0274L122.061 109.494L122.073 109.493Z" fill="#8A2BE2"/>
</g>
<g clip-path="url(#clip33_5_450)">
<path d="M150.927 124.507C151.023 123.064 149.93 121.97 148.487 122.067L130.02 123.298C128.578 123.394 127.328 124.643 127.232 126.086C127.136 127.529 128.229 128.622 129.672 128.526L141.843 127.709L122.957 146.594C121.868 147.684 121.758 149.334 122.711 150.288C123.665 151.241 125.315 151.131 126.405 150.042L145.284 131.162L144.479 143.321C144.383 144.764 145.476 145.857 146.919 145.761C148.362 145.665 149.611 144.415 149.707 142.973L150.939 124.506L150.927 124.507Z" fill="#8A2BE2"/>
</g>
<g clip-path="url(#clip34_5_450)">
<path d="M148.493 189.927C149.936 190.023 151.03 188.93 150.933 187.487L149.702 169.02C149.606 167.577 148.356 166.328 146.914 166.232C145.471 166.135 144.378 167.229 144.474 168.672L145.291 180.843L126.406 161.957C125.316 160.868 123.665 160.758 122.712 161.711C121.759 162.664 121.869 164.315 122.958 165.404L141.838 184.284L129.679 183.479C128.236 183.383 127.143 184.476 127.239 185.919C127.335 187.362 128.585 188.611 130.027 188.707L148.494 189.938L148.493 189.927Z" fill="#8A2BE2"/>
</g>
<g clip-path="url(#clip35_5_450)">
<path d="M122.073 226.493C121.977 227.936 123.07 229.03 124.513 228.933L142.98 227.702C144.422 227.606 145.672 226.357 145.768 224.914C145.864 223.471 144.771 222.378 143.328 222.474L131.157 223.291L150.043 204.406C151.132 203.316 151.242 201.666 150.289 200.712C149.335 199.759 147.685 199.869 146.595 200.958L127.716 219.838L128.521 207.679C128.617 206.236 127.524 205.143 126.081 205.239C124.638 205.335 123.389 206.585 123.293 208.027L122.061 226.494L122.073 226.493Z" fill="#8A2BE2"/>
</g>
<g clip-path="url(#clip36_5_450)">
<path d="M148.493 267.927C149.936 268.023 151.03 266.93 150.933 265.487L149.702 247.02C149.606 245.577 148.356 244.328 146.914 244.232C145.471 244.135 144.378 245.229 144.474 246.672L145.291 258.843L126.406 239.957C125.316 238.868 123.665 238.758 122.712 239.711C121.759 240.664 121.869 242.315 122.958 243.404L141.838 262.284L129.679 261.479C128.236 261.383 127.143 262.476 127.239 263.919C127.335 265.362 128.585 266.611 130.027 266.707L148.494 267.938L148.493 267.927Z" fill="#8A2BE2"/>
</g>
<g clip-path="url(#clip37_5_450)">
<path d="M148.493 306.927C149.936 307.023 151.03 305.93 150.933 304.487L149.702 286.02C149.606 284.577 148.356 283.328 146.914 283.232C145.471 283.135 144.378 284.229 144.474 285.672L145.291 297.843L126.406 278.957C125.316 277.868 123.665 277.758 122.712 278.711C121.759 279.664 121.869 281.315 122.958 282.404L141.838 301.284L129.679 300.479C128.236 300.383 127.143 301.476 127.239 302.919C127.335 304.362 128.585 305.611 130.027 305.707L148.494 306.938L148.493 306.927Z" fill="#8A2BE2"/>
</g>
<g clip-path="url(#clip38_5_450)">
<path d="M150.927 319.507C151.023 318.064 149.93 316.97 148.487 317.067L130.02 318.298C128.578 318.394 127.328 319.644 127.232 321.086C127.136 322.529 128.229 323.622 129.672 323.526L141.843 322.709L122.957 341.594C121.868 342.684 121.758 344.335 122.711 345.288C123.665 346.241 125.315 346.131 126.405 345.042L145.284 326.162L144.479 338.321C144.383 339.764 145.476 340.857 146.919 340.761C148.362 340.665 149.611 339.415 149.707 337.973L150.939 319.506L150.927 319.507Z" fill="#8A2BE2"/>
</g>
<g clip-path="url(#clip39_5_450)">
<path d="M124.507 356.073C123.064 355.977 121.97 357.07 122.067 358.513L123.298 376.98C123.394 378.423 124.644 379.672 126.086 379.768C127.529 379.865 128.622 378.771 128.526 377.328L127.709 365.157L146.594 384.043C147.684 385.132 149.335 385.242 150.288 384.289C151.241 383.336 151.131 381.685 150.042 380.596L131.162 361.716L143.321 362.521C144.764 362.617 145.857 361.524 145.761 360.081C145.665 358.638 144.415 357.389 142.973 357.293L124.506 356.062L124.507 356.073Z" fill="#8A2BE2"/>
</g>
<g clip-path="url(#clip40_5_450)">
<path d="M163.507 5.07312C162.064 4.97693 160.97 6.07033 161.067 7.51305L162.298 25.9799C162.394 27.4226 163.644 28.6722 165.086 28.7684C166.529 28.8646 167.622 27.7712 167.526 26.3285L166.709 14.1573L185.594 33.0427C186.684 34.1322 188.335 34.2423 189.288 33.2889C190.241 32.3356 190.131 30.6851 189.042 29.5956L170.162 10.7163L182.321 11.5211C183.764 11.6173 184.857 10.5239 184.761 9.08119C184.665 7.63847 183.415 6.38887 181.973 6.29269L163.506 5.06157L163.507 5.07312Z" fill="#8A2BE2"/>
</g>
<g clip-path="url(#clip41_5_450)">
<path d="M189.927 46.5065C190.023 45.0638 188.93 43.9704 187.487 44.0666L169.02 45.2977C167.578 45.3939 166.328 46.6435 166.232 48.0862C166.136 49.5289 167.229 50.6223 168.672 50.5261L180.843 49.709L161.957 68.5944C160.868 69.684 160.758 71.3344 161.711 72.2878C162.665 73.2411 164.315 73.1311 165.405 72.0416L184.284 53.1623L183.479 65.3212C183.383 66.7639 184.476 67.8573 185.919 67.7611C187.362 67.6649 188.611 66.4153 188.707 64.9726L189.939 46.5058L189.927 46.5065Z" fill="#8A2BE2"/>
</g>
<g clip-path="url(#clip42_5_450)">
<path d="M163.507 83.0731C162.064 82.9769 160.97 84.0703 161.067 85.513L162.298 103.98C162.394 105.423 163.644 106.672 165.086 106.768C166.529 106.865 167.622 105.771 167.526 104.328L166.709 92.1573L185.594 111.043C186.684 112.132 188.335 112.242 189.288 111.289C190.241 110.336 190.131 108.685 189.042 107.596L170.162 88.7163L182.321 89.5211C183.764 89.6173 184.857 88.5239 184.761 87.0812C184.665 85.6385 183.415 84.3889 181.973 84.2927L163.506 83.0616L163.507 83.0731Z" fill="#8A2BE2"/>
</g>
<g clip-path="url(#clip43_5_450)">
<path d="M189.927 124.507C190.023 123.064 188.93 121.97 187.487 122.067L169.02 123.298C167.578 123.394 166.328 124.643 166.232 126.086C166.136 127.529 167.229 128.622 168.672 128.526L180.843 127.709L161.957 146.594C160.868 147.684 160.758 149.334 161.711 150.288C162.665 151.241 164.315 151.131 165.405 150.042L184.284 131.162L183.479 143.321C183.383 144.764 184.476 145.857 185.919 145.761C187.362 145.665 188.611 144.415 188.707 142.973L189.939 124.506L189.927 124.507Z" fill="#8A2BE2"/>
</g>
<g clip-path="url(#clip44_5_450)">
<path d="M187.493 189.927C188.936 190.023 190.03 188.93 189.933 187.487L188.702 169.02C188.606 167.577 187.356 166.328 185.914 166.232C184.471 166.135 183.378 167.229 183.474 168.672L184.291 180.843L165.406 161.957C164.316 160.868 162.665 160.758 161.712 161.711C160.759 162.664 160.869 164.315 161.958 165.404L180.838 184.284L168.679 183.479C167.236 183.383 166.143 184.476 166.239 185.919C166.335 187.362 167.585 188.611 169.027 188.707L187.494 189.938L187.493 189.927Z" fill="#8A2BE2"/>
</g>
<g clip-path="url(#clip45_5_450)">
<path d="M161.073 226.493C160.977 227.936 162.07 229.03 163.513 228.933L181.98 227.702C183.422 227.606 184.672 226.357 184.768 224.914C184.864 223.471 183.771 222.378 182.328 222.474L170.157 223.291L189.043 204.406C190.132 203.316 190.242 201.666 189.289 200.712C188.335 199.759 186.685 199.869 185.595 200.958L166.716 219.838L167.521 207.679C167.617 206.236 166.524 205.143 165.081 205.239C163.638 205.335 162.389 206.585 162.293 208.027L161.061 226.494L161.073 226.493Z" fill="#8A2BE2"/>
</g>
<g clip-path="url(#clip46_5_450)">
<path d="M163.507 239.073C162.064 238.977 160.97 240.07 161.067 241.513L162.298 259.98C162.394 261.423 163.644 262.672 165.086 262.768C166.529 262.865 167.622 261.771 167.526 260.328L166.709 248.157L185.594 267.043C186.684 268.132 188.335 268.242 189.288 267.289C190.241 266.336 190.131 264.685 189.042 263.596L170.162 244.716L182.321 245.521C183.764 245.617 184.857 244.524 184.761 243.081C184.665 241.638 183.415 240.389 181.973 240.293L163.506 239.062L163.507 239.073Z" fill="#8A2BE2"/>
</g>
<g clip-path="url(#clip47_5_450)">
<path d="M189.927 280.507C190.023 279.064 188.93 277.97 187.487 278.067L169.02 279.298C167.578 279.394 166.328 280.643 166.232 282.086C166.136 283.529 167.229 284.622 168.672 284.526L180.843 283.709L161.957 302.594C160.868 303.684 160.758 305.334 161.711 306.288C162.665 307.241 164.315 307.131 165.405 306.042L184.284 287.162L183.479 299.321C183.383 300.764 184.476 301.857 185.919 301.761C187.362 301.665 188.611 300.415 188.707 298.973L189.939 280.506L189.927 280.507Z" fill="#8A2BE2"/>
</g>
<g clip-path="url(#clip48_5_450)">
<path d="M163.507 317.073C162.064 316.977 160.97 318.07 161.067 319.513L162.298 337.98C162.394 339.423 163.644 340.672 165.086 340.768C166.529 340.865 167.622 339.771 167.526 338.328L166.709 326.157L185.594 345.043C186.684 346.132 188.335 346.242 189.288 345.289C190.241 344.336 190.131 342.685 189.042 341.596L170.162 322.716L182.321 323.521C183.764 323.617 184.857 322.524 184.761 321.081C184.665 319.638 183.415 318.389 181.973 318.293L163.506 317.062L163.507 317.073Z" fill="#8A2BE2"/>
</g>
<g clip-path="url(#clip49_5_450)">
<path d="M187.493 384.927C188.936 385.023 190.03 383.93 189.933 382.487L188.702 364.02C188.606 362.577 187.356 361.328 185.914 361.232C184.471 361.135 183.378 362.229 183.474 363.672L184.291 375.843L165.406 356.957C164.316 355.868 162.665 355.758 161.712 356.711C160.759 357.664 160.869 359.315 161.958 360.404L180.838 379.284L168.679 378.479C167.236 378.383 166.143 379.476 166.239 380.919C166.335 382.362 167.585 383.611 169.027 383.707L187.494 384.938L187.493 384.927Z" fill="#8A2BE2"/>
</g>
<g clip-path="url(#clip50_5_450)">
<path d="M202.507 5.07312C201.064 4.97693 199.97 6.07033 200.067 7.51305L201.298 25.9799C201.394 27.4226 202.644 28.6722 204.086 28.7684C205.529 28.8646 206.622 27.7712 206.526 26.3285L205.709 14.1573L224.594 33.0427C225.684 34.1322 227.335 34.2423 228.288 33.2889C229.241 32.3356 229.131 30.6851 228.042 29.5956L209.162 10.7163L221.321 11.5211C222.764 11.6173 223.857 10.5239 223.761 9.08119C223.665 7.63847 222.415 6.38887 220.973 6.29269L202.506 5.06157L202.507 5.07312Z" fill="#8A2BE2"/>
</g>
<g clip-path="url(#clip51_5_450)">
<path d="M202.507 44.0731C201.064 43.9769 199.97 45.0703 200.067 46.513L201.298 64.9799C201.394 66.4226 202.644 67.6722 204.086 67.7684C205.529 67.8646 206.622 66.7712 206.526 65.3285L205.709 53.1573L224.594 72.0427C225.684 73.1322 227.335 73.2423 228.288 72.2889C229.241 71.3356 229.131 69.6851 228.042 68.5956L209.162 49.7163L221.321 50.5211C222.764 50.6173 223.857 49.5239 223.761 48.0812C223.665 46.6385 222.415 45.3889 220.973 45.2927L202.506 44.0616L202.507 44.0731Z" fill="#8A2BE2"/>
</g>
<g clip-path="url(#clip52_5_450)">
<path d="M200.073 109.493C199.977 110.936 201.07 112.03 202.513 111.933L220.98 110.702C222.422 110.606 223.672 109.357 223.768 107.914C223.864 106.471 222.771 105.378 221.328 105.474L209.157 106.291L228.043 87.4056C229.132 86.316 229.242 84.6656 228.289 83.7122C227.335 82.7589 225.685 82.8689 224.595 83.9584L205.716 102.838L206.521 90.6788C206.617 89.2361 205.524 88.1427 204.081 88.2389C202.638 88.3351 201.389 89.5847 201.293 91.0274L200.061 109.494L200.073 109.493Z" fill="#8A2BE2"/>
</g>
<g clip-path="url(#clip53_5_450)">
<path d="M226.493 150.927C227.936 151.023 229.03 149.93 228.933 148.487L227.702 130.02C227.606 128.577 226.356 127.328 224.914 127.232C223.471 127.135 222.378 128.229 222.474 129.672L223.291 141.843L204.406 122.957C203.316 121.868 201.665 121.758 200.712 122.711C199.759 123.664 199.869 125.315 200.958 126.404L219.838 145.284L207.679 144.479C206.236 144.383 205.143 145.476 205.239 146.919C205.335 148.362 206.585 149.611 208.027 149.707L226.494 150.938L226.493 150.927Z" fill="#8A2BE2"/>
</g>
<g clip-path="url(#clip54_5_450)">
<path d="M228.927 163.507C229.023 162.064 227.93 160.97 226.487 161.067L208.02 162.298C206.578 162.394 205.328 163.643 205.232 165.086C205.136 166.529 206.229 167.622 207.672 167.526L219.843 166.709L200.957 185.594C199.868 186.684 199.758 188.334 200.711 189.288C201.665 190.241 203.315 190.131 204.405 189.042L223.284 170.162L222.479 182.321C222.383 183.764 223.476 184.857 224.919 184.761C226.362 184.665 227.611 183.415 227.707 181.973L228.939 163.506L228.927 163.507Z" fill="#8A2BE2"/>
</g>
<g clip-path="url(#clip55_5_450)">
<path d="M200.073 226.493C199.977 227.936 201.07 229.03 202.513 228.933L220.98 227.702C222.422 227.606 223.672 226.357 223.768 224.914C223.864 223.471 222.771 222.378 221.328 222.474L209.157 223.291L228.043 204.406C229.132 203.316 229.242 201.666 228.289 200.712C227.335 199.759 225.685 199.869 224.595 200.958L205.716 219.838L206.521 207.679C206.617 206.236 205.524 205.143 204.081 205.239C202.638 205.335 201.389 206.585 201.293 208.027L200.061 226.494L200.073 226.493Z" fill="#8A2BE2"/>
</g>
<g clip-path="url(#clip56_5_450)">
<path d="M202.507 239.073C201.064 238.977 199.97 240.07 200.067 241.513L201.298 259.98C201.394 261.423 202.644 262.672 204.086 262.768C205.529 262.865 206.622 261.771 206.526 260.328L205.709 248.157L224.594 267.043C225.684 268.132 227.335 268.242 228.288 267.289C229.241 266.336 229.131 264.685 228.042 263.596L209.162 244.716L221.321 245.521C222.764 245.617 223.857 244.524 223.761 243.081C223.665 241.638 222.415 240.389 220.973 240.293L202.506 239.062L202.507 239.073Z" fill="#8A2BE2"/>
</g>
<g clip-path="url(#clip57_5_450)">
<path d="M200.073 304.493C199.977 305.936 201.07 307.03 202.513 306.933L220.98 305.702C222.422 305.606 223.672 304.357 223.768 302.914C223.864 301.471 222.771 300.378 221.328 300.474L209.157 301.291L228.043 282.406C229.132 281.316 229.242 279.666 228.289 278.712C227.335 277.759 225.685 277.869 224.595 278.958L205.716 297.838L206.521 285.679C206.617 284.236 205.524 283.143 204.081 283.239C202.638 283.335 201.389 284.585 201.293 286.027L200.061 304.494L200.073 304.493Z" fill="#8A2BE2"/>
</g>
<g clip-path="url(#clip58_5_450)">
<path d="M226.493 345.927C227.936 346.023 229.03 344.93 228.933 343.487L227.702 325.02C227.606 323.577 226.356 322.328 224.914 322.232C223.471 322.135 222.378 323.229 222.474 324.672L223.291 336.843L204.406 317.957C203.316 316.868 201.665 316.758 200.712 317.711C199.759 318.664 199.869 320.315 200.958 321.404L219.838 340.284L207.679 339.479C206.236 339.383 205.143 340.476 205.239 341.919C205.335 343.362 206.585 344.611 208.027 344.707L226.494 345.938L226.493 345.927Z" fill="#8A2BE2"/>
</g>
<g clip-path="url(#clip59_5_450)">
<path d="M228.927 358.507C229.023 357.064 227.93 355.97 226.487 356.067L208.02 357.298C206.578 357.394 205.328 358.644 205.232 360.086C205.136 361.529 206.229 362.622 207.672 362.526L219.843 361.709L200.957 380.594C199.868 381.684 199.758 383.335 200.711 384.288C201.665 385.241 203.315 385.131 204.405 384.042L223.284 365.162L222.479 377.321C222.383 378.764 223.476 379.857 224.919 379.761C226.362 379.665 227.611 378.415 227.707 376.973L228.939 358.506L228.927 358.507Z" fill="#8A2BE2"/>
</g>
<g clip-path="url(#clip60_5_450)">
<path d="M239.073 31.4935C238.977 32.9362 240.07 34.0296 241.513 33.9334L259.98 32.7023C261.422 32.6061 262.672 31.3565 262.768 29.9138C262.864 28.4711 261.771 27.3777 260.328 27.4739L248.157 28.291L267.043 9.40557C268.132 8.31603 268.242 6.66555 267.289 5.7122C266.335 4.75885 264.685 4.86888 263.595 5.95843L244.716 24.8377L245.521 12.6788C245.617 11.2361 244.524 10.1427 243.081 10.2389C241.638 10.3351 240.389 11.5847 240.293 13.0274L239.061 31.4942L239.073 31.4935Z" fill="#8A2BE2"/>
</g>
<g clip-path="url(#clip61_5_450)">
<path d="M239.073 70.4935C238.977 71.9362 240.07 73.0296 241.513 72.9334L259.98 71.7023C261.422 71.6061 262.672 70.3565 262.768 68.9138C262.864 67.4711 261.771 66.3777 260.328 66.4739L248.157 67.291L267.043 48.4056C268.132 47.316 268.242 45.6656 267.289 44.7122C266.335 43.7589 264.685 43.8689 263.595 44.9584L244.716 63.8377L245.521 51.6788C245.617 50.2361 244.524 49.1427 243.081 49.2389C241.638 49.3351 240.389 50.5847 240.293 52.0274L239.061 70.4942L239.073 70.4935Z" fill="#8A2BE2"/>
</g>
<g clip-path="url(#clip62_5_450)">
<path d="M265.493 111.927C266.936 112.023 268.03 110.93 267.933 109.487L266.702 91.0201C266.606 89.5774 265.356 88.3278 263.914 88.2316C262.471 88.1354 261.378 89.2288 261.474 90.6715L262.291 102.843L243.406 83.9573C242.316 82.8678 240.665 82.7577 239.712 83.7111C238.759 84.6644 238.869 86.3149 239.958 87.4044L258.838 106.284L246.679 105.479C245.236 105.383 244.143 106.476 244.239 107.919C244.335 109.362 245.585 110.611 247.027 110.707L265.494 111.938L265.493 111.927Z" fill="#8A2BE2"/>
</g>
<g clip-path="url(#clip63_5_450)">
<path d="M267.927 124.507C268.023 123.064 266.93 121.97 265.487 122.067L247.02 123.298C245.578 123.394 244.328 124.643 244.232 126.086C244.136 127.529 245.229 128.622 246.672 128.526L258.843 127.709L239.957 146.594C238.868 147.684 238.758 149.334 239.711 150.288C240.665 151.241 242.315 151.131 243.405 150.042L262.284 131.162L261.479 143.321C261.383 144.764 262.476 145.857 263.919 145.761C265.362 145.665 266.611 144.415 266.707 142.973L267.939 124.506L267.927 124.507Z" fill="#8A2BE2"/>
</g>
<g clip-path="url(#clip64_5_450)">
<path d="M241.507 161.073C240.064 160.977 238.97 162.07 239.067 163.513L240.298 181.98C240.394 183.423 241.644 184.672 243.086 184.768C244.529 184.865 245.622 183.771 245.526 182.328L244.709 170.157L263.594 189.043C264.684 190.132 266.335 190.242 267.288 189.289C268.241 188.336 268.131 186.685 267.042 185.596L248.162 166.716L260.321 167.521C261.764 167.617 262.857 166.524 262.761 165.081C262.665 163.638 261.415 162.389 259.973 162.293L241.506 161.062L241.507 161.073Z" fill="#8A2BE2"/>
</g>
<g clip-path="url(#clip65_5_450)">
<path d="M265.493 228.927C266.936 229.023 268.03 227.93 267.933 226.487L266.702 208.02C266.606 206.577 265.356 205.328 263.914 205.232C262.471 205.135 261.378 206.229 261.474 207.672L262.291 219.843L243.406 200.957C242.316 199.868 240.665 199.758 239.712 200.711C238.759 201.664 238.869 203.315 239.958 204.404L258.838 223.284L246.679 222.479C245.236 222.383 244.143 223.476 244.239 224.919C244.335 226.362 245.585 227.611 247.027 227.707L265.494 228.938L265.493 228.927Z" fill="#8A2BE2"/>
</g>
<g clip-path="url(#clip66_5_450)">
<path d="M265.493 267.927C266.936 268.023 268.03 266.93 267.933 265.487L266.702 247.02C266.606 245.577 265.356 244.328 263.914 244.232C262.471 244.135 261.378 245.229 261.474 246.672L262.291 258.843L243.406 239.957C242.316 238.868 240.665 238.758 239.712 239.711C238.759 240.664 238.869 242.315 239.958 243.404L258.838 262.284L246.679 261.479C245.236 261.383 244.143 262.476 244.239 263.919C244.335 265.362 245.585 266.611 247.027 266.707L265.494 267.938L265.493 267.927Z" fill="#8A2BE2"/>
</g>
<g clip-path="url(#clip67_5_450)">
<path d="M241.507 278.073C240.064 277.977 238.97 279.07 239.067 280.513L240.298 298.98C240.394 300.423 241.644 301.672 243.086 301.768C244.529 301.865 245.622 300.771 245.526 299.328L244.709 287.157L263.594 306.043C264.684 307.132 266.335 307.242 267.288 306.289C268.241 305.336 268.131 303.685 267.042 302.596L248.162 283.716L260.321 284.521C261.764 284.617 262.857 283.524 262.761 282.081C262.665 280.638 261.415 279.389 259.973 279.293L241.506 278.062L241.507 278.073Z" fill="#8A2BE2"/>
</g>
<g clip-path="url(#clip68_5_450)">
<path d="M239.073 343.493C238.977 344.936 240.07 346.03 241.513 345.933L259.98 344.702C261.422 344.606 262.672 343.356 262.768 341.914C262.864 340.471 261.771 339.378 260.328 339.474L248.157 340.291L267.043 321.406C268.132 320.316 268.242 318.665 267.289 317.712C266.335 316.759 264.685 316.869 263.595 317.958L244.716 336.838L245.521 324.679C245.617 323.236 244.524 322.143 243.081 322.239C241.638 322.335 240.389 323.585 240.293 325.027L239.061 343.494L239.073 343.493Z" fill="#8A2BE2"/>
</g>
<g clip-path="url(#clip69_5_450)">
<path d="M239.073 382.493C238.977 383.936 240.07 385.03 241.513 384.933L259.98 383.702C261.422 383.606 262.672 382.356 262.768 380.914C262.864 379.471 261.771 378.378 260.328 378.474L248.157 379.291L267.043 360.406C268.132 359.316 268.242 357.665 267.289 356.712C266.335 355.759 264.685 355.869 263.595 356.958L244.716 375.838L245.521 363.679C245.617 362.236 244.524 361.143 243.081 361.239C241.638 361.335 240.389 362.585 240.293 364.027L239.061 382.494L239.073 382.493Z" fill="#8A2BE2"/>
</g>
<g clip-path="url(#clip70_5_450)">
<path d="M306.927 7.50653C307.023 6.06381 305.93 4.97041 304.487 5.0666L286.02 6.29772C284.578 6.3939 283.328 7.64349 283.232 9.08622C283.136 10.5289 284.229 11.6223 285.672 11.5261L297.843 10.709L278.957 29.5944C277.868 30.684 277.758 32.3344 278.711 33.2878C279.665 34.2411 281.315 34.1311 282.405 33.0416L301.284 14.1623L300.479 26.3212C300.383 27.7639 301.476 28.8573 302.919 28.7611C304.362 28.6649 305.611 27.4153 305.707 25.9726L306.939 7.50576L306.927 7.50653Z" fill="#8A2BE2"/>
</g>
<g clip-path="url(#clip71_5_450)">
<path d="M280.507 44.0731C279.064 43.9769 277.97 45.0703 278.067 46.513L279.298 64.9799C279.394 66.4226 280.644 67.6722 282.086 67.7684C283.529 67.8646 284.622 66.7712 284.526 65.3285L283.709 53.1573L302.594 72.0427C303.684 73.1322 305.335 73.2423 306.288 72.2889C307.241 71.3356 307.131 69.6851 306.042 68.5956L287.162 49.7163L299.321 50.5211C300.764 50.6173 301.857 49.5239 301.761 48.0812C301.665 46.6385 300.415 45.3889 298.973 45.2927L280.506 44.0616L280.507 44.0731Z" fill="#8A2BE2"/>
</g>
<g clip-path="url(#clip72_5_450)">
<path d="M306.927 85.5065C307.023 84.0638 305.93 82.9704 304.487 83.0666L286.02 84.2977C284.578 84.3939 283.328 85.6435 283.232 87.0862C283.136 88.5289 284.229 89.6223 285.672 89.5261L297.843 88.709L278.957 107.594C277.868 108.684 277.758 110.334 278.711 111.288C279.665 112.241 281.315 112.131 282.405 111.042L301.284 92.1623L300.479 104.321C300.383 105.764 301.476 106.857 302.919 106.761C304.362 106.665 305.611 105.415 305.707 103.973L306.939 85.5058L306.927 85.5065Z" fill="#8A2BE2"/>
</g>
<g clip-path="url(#clip73_5_450)">
<path d="M278.073 148.493C277.977 149.936 279.07 151.03 280.513 150.933L298.98 149.702C300.422 149.606 301.672 148.357 301.768 146.914C301.864 145.471 300.771 144.378 299.328 144.474L287.157 145.291L306.043 126.406C307.132 125.316 307.242 123.666 306.289 122.712C305.335 121.759 303.685 121.869 302.595 122.958L283.716 141.838L284.521 129.679C284.617 128.236 283.524 127.143 282.081 127.239C280.638 127.335 279.389 128.585 279.293 130.027L278.061 148.494L278.073 148.493Z" fill="#8A2BE2"/>
</g>
<g clip-path="url(#clip74_5_450)">
<path d="M278.073 187.493C277.977 188.936 279.07 190.03 280.513 189.933L298.98 188.702C300.422 188.606 301.672 187.357 301.768 185.914C301.864 184.471 300.771 183.378 299.328 183.474L287.157 184.291L306.043 165.406C307.132 164.316 307.242 162.666 306.289 161.712C305.335 160.759 303.685 160.869 302.595 161.958L283.716 180.838L284.521 168.679C284.617 167.236 283.524 166.143 282.081 166.239C280.638 166.335 279.389 167.585 279.293 169.027L278.061 187.494L278.073 187.493Z" fill="#8A2BE2"/>
</g>
<g clip-path="url(#clip75_5_450)">
<path d="M304.493 228.927C305.936 229.023 307.03 227.93 306.933 226.487L305.702 208.02C305.606 206.577 304.356 205.328 302.914 205.232C301.471 205.135 300.378 206.229 300.474 207.672L301.291 219.843L282.406 200.957C281.316 199.868 279.665 199.758 278.712 200.711C277.759 201.664 277.869 203.315 278.958 204.404L297.838 223.284L285.679 222.479C284.236 222.383 283.143 223.476 283.239 224.919C283.335 226.362 284.585 227.611 286.027 227.707L304.494 228.938L304.493 228.927Z" fill="#8A2BE2"/>
</g>
<g clip-path="url(#clip76_5_450)">
<path d="M304.493 267.927C305.936 268.023 307.03 266.93 306.933 265.487L305.702 247.02C305.606 245.577 304.356 244.328 302.914 244.232C301.471 244.135 300.378 245.229 300.474 246.672L301.291 258.843L282.406 239.957C281.316 238.868 279.665 238.758 278.712 239.711C277.759 240.664 277.869 242.315 278.958 243.404L297.838 262.284L285.679 261.479C284.236 261.383 283.143 262.476 283.239 263.919C283.335 265.362 284.585 266.611 286.027 266.707L304.494 267.938L304.493 267.927Z" fill="#8A2BE2"/>
</g>
<g clip-path="url(#clip77_5_450)">
<path d="M278.073 304.493C277.977 305.936 279.07 307.03 280.513 306.933L298.98 305.702C300.422 305.606 301.672 304.357 301.768 302.914C301.864 301.471 300.771 300.378 299.328 300.474L287.157 301.291L306.043 282.406C307.132 281.316 307.242 279.666 306.289 278.712C305.335 277.759 303.685 277.869 302.595 278.958L283.716 297.838L284.521 285.679C284.617 284.236 283.524 283.143 282.081 283.239C280.638 283.335 279.389 284.585 279.293 286.027L278.061 304.494L278.073 304.493Z" fill="#8A2BE2"/>
</g>
<g clip-path="url(#clip78_5_450)">
<path d="M304.493 345.927C305.936 346.023 307.03 344.93 306.933 343.487L305.702 325.02C305.606 323.577 304.356 322.328 302.914 322.232C301.471 322.135 300.378 323.229 300.474 324.672L301.291 336.843L282.406 317.957C281.316 316.868 279.665 316.758 278.712 317.711C277.759 318.664 277.869 320.315 278.958 321.404L297.838 340.284L285.679 339.479C284.236 339.383 283.143 340.476 283.239 341.919C283.335 343.362 284.585 344.611 286.027 344.707L304.494 345.938L304.493 345.927Z" fill="#8A2BE2"/>
</g>
<g clip-path="url(#clip79_5_450)">
<path d="M280.507 356.073C279.064 355.977 277.97 357.07 278.067 358.513L279.298 376.98C279.394 378.423 280.644 379.672 282.086 379.768C283.529 379.865 284.622 378.771 284.526 377.328L283.709 365.157L302.594 384.043C303.684 385.132 305.335 385.242 306.288 384.289C307.241 383.336 307.131 381.685 306.042 380.596L287.162 361.716L299.321 362.521C300.764 362.617 301.857 361.524 301.761 360.081C301.665 358.638 300.415 357.389 298.973 357.293L280.506 356.062L280.507 356.073Z" fill="#8A2BE2"/>
</g>
<g clip-path="url(#clip80_5_450)">
<path d="M343.493 33.9269C344.936 34.0231 346.03 32.9297 345.933 31.487L344.702 13.0201C344.606 11.5774 343.356 10.3278 341.914 10.2316C340.471 10.1354 339.378 11.2288 339.474 12.6715L340.291 24.8427L321.406 5.9573C320.316 4.86776 318.665 4.75773 317.712 5.71108C316.759 6.66443 316.869 8.3149 317.958 9.40445L336.838 28.2837L324.679 27.4789C323.236 27.3827 322.143 28.4761 322.239 29.9188C322.335 31.3615 323.585 32.6111 325.027 32.7073L343.494 33.9384L343.493 33.9269Z" fill="#8A2BE2"/>
</g>
<g clip-path="url(#clip81_5_450)">
<path d="M319.507 44.0731C318.064 43.9769 316.97 45.0703 317.067 46.513L318.298 64.9799C318.394 66.4226 319.644 67.6722 321.086 67.7684C322.529 67.8646 323.622 66.7712 323.526 65.3285L322.709 53.1573L341.594 72.0427C342.684 73.1322 344.335 73.2423 345.288 72.2889C346.241 71.3356 346.131 69.6851 345.042 68.5956L326.162 49.7163L338.321 50.5211C339.764 50.6173 340.857 49.5239 340.761 48.0812C340.665 46.6385 339.415 45.3889 337.973 45.2927L319.506 44.0616L319.507 44.0731Z" fill="#8A2BE2"/>
</g>
<g clip-path="url(#clip82_5_450)">
<path d="M345.927 85.5065C346.023 84.0638 344.93 82.9704 343.487 83.0666L325.02 84.2977C323.578 84.3939 322.328 85.6435 322.232 87.0862C322.136 88.5289 323.229 89.6223 324.672 89.5261L336.843 88.709L317.957 107.594C316.868 108.684 316.758 110.334 317.711 111.288C318.665 112.241 320.315 112.131 321.405 111.042L340.284 92.1623L339.479 104.321C339.383 105.764 340.476 106.857 341.919 106.761C343.362 106.665 344.611 105.415 344.707 103.973L345.939 85.5058L345.927 85.5065Z" fill="#8A2BE2"/>
</g>
<g clip-path="url(#clip83_5_450)">
<path d="M345.927 124.507C346.023 123.064 344.93 121.97 343.487 122.067L325.02 123.298C323.578 123.394 322.328 124.643 322.232 126.086C322.136 127.529 323.229 128.622 324.672 128.526L336.843 127.709L317.957 146.594C316.868 147.684 316.758 149.334 317.711 150.288C318.665 151.241 320.315 151.131 321.405 150.042L340.284 131.162L339.479 143.321C339.383 144.764 340.476 145.857 341.919 145.761C343.362 145.665 344.611 144.415 344.707 142.973L345.939 124.506L345.927 124.507Z" fill="#8A2BE2"/>
</g>
<g clip-path="url(#clip84_5_450)">
<path d="M317.073 187.493C316.977 188.936 318.07 190.03 319.513 189.933L337.98 188.702C339.422 188.606 340.672 187.357 340.768 185.914C340.864 184.471 339.771 183.378 338.328 183.474L326.157 184.291L345.043 165.406C346.132 164.316 346.242 162.666 345.289 161.712C344.335 160.759 342.685 160.869 341.595 161.958L322.716 180.838L323.521 168.679C323.617 167.236 322.524 166.143 321.081 166.239C319.638 166.335 318.389 167.585 318.293 169.027L317.061 187.494L317.073 187.493Z" fill="#8A2BE2"/>
</g>
<g clip-path="url(#clip85_5_450)">
<path d="M343.493 228.927C344.936 229.023 346.03 227.93 345.933 226.487L344.702 208.02C344.606 206.577 343.356 205.328 341.914 205.232C340.471 205.135 339.378 206.229 339.474 207.672L340.291 219.843L321.406 200.957C320.316 199.868 318.665 199.758 317.712 200.711C316.759 201.664 316.869 203.315 317.958 204.404L336.838 223.284L324.679 222.479C323.236 222.383 322.143 223.476 322.239 224.919C322.335 226.362 323.585 227.611 325.027 227.707L343.494 228.938L343.493 228.927Z" fill="#8A2BE2"/>
</g>
<g clip-path="url(#clip86_5_450)">
<path d="M319.507 239.073C318.064 238.977 316.97 240.07 317.067 241.513L318.298 259.98C318.394 261.423 319.644 262.672 321.086 262.768C322.529 262.865 323.622 261.771 323.526 260.328L322.709 248.157L341.594 267.043C342.684 268.132 344.335 268.242 345.288 267.289C346.241 266.336 346.131 264.685 345.042 263.596L326.162 244.716L338.321 245.521C339.764 245.617 340.857 244.524 340.761 243.081C340.665 241.638 339.415 240.389 337.973 240.293L319.506 239.062L319.507 239.073Z" fill="#8A2BE2"/>
</g>
<g clip-path="url(#clip87_5_450)">
<path d="M345.927 280.507C346.023 279.064 344.93 277.97 343.487 278.067L325.02 279.298C323.578 279.394 322.328 280.643 322.232 282.086C322.136 283.529 323.229 284.622 324.672 284.526L336.843 283.709L317.957 302.594C316.868 303.684 316.758 305.334 317.711 306.288C318.665 307.241 320.315 307.131 321.405 306.042L340.284 287.162L339.479 299.321C339.383 300.764 340.476 301.857 341.919 301.761C343.362 301.665 344.611 300.415 344.707 298.973L345.939 280.506L345.927 280.507Z" fill="#8A2BE2"/>
</g>
<g clip-path="url(#clip88_5_450)">
<path d="M317.073 343.493C316.977 344.936 318.07 346.03 319.513 345.933L337.98 344.702C339.422 344.606 340.672 343.356 340.768 341.914C340.864 340.471 339.771 339.378 338.328 339.474L326.157 340.291L345.043 321.406C346.132 320.316 346.242 318.665 345.289 317.712C344.335 316.759 342.685 316.869 341.595 317.958L322.716 336.838L323.521 324.679C323.617 323.236 322.524 322.143 321.081 322.239C319.638 322.335 318.389 323.585 318.293 325.027L317.061 343.494L317.073 343.493Z" fill="#8A2BE2"/>
</g>
<g clip-path="url(#clip89_5_450)">
<path d="M319.507 356.073C318.064 355.977 316.97 357.07 317.067 358.513L318.298 376.98C318.394 378.423 319.644 379.672 321.086 379.768C322.529 379.865 323.622 378.771 323.526 377.328L322.709 365.157L341.594 384.043C342.684 385.132 344.335 385.242 345.288 384.289C346.241 383.336 346.131 381.685 345.042 380.596L326.162 361.716L338.321 362.521C339.764 362.617 340.857 361.524 340.761 360.081C340.665 358.638 339.415 357.389 337.973 357.293L319.506 356.062L319.507 356.073Z" fill="#8A2BE2"/>
</g>
<g clip-path="url(#clip90_5_450)">
<path d="M384.927 7.50653C385.023 6.06381 383.93 4.97041 382.487 5.0666L364.02 6.29772C362.578 6.3939 361.328 7.64349 361.232 9.08622C361.136 10.5289 362.229 11.6223 363.672 11.5261L375.843 10.709L356.957 29.5944C355.868 30.684 355.758 32.3344 356.711 33.2878C357.665 34.2411 359.315 34.1311 360.405 33.0416L379.284 14.1623L378.479 26.3212C378.383 27.7639 379.476 28.8573 380.919 28.7611C382.362 28.6649 383.611 27.4153 383.707 25.9726L384.939 7.50576L384.927 7.50653Z" fill="#8A2BE2"/>
</g>
<g clip-path="url(#clip91_5_450)">
<path d="M356.073 70.4935C355.977 71.9362 357.07 73.0296 358.513 72.9334L376.98 71.7023C378.422 71.6061 379.672 70.3565 379.768 68.9138C379.864 67.4711 378.771 66.3777 377.328 66.4739L365.157 67.291L384.043 48.4056C385.132 47.316 385.242 45.6656 384.289 44.7122C383.335 43.7589 381.685 43.8689 380.595 44.9584L361.716 63.8377L362.521 51.6788C362.617 50.2361 361.524 49.1427 360.081 49.2389C358.638 49.3351 357.389 50.5847 357.293 52.0274L356.061 70.4942L356.073 70.4935Z" fill="#8A2BE2"/>
</g>
<g clip-path="url(#clip92_5_450)">
<path d="M382.493 111.927C383.936 112.023 385.03 110.93 384.933 109.487L383.702 91.0201C383.606 89.5774 382.356 88.3278 380.914 88.2316C379.471 88.1354 378.378 89.2288 378.474 90.6715L379.291 102.843L360.406 83.9573C359.316 82.8678 357.665 82.7577 356.712 83.7111C355.759 84.6644 355.869 86.3149 356.958 87.4044L375.838 106.284L363.679 105.479C362.236 105.383 361.143 106.476 361.239 107.919C361.335 109.362 362.585 110.611 364.027 110.707L382.494 111.938L382.493 111.927Z" fill="#8A2BE2"/>
</g>
<g clip-path="url(#clip93_5_450)">
<path d="M384.927 124.507C385.023 123.064 383.93 121.97 382.487 122.067L364.02 123.298C362.578 123.394 361.328 124.643 361.232 126.086C361.136 127.529 362.229 128.622 363.672 128.526L375.843 127.709L356.957 146.594C355.868 147.684 355.758 149.334 356.711 150.288C357.665 151.241 359.315 151.131 360.405 150.042L379.284 131.162L378.479 143.321C378.383 144.764 379.476 145.857 380.919 145.761C382.362 145.665 383.611 144.415 383.707 142.973L384.939 124.506L384.927 124.507Z" fill="#8A2BE2"/>
</g>
<g clip-path="url(#clip94_5_450)">
<path d="M356.073 187.493C355.977 188.936 357.07 190.03 358.513 189.933L376.98 188.702C378.422 188.606 379.672 187.357 379.768 185.914C379.864 184.471 378.771 183.378 377.328 183.474L365.157 184.291L384.043 165.406C385.132 164.316 385.242 162.666 384.289 161.712C383.335 160.759 381.685 160.869 380.595 161.958L361.716 180.838L362.521 168.679C362.617 167.236 361.524 166.143 360.081 166.239C358.638 166.335 357.389 167.585 357.293 169.027L356.061 187.494L356.073 187.493Z" fill="#8A2BE2"/>
</g>
<g clip-path="url(#clip95_5_450)">
<path d="M382.493 228.927C383.936 229.023 385.03 227.93 384.933 226.487L383.702 208.02C383.606 206.577 382.356 205.328 380.914 205.232C379.471 205.135 378.378 206.229 378.474 207.672L379.291 219.843L360.406 200.957C359.316 199.868 357.665 199.758 356.712 200.711C355.759 201.664 355.869 203.315 356.958 204.404L375.838 223.284L363.679 222.479C362.236 222.383 361.143 223.476 361.239 224.919C361.335 226.362 362.585 227.611 364.027 227.707L382.494 228.938L382.493 228.927Z" fill="#8A2BE2"/>
</g>
<g clip-path="url(#clip96_5_450)">
<path d="M356.073 265.493C355.977 266.936 357.07 268.03 358.513 267.933L376.98 266.702C378.422 266.606 379.672 265.357 379.768 263.914C379.864 262.471 378.771 261.378 377.328 261.474L365.157 262.291L384.043 243.406C385.132 242.316 385.242 240.666 384.289 239.712C383.335 238.759 381.685 238.869 380.595 239.958L361.716 258.838L362.521 246.679C362.617 245.236 361.524 244.143 360.081 244.239C358.638 244.335 357.389 245.585 357.293 247.027L356.061 265.494L356.073 265.493Z" fill="#8A2BE2"/>
</g>
<g clip-path="url(#clip97_5_450)">
<path d="M356.073 304.493C355.977 305.936 357.07 307.03 358.513 306.933L376.98 305.702C378.422 305.606 379.672 304.357 379.768 302.914C379.864 301.471 378.771 300.378 377.328 300.474L365.157 301.291L384.043 282.406C385.132 281.316 385.242 279.666 384.289 278.712C383.335 277.759 381.685 277.869 380.595 278.958L361.716 297.838L362.521 285.679C362.617 284.236 361.524 283.143 360.081 283.239C358.638 283.335 357.389 284.585 357.293 286.027L356.061 304.494L356.073 304.493Z" fill="#8A2BE2"/>
</g>
<g clip-path="url(#clip98_5_450)">
<path d="M356.073 343.493C355.977 344.936 357.07 346.03 358.513 345.933L376.98 344.702C378.422 344.606 379.672 343.356 379.768 341.914C379.864 340.471 378.771 339.378 377.328 339.474L365.157 340.291L384.043 321.406C385.132 320.316 385.242 318.665 384.289 317.712C383.335 316.759 381.685 316.869 380.595 317.958L361.716 336.838L362.521 324.679C362.617 323.236 361.524 322.143 360.081 322.239C358.638 322.335 357.389 323.585 357.293 325.027L356.061 343.494L356.073 343.493Z" fill="#8A2BE2"/>
</g>
<g clip-path="url(#clip99_5_450)">
<path d="M356.073 382.493C355.977 383.936 357.07 385.03 358.513 384.933L376.98 383.702C378.422 383.606 379.672 382.356 379.768 380.914C379.864 379.471 378.771 378.378 377.328 378.474L365.157 379.291L384.043 360.406C385.132 359.316 385.242 357.665 384.289 356.712C383.335 355.759 381.685 355.869 380.595 356.958L361.716 375.838L362.521 363.679C362.617 362.236 361.524 361.143 360.081 361.239C358.638 361.335 357.389 362.585 357.293 364.027L356.061 382.494L356.073 382.493Z" fill="#8A2BE2"/>
</g>
<defs>
<clipPath id="clip0_5_450">
<rect width="39" height="39" fill="white" transform="translate(0 39) rotate(-90)"/>
</clipPath>
<clipPath id="clip1_5_450">
<rect width="39" height="39" fill="white" transform="translate(0 78) rotate(-90)"/>
</clipPath>
<clipPath id="clip2_5_450">
<rect width="39" height="39" fill="white" transform="translate(39 78) rotate(90)"/>
</clipPath>
<clipPath id="clip3_5_450">
<rect width="39" height="39" fill="white" transform="translate(39 117) rotate(90)"/>
</clipPath>
<clipPath id="clip4_5_450">
<rect width="39" height="39" fill="white" transform="translate(39 195) rotate(180)"/>
</clipPath>
<clipPath id="clip5_5_450">
<rect width="39" height="39" fill="white" transform="translate(0 195)"/>
</clipPath>
<clipPath id="clip6_5_450">
<rect width="39" height="39" fill="white" transform="translate(0 273) rotate(-90)"/>
</clipPath>
<clipPath id="clip7_5_450">
<rect width="39" height="39" fill="white" transform="translate(39 273) rotate(90)"/>
</clipPath>
<clipPath id="clip8_5_450">
<rect width="39" height="39" fill="white" transform="translate(0 312)"/>
</clipPath>
<clipPath id="clip9_5_450">
<rect width="39" height="39" fill="white" transform="translate(0 390) rotate(-90)"/>
</clipPath>
<clipPath id="clip10_5_450">
<rect width="39" height="39" fill="white" transform="translate(78 39) rotate(180)"/>
</clipPath>
<clipPath id="clip11_5_450">
<rect width="39" height="39" fill="white" transform="translate(78 39) rotate(90)"/>
</clipPath>
<clipPath id="clip12_5_450">
<rect width="39" height="39" fill="white" transform="translate(78 117) rotate(180)"/>
</clipPath>
<clipPath id="clip13_5_450">
<rect width="39" height="39" fill="white" transform="translate(39 156) rotate(-90)"/>
</clipPath>
<clipPath id="clip14_5_450">
<rect width="39" height="39" fill="white" transform="translate(78 195) rotate(180)"/>
</clipPath>
<clipPath id="clip15_5_450">
<rect width="39" height="39" fill="white" transform="translate(39 234) rotate(-90)"/>
</clipPath>
<clipPath id="clip16_5_450">
<rect width="39" height="39" fill="white" transform="translate(39 234)"/>
</clipPath>
<clipPath id="clip17_5_450">
<rect width="39" height="39" fill="white" transform="translate(39 273)"/>
</clipPath>
<clipPath id="clip18_5_450">
<rect width="39" height="39" fill="white" transform="translate(78 351) rotate(180)"/>
</clipPath>
<clipPath id="clip19_5_450">
<rect width="39" height="39" fill="white" transform="translate(39 390) rotate(-90)"/>
</clipPath>
<clipPath id="clip20_5_450">
<rect width="39" height="39" fill="white" transform="translate(117 39) rotate(180)"/>
</clipPath>
<clipPath id="clip21_5_450">
<rect width="39" height="39" fill="white" transform="translate(117 39) rotate(90)"/>
</clipPath>
<clipPath id="clip22_5_450">
<rect width="39" height="39" fill="white" transform="translate(117 78) rotate(90)"/>
</clipPath>
<clipPath id="clip23_5_450">
<rect width="39" height="39" fill="white" transform="translate(117 156) rotate(180)"/>
</clipPath>
<clipPath id="clip24_5_450">
<rect width="39" height="39" fill="white" transform="translate(117 156) rotate(90)"/>
</clipPath>
<clipPath id="clip25_5_450">
<rect width="39" height="39" fill="white" transform="translate(117 195) rotate(90)"/>
</clipPath>
<clipPath id="clip26_5_450">
<rect width="39" height="39" fill="white" transform="translate(117 234) rotate(90)"/>
</clipPath>
<clipPath id="clip27_5_450">
<rect width="39" height="39" fill="white" transform="translate(117 312) rotate(180)"/>
</clipPath>
<clipPath id="clip28_5_450">
<rect width="39" height="39" fill="white" transform="translate(78 351) rotate(-90)"/>
</clipPath>
<clipPath id="clip29_5_450">
<rect width="39" height="39" fill="white" transform="translate(117 390) rotate(180)"/>
</clipPath>
<clipPath id="clip30_5_450">
<rect width="39" height="39" fill="white" transform="translate(117)"/>
</clipPath>
<clipPath id="clip31_5_450">
<rect width="39" height="39" fill="white" transform="translate(156 78) rotate(180)"/>
</clipPath>
<clipPath id="clip32_5_450">
<rect width="39" height="39" fill="white" transform="translate(156 117) rotate(180)"/>
</clipPath>
<clipPath id="clip33_5_450">
<rect width="39" height="39" fill="white" transform="translate(117 117)"/>
</clipPath>
<clipPath id="clip34_5_450">
<rect width="39" height="39" fill="white" transform="translate(156 156) rotate(90)"/>
</clipPath>
<clipPath id="clip35_5_450">
<rect width="39" height="39" fill="white" transform="translate(156 234) rotate(180)"/>
</clipPath>
<clipPath id="clip36_5_450">
<rect width="39" height="39" fill="white" transform="translate(156 234) rotate(90)"/>
</clipPath>
<clipPath id="clip37_5_450">
<rect width="39" height="39" fill="white" transform="translate(156 273) rotate(90)"/>
</clipPath>
<clipPath id="clip38_5_450">
<rect width="39" height="39" fill="white" transform="translate(117 312)"/>
</clipPath>
<clipPath id="clip39_5_450">
<rect width="39" height="39" fill="white" transform="translate(117 390) rotate(-90)"/>
</clipPath>
<clipPath id="clip40_5_450">
<rect width="39" height="39" fill="white" transform="translate(156 39) rotate(-90)"/>
</clipPath>
<clipPath id="clip41_5_450">
<rect width="39" height="39" fill="white" transform="translate(156 39)"/>
</clipPath>
<clipPath id="clip42_5_450">
<rect width="39" height="39" fill="white" transform="translate(156 117) rotate(-90)"/>
</clipPath>
<clipPath id="clip43_5_450">
<rect width="39" height="39" fill="white" transform="translate(156 117)"/>
</clipPath>
<clipPath id="clip44_5_450">
<rect width="39" height="39" fill="white" transform="translate(195 156) rotate(90)"/>
</clipPath>
<clipPath id="clip45_5_450">
<rect width="39" height="39" fill="white" transform="translate(195 234) rotate(180)"/>
</clipPath>
<clipPath id="clip46_5_450">
<rect width="39" height="39" fill="white" transform="translate(156 273) rotate(-90)"/>
</clipPath>
<clipPath id="clip47_5_450">
<rect width="39" height="39" fill="white" transform="translate(156 273)"/>
</clipPath>
<clipPath id="clip48_5_450">
<rect width="39" height="39" fill="white" transform="translate(156 351) rotate(-90)"/>
</clipPath>
<clipPath id="clip49_5_450">
<rect width="39" height="39" fill="white" transform="translate(195 351) rotate(90)"/>
</clipPath>
<clipPath id="clip50_5_450">
<rect width="39" height="39" fill="white" transform="translate(195 39) rotate(-90)"/>
</clipPath>
<clipPath id="clip51_5_450">
<rect width="39" height="39" fill="white" transform="translate(195 78) rotate(-90)"/>
</clipPath>
<clipPath id="clip52_5_450">
<rect width="39" height="39" fill="white" transform="translate(234 117) rotate(180)"/>
</clipPath>
<clipPath id="clip53_5_450">
<rect width="39" height="39" fill="white" transform="translate(234 117) rotate(90)"/>
</clipPath>
<clipPath id="clip54_5_450">
<rect width="39" height="39" fill="white" transform="translate(195 156)"/>
</clipPath>
<clipPath id="clip55_5_450">
<rect width="39" height="39" fill="white" transform="translate(234 234) rotate(180)"/>
</clipPath>
<clipPath id="clip56_5_450">
<rect width="39" height="39" fill="white" transform="translate(195 273) rotate(-90)"/>
</clipPath>
<clipPath id="clip57_5_450">
<rect width="39" height="39" fill="white" transform="translate(234 312) rotate(180)"/>
</clipPath>
<clipPath id="clip58_5_450">
<rect width="39" height="39" fill="white" transform="translate(234 312) rotate(90)"/>
</clipPath>
<clipPath id="clip59_5_450">
<rect width="39" height="39" fill="white" transform="translate(195 351)"/>
</clipPath>
<clipPath id="clip60_5_450">
<rect width="39" height="39" fill="white" transform="translate(273 39) rotate(180)"/>
</clipPath>
<clipPath id="clip61_5_450">
<rect width="39" height="39" fill="white" transform="translate(273 78) rotate(180)"/>
</clipPath>
<clipPath id="clip62_5_450">
<rect width="39" height="39" fill="white" transform="translate(273 78) rotate(90)"/>
</clipPath>
<clipPath id="clip63_5_450">
<rect width="39" height="39" fill="white" transform="translate(234 117)"/>
</clipPath>
<clipPath id="clip64_5_450">
<rect width="39" height="39" fill="white" transform="translate(234 195) rotate(-90)"/>
</clipPath>
<clipPath id="clip65_5_450">
<rect width="39" height="39" fill="white" transform="translate(273 195) rotate(90)"/>
</clipPath>
<clipPath id="clip66_5_450">
<rect width="39" height="39" fill="white" transform="translate(273 234) rotate(90)"/>
</clipPath>
<clipPath id="clip67_5_450">
<rect width="39" height="39" fill="white" transform="translate(234 312) rotate(-90)"/>
</clipPath>
<clipPath id="clip68_5_450">
<rect width="39" height="39" fill="white" transform="translate(273 351) rotate(180)"/>
</clipPath>
<clipPath id="clip69_5_450">
<rect width="39" height="39" fill="white" transform="translate(273 390) rotate(180)"/>
</clipPath>
<clipPath id="clip70_5_450">
<rect width="39" height="39" fill="white" transform="translate(273)"/>
</clipPath>
<clipPath id="clip71_5_450">
<rect width="39" height="39" fill="white" transform="translate(273 78) rotate(-90)"/>
</clipPath>
<clipPath id="clip72_5_450">
<rect width="39" height="39" fill="white" transform="translate(273 78)"/>
</clipPath>
<clipPath id="clip73_5_450">
<rect width="39" height="39" fill="white" transform="translate(312 156) rotate(180)"/>
</clipPath>
<clipPath id="clip74_5_450">
<rect width="39" height="39" fill="white" transform="translate(312 195) rotate(180)"/>
</clipPath>
<clipPath id="clip75_5_450">
<rect width="39" height="39" fill="white" transform="translate(312 195) rotate(90)"/>
</clipPath>
<clipPath id="clip76_5_450">
<rect width="39" height="39" fill="white" transform="translate(312 234) rotate(90)"/>
</clipPath>
<clipPath id="clip77_5_450">
<rect width="39" height="39" fill="white" transform="translate(312 312) rotate(180)"/>
</clipPath>
<clipPath id="clip78_5_450">
<rect width="39" height="39" fill="white" transform="translate(312 312) rotate(90)"/>
</clipPath>
<clipPath id="clip79_5_450">
<rect width="39" height="39" fill="white" transform="translate(273 390) rotate(-90)"/>
</clipPath>
<clipPath id="clip80_5_450">
<rect width="39" height="39" fill="white" transform="translate(351) rotate(90)"/>
</clipPath>
<clipPath id="clip81_5_450">
<rect width="39" height="39" fill="white" transform="translate(312 78) rotate(-90)"/>
</clipPath>
<clipPath id="clip82_5_450">
<rect width="39" height="39" fill="white" transform="translate(312 78)"/>
</clipPath>
<clipPath id="clip83_5_450">
<rect width="39" height="39" fill="white" transform="translate(312 117)"/>
</clipPath>
<clipPath id="clip84_5_450">
<rect width="39" height="39" fill="white" transform="translate(351 195) rotate(180)"/>
</clipPath>
<clipPath id="clip85_5_450">
<rect width="39" height="39" fill="white" transform="translate(351 195) rotate(90)"/>
</clipPath>
<clipPath id="clip86_5_450">
<rect width="39" height="39" fill="white" transform="translate(312 273) rotate(-90)"/>
</clipPath>
<clipPath id="clip87_5_450">
<rect width="39" height="39" fill="white" transform="translate(312 273)"/>
</clipPath>
<clipPath id="clip88_5_450">
<rect width="39" height="39" fill="white" transform="translate(351 351) rotate(180)"/>
</clipPath>
<clipPath id="clip89_5_450">
<rect width="39" height="39" fill="white" transform="translate(312 390) rotate(-90)"/>
</clipPath>
<clipPath id="clip90_5_450">
<rect width="39" height="39" fill="white" transform="translate(351)"/>
</clipPath>
<clipPath id="clip91_5_450">
<rect width="39" height="39" fill="white" transform="translate(390 78) rotate(180)"/>
</clipPath>
<clipPath id="clip92_5_450">
<rect width="39" height="39" fill="white" transform="translate(390 78) rotate(90)"/>
</clipPath>
<clipPath id="clip93_5_450">
<rect width="39" height="39" fill="white" transform="translate(351 117)"/>
</clipPath>
<clipPath id="clip94_5_450">
<rect width="39" height="39" fill="white" transform="translate(390 195) rotate(180)"/>
</clipPath>
<clipPath id="clip95_5_450">
<rect width="39" height="39" fill="white" transform="translate(390 195) rotate(90)"/>
</clipPath>
<clipPath id="clip96_5_450">
<rect width="39" height="39" fill="white" transform="translate(390 273) rotate(180)"/>
</clipPath>
<clipPath id="clip97_5_450">
<rect width="39" height="39" fill="white" transform="translate(390 312) rotate(180)"/>
</clipPath>
<clipPath id="clip98_5_450">
<rect width="39" height="39" fill="white" transform="translate(390 351) rotate(180)"/>
</clipPath>
<clipPath id="clip99_5_450">
<rect width="39" height="39" fill="white" transform="translate(390 390) rotate(180)"/>
</clipPath>
</defs>
</svg>
