<svg width="10000" height="10000" viewBox="0 0 10000 10000" fill="none" xmlns="http://www.w3.org/2000/svg">
<g clip-path="url(#clip0_2108_15012)">
<rect width="10000" height="10000" fill="white"/>
<path d="M-4906.48 2293.52L-4113.7 2913.5L-4264.63 1918.46L-3471.84 2538.43L-3622.77 1543.4L-2829.98 2163.37L-2980.91 1168.33L-2188.13 1788.31L-2338.79 793.114L-1546 1413.09L-1696.93 418.051L-904.146 1038.02L-1055.08 42.988L-262.02 662.802L-412.95 -332.232L379.836 287.739L228.907 -707.295L1021.96 -87.481L871.032 -1082.52L1663.82 -462.544L1513.16 -1457.74L2305.94 -837.764L2155.01 -1832.8L2947.8 -1212.83L2796.87 -2207.86L3589.65 -1587.89L3438.73 -2582.92L4231.78 -1963.11L4080.85 -2958.15L4873.64 -2338.17L4722.98 -3333.37L5515.76 -2713.39L5365.1 -3708.59L6158.16 -3088.77L6007.23 -4083.81L6800.01 -3463.83L6649.35 -4459.03L7442.41 -3839.21L7291.75 -4834.4L8084.8 -4214.59" stroke="#A0A3BD" stroke-width="15" stroke-miterlimit="10"/>
<path d="M-2261.15 6820.55L-1468.37 7440.52L-1619.3 6445.48L-826.511 7065.46L-977.44 6070.42L-184.654 6690.39L-335.584 5695.36L457.202 6315.33L306.542 5320.14L1099.33 5940.11L948.398 4945.07L1741.18 5565.05L1590.25 4570.01L2383.31 5189.83L2232.38 4194.79L3025.17 4814.76L2874.24 3819.73L3667.29 4439.54L3516.36 3444.51L4309.15 4064.48L4158.49 3069.29L4951.27 3689.26L4800.34 2694.22L5593.13 3314.2L5442.2 2319.16L6234.98 2939.13L6084.06 1944.1L6877.11 2563.91L6726.18 1568.88L7518.97 2188.85L7368.31 1193.66L8161.09 1813.63L8010.43 818.438L8803.49 1438.25L8652.56 443.217L9445.34 1063.19L9294.68 67.9968L10087.7 687.811L9937.08 -307.381L10730.1 312.433" stroke="#A0A3BD" stroke-width="15" stroke-miterlimit="10"/>
<path d="M-3583.82 4557.04L-2791.03 5177.01L-2941.96 4181.98L-2149.18 4801.95L-2300.1 3806.91L-1507.32 4426.88L-1658.25 3431.85L-865.463 4051.82L-1016.12 3056.63L-223.338 3676.6L-374.267 2681.57L418.519 3301.54L267.59 2306.5L1060.64 2926.32L909.715 1931.28L1702.5 2551.25L1551.57 1556.22L2344.63 2176.03L2193.7 1181L2986.48 1800.97L2835.82 805.78L3628.61 1425.75L3477.68 430.717L4270.46 1050.69L4119.53 55.6537L4912.32 675.626L4761.39 -319.409L5554.45 300.405L5403.52 -694.63L6196.3 -74.6578L6045.64 -1069.85L6838.43 -449.878L6687.77 -1445.07L7480.82 -825.256L7329.89 -1820.29L8122.68 -1200.32L7972.02 -2195.51L8765.07 -1575.7L8614.41 -2570.89L9407.47 -1951.07" stroke="#A0A3BD" stroke-width="15" stroke-miterlimit="10"/>
<path d="M-938.491 9084.06L-145.706 9704.03L-296.635 8709L496.151 9328.97L345.221 8333.94L1138.01 8953.91L987.078 7958.87L1779.86 8578.85L1629.2 7583.65L2421.99 8203.62L2271.06 7208.59L3063.85 7828.56L2912.92 6833.53L3705.97 7453.34L3555.04 6458.31L4347.83 7078.28L4196.9 6083.24L4989.95 6703.06L4839.02 5708.02L5631.81 6327.99L5481.15 5332.8L6273.93 5952.77L6123 4957.74L6915.79 5577.71L6764.86 4582.68L7557.65 5202.65L7406.72 4207.61L8199.77 4827.43L8048.84 3832.39L8841.63 4452.37L8690.97 3457.17L9483.75 4077.15L9333.09 3081.95L10126.1 3701.77L9975.22 2706.73L10768 3326.7L10617.3 2331.51L11410.4 2951.33L11259.7 1956.14L12052.8 2575.95" stroke="#A0A3BD" stroke-width="15" stroke-miterlimit="10"/>
<path d="M1074.77 12529.4L1867.55 13149.4L1716.62 12154.3L2509.41 12774.3L2358.48 11779.3L3151.27 12399.3L3000.34 11404.2L3793.12 12024.2L3642.46 11029L4435.25 11649L4284.32 10653.9L5077.1 11273.9L4926.18 10278.9L5719.23 10898.7L5568.3 9903.65L6361.09 10523.6L6210.16 9528.59L7003.21 10148.4L6852.28 9153.37L7645.07 9773.34L7494.41 8778.15L8287.19 9398.12L8136.26 8403.09L8929.05 9023.06L8778.12 8028.02L9570.91 8648L9419.98 7652.96L10213 8272.78L10062.1 7277.74L10854.9 7897.71L10704.2 6902.52L11497 7522.49L11346.4 6527.3L12139.4 7147.11L11988.5 6152.08L12781.3 6772.05L12630.6 5776.86L13423.7 6396.67L13273 5401.48L14066.1 6021.3" stroke="#A0A3BD" stroke-width="15" stroke-miterlimit="10"/>
<path d="M-4274.41 3375.2L-3481.62 3995.17L-3632.55 3000.14L-2839.77 3620.11L-2990.7 2625.08L-2197.91 3245.05L-2348.84 2250.01L-1556.05 2869.99L-1706.71 1874.79L-913.929 2494.77L-1064.86 1499.73L-272.072 2119.7L-423.001 1124.67L370.054 1744.48L219.125 749.447L1011.91 1369.42L860.981 374.384L1654.04 994.199L1503.11 -0.83615L2295.89 619.135L2145.23 -376.056L2938.02 243.915L2787.09 -751.119L3579.87 -131.147L3428.94 -1126.18L4221.73 -506.21L4070.8 -1501.25L4863.85 -881.431L4712.93 -1876.47L5505.71 -1256.49L5355.05 -2251.69L6147.84 -1631.71L5997.18 -2626.91L6790.23 -2007.09L6639.3 -3002.13L7432.09 -2382.16L7281.43 -3377.35L8074.48 -2757.53L7923.82 -3752.72L8716.88 -3132.91" stroke="#A0A3BD" stroke-width="15" stroke-miterlimit="10"/>
<path d="M-1629.08 7902.23L-836.293 8522.2L-987.222 7527.16L-194.436 8147.14L-345.366 7152.1L447.42 7772.07L296.491 6777.04L1089.28 7397.01L938.616 6401.82L1731.4 7021.79L1580.47 6026.75L2373.26 6646.73L2222.33 5651.69L3015.38 6271.51L2864.45 5276.47L3657.24 5896.44L3506.31 4901.41L4299.37 5521.22L4148.44 4526.19L4941.22 5146.16L4790.56 4150.97L5583.35 4770.94L5432.42 3775.9L6225.2 4395.88L6074.27 3400.84L6867.06 4020.81L6716.13 3025.78L7509.18 3645.59L7358.26 2650.56L8151.04 3270.53L8000.38 2275.34L8793.17 2895.31L8642.51 1900.12L9435.56 2519.93L9284.63 1524.9L10077.4 2144.87L9926.76 1149.68L10719.8 1769.49L10569.2 774.299L11362.2 1394.11" stroke="#A0A3BD" stroke-width="15" stroke-miterlimit="10"/>
<path d="M384.174 11347.6L1176.96 11967.5L1026.03 10972.5L1818.82 11592.5L1667.89 10597.4L2460.67 11217.4L2309.74 10222.4L3102.53 10842.4L2951.87 9847.16L3744.65 10467.1L3593.72 9472.1L4386.51 10092.1L4235.58 9097.03L5028.64 9716.85L4877.71 8721.81L5670.49 9341.79L5519.56 8346.75L6312.62 8966.57L6161.69 7971.53L6954.47 8591.5L6803.81 7596.31L7596.6 8216.28L7445.67 7221.25L8238.45 7841.22L8087.53 6846.18L8880.31 7466.16L8729.38 6471.12L9522.44 7090.94L9371.51 6095.9L10164.3 6715.87L10013.6 5720.68L10806.4 6340.65L10655.8 5345.46L11448.8 5965.28L11297.9 4970.24L12090.7 5590.21L11940 4595.02L12733.1 5214.83L12582.4 4219.64L13375.5 4839.46" stroke="#A0A3BD" stroke-width="15" stroke-miterlimit="10"/>
<path d="M-2951.74 5638.71L-2158.96 6258.68L-2309.89 5263.65L-1517.1 5883.62L-1668.03 4888.58L-875.245 5508.56L-1026.17 4513.52L-233.389 5133.49L-384.049 4138.3L408.736 4758.27L257.808 3763.24L1050.59 4383.21L899.664 3388.18L1692.72 4007.99L1541.79 3012.96L2334.57 3632.93L2183.65 2637.89L2976.7 3257.71L2825.77 2262.67L3618.56 2882.64L3467.9 1887.45L4260.68 2507.42L4109.75 1512.39L4902.54 2132.36L4751.61 1137.33L5544.39 1757.3L5393.47 762.263L6186.52 1382.08L6035.59 387.042L6828.38 1007.01L6677.72 11.8217L7470.5 631.794L7319.84 -363.398L8112.9 256.416L7961.97 -738.619L8754.75 -118.647L8604.09 -1113.84L9397.15 -494.025L9246.49 -1489.22L10039.5 -869.403" stroke="#A0A3BD" stroke-width="15" stroke-miterlimit="10"/>
<path d="M-306.421 10165.7L486.365 10785.7L335.435 9790.68L1128.22 10410.7L977.292 9415.62L1770.08 10035.6L1619.15 9040.55L2411.93 9660.52L2261.27 8665.33L3054.06 9285.3L2903.13 8290.27L3695.92 8910.24L3544.99 7915.21L4338.04 8535.02L4187.11 7539.99L4979.9 8159.96L4828.97 7164.92L5622.02 7784.74L5471.09 6789.7L6263.88 7409.67L6113.22 6414.48L6906 7034.45L6755.08 6039.42L7547.86 6659.39L7396.93 5664.36L8189.72 6284.33L8038.79 5289.29L8831.84 5909.11L8680.91 4914.07L9473.7 5534.05L9323.04 4538.85L10115.8 5158.82L9965.16 4163.63L10758.2 4783.45L10607.3 3788.41L11400.1 4408.38L11249.4 3413.19L12042.5 4033.01L11891.8 3037.81L12684.9 3657.63" stroke="#A0A3BD" stroke-width="15" stroke-miterlimit="10"/>
<path d="M1706.84 13611.1L2499.62 14231.1L2348.69 13236L3141.48 13856L2990.55 12861L3783.34 13480.9L3632.41 12485.9L4425.19 13105.9L4274.53 12110.7L5067.32 12730.7L4916.39 11735.6L5709.17 12355.6L5558.24 11360.6L6351.3 11980.4L6200.37 10985.3L6993.16 11605.3L6842.23 10610.3L7635.28 11230.1L7484.35 10235.1L8277.14 10855L8126.48 9859.83L8919.26 10479.8L8768.33 9484.77L9561.12 10104.7L9410.19 9109.7L10203 9729.68L10052 8734.64L10845.1 9354.46L10694.2 8359.42L11487 8979.39L11336.3 7984.2L12129.1 8604.17L11978.4 7608.98L12771.5 8228.79L12620.5 7233.76L13413.3 7853.73L13262.7 6858.54L14055.7 7478.35L13905.1 6483.16L14698.1 7102.98" stroke="#A0A3BD" stroke-width="15" stroke-miterlimit="10"/>
<path d="M-4590.45 2834.36L-3797.66 3454.33L-3948.59 2459.3L-3155.81 3079.27L-3306.73 2084.23L-2513.95 2704.2L-2664.88 1709.17L-1872.09 2329.14L-2022.75 1333.95L-1229.97 1953.92L-1380.9 958.887L-588.111 1578.86L-739.04 583.824L54.0147 1203.64L-96.9145 208.603L695.871 828.575L544.942 -166.459L1338 453.355L1187.07 -541.68L1979.85 78.2917L1829.19 -916.9L2621.98 -296.928L2471.05 -1291.96L3263.83 -671.991L3112.91 -1667.03L3905.69 -1047.05L3754.76 -2042.09L4547.82 -1422.27L4396.89 -2417.31L5189.67 -1797.34L5039.01 -2792.53L5831.8 -2172.56L5681.14 -3167.75L6474.19 -2547.94L6323.26 -3542.97L7116.05 -2923L6965.39 -3918.19L7758.44 -3298.38L7607.78 -4293.57L8400.84 -3673.75" stroke="#A0A3BD" stroke-width="15" stroke-miterlimit="10"/>
<path d="M-1945.12 7361.39L-1152.33 7981.36L-1303.26 6986.33L-510.475 7606.3L-661.405 6611.26L131.381 7231.24L-19.5484 6236.2L773.237 6856.17L622.577 5860.98L1415.36 6480.95L1264.43 5485.92L2057.22 6105.89L1906.29 5110.86L2699.34 5730.67L2548.42 4735.63L3341.2 5355.61L3190.27 4360.57L3983.33 4980.39L3832.4 3985.35L4625.18 4605.32L4474.52 3610.13L5267.31 4230.1L5116.38 3235.07L5909.16 3855.04L5758.24 2860.01L6551.02 3479.98L6400.09 2484.94L7193.15 3104.76L7042.22 2109.72L7835 2729.69L7684.34 1734.5L8477.13 2354.47L8326.47 1359.28L9119.52 1979.1L8968.59 984.061L9761.38 1604.03L9610.72 608.841L10403.8 1228.65L10253.1 233.463L11046.2 853.277" stroke="#A0A3BD" stroke-width="15" stroke-miterlimit="10"/>
<path d="M-3267.78 5097.88L-2475 5717.85L-2625.93 4722.81L-1833.14 5342.78L-1984.07 4347.75L-1191.28 4967.72L-1342.21 3972.69L-549.428 4592.66L-700.088 3597.47L92.6974 4217.44L-58.2315 3222.4L734.554 3842.37L583.625 2847.34L1376.68 3467.15L1225.75 2472.12L2018.54 3092.09L1867.61 2097.06L2660.66 2716.87L2509.73 1721.84L3302.52 2341.81L3151.86 1346.62L3944.64 1966.59L3793.71 971.553L4586.5 1591.52L4435.57 596.49L5228.36 1216.46L5077.43 221.427L5870.48 841.241L5719.55 -153.794L6512.34 466.178L6361.68 -529.014L7154.46 90.9577L7003.8 -904.234L7796.86 -284.42L7645.93 -1279.45L8438.71 -659.483L8288.05 -1654.68L9081.11 -1034.86L8930.45 -2030.05L9723.5 -1410.24" stroke="#A0A3BD" stroke-width="15" stroke-miterlimit="10"/>
<path d="M-622.452 9624.9L170.333 10244.9L19.4042 9249.84L812.19 9869.81L661.26 8874.77L1454.05 9494.74L1303.12 8499.71L2095.9 9119.68L1945.24 8124.49L2738.03 8744.46L2587.1 7749.43L3379.88 8369.4L3228.95 7374.36L4022.01 7994.18L3871.08 6999.14L4663.87 7619.11L4512.94 6624.08L5305.99 7243.89L5155.06 6248.86L5947.85 6868.83L5797.19 5873.64L6589.97 6493.61L6439.04 5498.58L7231.83 6118.55L7080.9 5123.51L7873.69 5743.48L7722.76 4748.45L8515.81 5368.26L8364.88 4373.23L9157.67 4993.2L9007.01 3998.01L9799.79 4617.98L9649.13 3622.79L10442.2 4242.6L10291.3 3247.57L11084 3867.54L10933.4 2872.35L11726.4 3492.16L11575.8 2496.97L12368.8 3116.78" stroke="#A0A3BD" stroke-width="15" stroke-miterlimit="10"/>
<path d="M1390.8 13070.2L2183.59 13690.2L2032.66 12695.2L2825.44 13315.2L2674.52 12320.1L3467.3 12940.1L3316.37 11945.1L4109.16 12565L3958.5 11569.8L4751.28 12189.8L4600.35 11194.8L5393.14 11814.7L5242.21 10819.7L6035.26 11439.5L5884.34 10444.5L6677.12 11064.5L6526.19 10069.4L7319.25 10689.2L7168.32 9694.21L7961.1 10314.2L7810.44 9318.99L8603.23 9938.96L8452.3 8943.93L9245.08 9563.9L9094.16 8568.86L9886.94 9188.84L9736.01 8193.8L10529.1 8813.62L10378.1 7818.58L11170.9 8438.55L11020.3 7443.36L11813 8063.33L11662.4 7068.14L12455.4 7687.95L12304.5 6692.92L13097.3 7312.89L12946.6 6317.7L13739.7 6937.51L13589 5942.32L14382.1 6562.14" stroke="#A0A3BD" stroke-width="15" stroke-miterlimit="10"/>
<path d="M-3958.38 3916.04L-3165.59 4536.01L-3316.52 3540.98L-2523.74 4160.95L-2674.66 3165.91L-1881.88 3785.88L-2032.81 2790.85L-1240.02 3410.82L-1390.68 2415.63L-597.897 3035.6L-748.826 2040.57L43.9593 2660.54L-106.97 1665.5L686.085 2285.32L535.156 1290.28L1327.94 1910.25L1177.01 915.22L1970.07 1535.03L1819.14 540L2611.92 1159.97L2461.26 164.78L3254.05 784.751L3103.12 -210.283L3895.9 409.689L3744.98 -585.346L4537.76 34.6256L4386.83 -960.409L5179.89 -340.595L5028.96 -1335.63L5821.74 -715.658L5671.08 -1710.85L6463.87 -1090.88L6313.21 -2086.07L7106.26 -1466.26L6955.33 -2461.29L7748.12 -1841.32L7597.46 -2836.51L8390.51 -2216.7L8239.85 -3211.89L9032.91 -2592.07" stroke="#A0A3BD" stroke-width="15" stroke-miterlimit="10"/>
<path d="M-1313.05 8443.07L-520.261 9063.04L-671.191 8068.01L121.595 8687.98L-29.3343 7692.94L763.451 8312.92L612.522 7317.88L1405.31 7937.85L1254.65 6942.66L2047.43 7562.63L1896.5 6567.6L2689.29 7187.57L2538.36 6192.53L3331.42 6812.35L3180.49 5817.31L3973.27 6437.29L3822.34 5442.25L4615.4 6062.07L4464.47 5067.03L5257.25 5687L5106.59 4691.81L5899.38 5311.78L5748.45 4316.75L6541.23 4936.72L6390.31 3941.68L7183.09 4561.66L7032.16 3566.62L7825.22 4186.44L7674.29 3191.4L8467.07 3811.37L8316.41 2816.18L9109.2 3436.15L8958.54 2440.96L9751.59 3060.78L9600.66 2065.74L10393.4 2685.71L10242.8 1690.52L11035.8 2310.33L10885.2 1315.14L11678.2 1934.96" stroke="#A0A3BD" stroke-width="15" stroke-miterlimit="10"/>
<path d="M700.213 11888.4L1493 12508.4L1342.07 11513.4L2134.85 12133.3L1983.93 11138.3L2776.71 11758.3L2625.78 10763.2L3418.57 11383.2L3267.91 10388L4060.69 11008L3909.76 10012.9L4702.55 10632.9L4551.62 9637.88L5344.67 10257.7L5193.75 9262.66L5986.53 9882.63L5835.6 8887.6L6628.66 9507.41L6477.73 8512.37L7270.51 9132.35L7119.85 8137.15L7912.64 8757.13L7761.71 7762.09L8554.49 8382.06L8403.57 7387.03L9196.35 8007L9045.42 7011.97L9838.48 7631.78L9687.55 6636.75L10480.3 7256.72L10329.7 6261.52L11122.5 6881.5L10971.8 5886.3L11764.9 6506.12L11613.9 5511.08L12406.7 6131.06L12256 5135.86L13049.1 5755.68L12898.4 4760.49L13691.5 5380.3" stroke="#A0A3BD" stroke-width="15" stroke-miterlimit="10"/>
<path d="M-2635.71 6179.55L-1842.93 6799.53L-1993.86 5804.49L-1201.07 6424.46L-1352 5429.43L-559.214 6049.4L-710.143 5054.37L82.6422 5674.34L-68.0176 4679.15L724.768 5299.12L573.839 4304.08L1366.62 4924.05L1215.7 3929.02L2008.75 4548.83L1857.82 3553.8L2650.61 4173.77L2499.68 3178.74L3292.73 3798.55L3141.8 2803.52L3934.59 3423.49L3783.93 2428.3L4576.71 3048.27L4425.78 2053.23L5218.57 2673.2L5067.64 1678.17L5860.43 2298.14L5709.5 1303.11L6502.55 1922.92L6351.62 927.886L7144.41 1547.86L6993.75 552.665L7786.53 1172.64L7635.87 177.446L8428.93 797.259L8278 -197.775L9070.78 422.196L8920.12 -572.995L9713.18 46.8191L9562.52 -948.373L10355.6 -328.559" stroke="#A0A3BD" stroke-width="15" stroke-miterlimit="10"/>
<path d="M9.61816 10706.6L802.404 11326.5L651.474 10331.5L1444.26 10951.5L1293.33 9956.45L2086.12 10576.4L1935.19 9581.39L2727.97 10201.4L2577.31 9206.17L3370.1 9826.14L3219.17 8831.11L4011.95 9451.08L3861.03 8456.04L4654.08 9075.86L4503.15 8080.82L5295.94 8700.79L5145.01 7705.76L5938.06 8325.57L5787.13 7330.54L6579.92 7950.51L6429.26 6955.32L7222.04 7575.29L7071.11 6580.26L7863.9 7200.23L7712.97 6205.19L8505.76 6825.16L8354.83 5830.13L9147.88 6449.94L8996.95 5454.91L9789.74 6074.88L9639.08 5079.69L10431.9 5699.66L10281.2 4704.47L11074.3 5324.28L10923.3 4329.25L11716.1 4949.22L11565.5 3954.03L12358.5 4573.84L12207.8 3578.65L13000.9 4198.46" stroke="#A0A3BD" stroke-width="15" stroke-miterlimit="10"/>
<path d="M2022.87 14151.9L2815.65 14771.9L2664.73 13776.9L3457.51 14396.8L3306.58 13401.8L4099.37 14021.8L3948.44 13026.7L4741.22 13646.7L4590.56 12651.5L5383.35 13271.5L5232.42 12276.5L6025.21 12896.4L5874.28 11901.4L6667.33 12521.2L6516.4 11526.2L7309.19 12146.1L7158.26 11151.1L7951.31 11770.9L7800.38 10775.9L8593.17 11395.9L8442.51 10400.7L9235.29 11020.6L9084.37 10025.6L9877.15 10645.6L9726.22 9650.54L10519 10270.5L10368.1 9275.48L11161.1 9895.29L11010.2 8900.26L11803 9520.23L11652.3 8525.04L12445.1 9145.01L12294.5 8149.82L13087.5 8769.63L12936.6 7774.6L13729.4 8394.57L13578.7 7399.38L14371.8 8019.19L14221.1 7024L15014.2 7643.81" stroke="#A0A3BD" stroke-width="15" stroke-miterlimit="10"/>
</g>
<defs>
<clipPath id="clip0_2108_15012">
<rect width="10000" height="10000" fill="white"/>
</clipPath>
</defs>
</svg>
