<svg width="538" height="496" viewBox="0 0 538 496" fill="none" xmlns="http://www.w3.org/2000/svg">
<path d="M331 134.5C311 -111.5 239.667 37.6667 206.5 143C-56.3 34.2 50.6667 154.333 137 228C-122.2 329.6 47.6667 331 165 319C53.8 556.6 178.667 476 255 406C319 582.8 339.667 457 342 372C549.846 492 469.936 371.333 404 296C650.4 249.6 501 223.667 395.5 216.5C599.1 -45.5 437.333 52.6667 331 134.5Z" fill="#FFD03A"/>
<path d="M254 257C258.167 264.833 268 275.8 274 257" stroke="black" stroke-width="8" stroke-linecap="round"/>
</svg>
