<svg width="100" height="100" viewBox="0 0 100 100" fill="none" xmlns="http://www.w3.org/2000/svg">
<rect x="97" y="97" width="3" height="3" fill="#943EE4"/>
<rect x="48" y="99" width="1" height="1" fill="#943EE4"/>
<rect x="48" y="48" width="1" height="1" fill="#943EE4"/>
<rect x="99" y="48" width="1" height="1" fill="#943EE4"/>
<rect x="90" y="99" width="1" height="1" fill="#943EE4" fillOpacity="0.6"/>
<rect x="83" y="99" width="1" height="1" fill="#943EE4" fillOpacity="0.6"/>
<rect x="76" y="99" width="1" height="1" fill="#943EE4" fillOpacity="0.6"/>
<rect x="69" y="99" width="1" height="1" fill="#943EE4" fillOpacity="0.6"/>
<rect x="62" y="99" width="1" height="1" fill="#943EE4" fillOpacity="0.6"/>
<rect x="55" y="99" width="1" height="1" fill="#943EE4" fillOpacity="0.6"/>
<rect x="41" y="99" width="1" height="1" fill="#943EE4" fillOpacity="0.6"/>
<rect x="34" y="99" width="1" height="1" fill="#943EE4" fillOpacity="0.6"/>
<rect x="27" y="99" width="1" height="1" fill="#943EE4" fillOpacity="0.6"/>
<rect x="20" y="99" width="1" height="1" fill="#943EE4" fillOpacity="0.6"/>
<rect x="13" y="99" width="1" height="1" fill="#943EE4" fillOpacity="0.6"/>
<rect x="6" y="99" width="1" height="1" fill="#943EE4" fillOpacity="0.6"/>
<rect x="90" y="48" width="1" height="1" fill="#943EE4" fillOpacity="0.6"/>
<rect x="83" y="48" width="1" height="1" fill="#943EE4" fillOpacity="0.6"/>
<rect x="76" y="48" width="1" height="1" fill="#943EE4" fillOpacity="0.6"/>
<rect x="69" y="48" width="1" height="1" fill="#943EE4" fillOpacity="0.6"/>
<rect x="62" y="48" width="1" height="1" fill="#943EE4" fillOpacity="0.6"/>
<rect x="55" y="48" width="1" height="1" fill="#943EE4" fillOpacity="0.6"/>
<rect x="41" y="48" width="1" height="1" fill="#943EE4" fillOpacity="0.6"/>
<rect x="34" y="48" width="1" height="1" fill="#943EE4" fillOpacity="0.6"/>
<rect x="27" y="48" width="1" height="1" fill="#943EE4" fillOpacity="0.6"/>
<rect x="20" y="48" width="1" height="1" fill="#943EE4" fillOpacity="0.6"/>
<rect x="13" y="48" width="1" height="1" fill="#943EE4" fillOpacity="0.6"/>
<rect x="6" y="48" width="1" height="1" fill="#943EE4" fillOpacity="0.6"/>
<rect x="49" y="91" width="1" height="1" transform="rotate(90 49 91)" fill="#943EE4" fillOpacity="0.6"/>
<rect x="49" y="84" width="1" height="1" transform="rotate(90 49 84)" fill="#943EE4" fillOpacity="0.6"/>
<rect x="49" y="77" width="1" height="1" transform="rotate(90 49 77)" fill="#943EE4" fillOpacity="0.6"/>
<rect x="49" y="70" width="1" height="1" transform="rotate(90 49 70)" fill="#943EE4" fillOpacity="0.6"/>
<rect x="49" y="63" width="1" height="1" transform="rotate(90 49 63)" fill="#943EE4" fillOpacity="0.6"/>
<rect x="49" y="56" width="1" height="1" transform="rotate(90 49 56)" fill="#943EE4" fillOpacity="0.6"/>
<rect x="49" y="41" width="1" height="1" transform="rotate(90 49 41)" fill="#943EE4" fillOpacity="0.6"/>
<rect x="49" y="34" width="1" height="1" transform="rotate(90 49 34)" fill="#943EE4" fillOpacity="0.6"/>
<rect x="49" y="27" width="1" height="1" transform="rotate(90 49 27)" fill="#943EE4" fillOpacity="0.6"/>
<rect x="49" y="20" width="1" height="1" transform="rotate(90 49 20)" fill="#943EE4" fillOpacity="0.6"/>
<rect x="49" y="13" width="1" height="1" transform="rotate(90 49 13)" fill="#943EE4" fillOpacity="0.6"/>
<rect x="49" y="6" width="1" height="1" transform="rotate(90 49 6)" fill="#943EE4" fillOpacity="0.6"/>
<rect x="100" y="91" width="1" height="1" transform="rotate(90 100 91)" fill="#943EE4" fillOpacity="0.6"/>
<rect x="100" y="84" width="1" height="1" transform="rotate(90 100 84)" fill="#943EE4" fillOpacity="0.6"/>
<rect x="100" y="77" width="1" height="1" transform="rotate(90 100 77)" fill="#943EE4" fillOpacity="0.6"/>
<rect x="100" y="70" width="1" height="1" transform="rotate(90 100 70)" fill="#943EE4" fillOpacity="0.6"/>
<rect x="100" y="63" width="1" height="1" transform="rotate(90 100 63)" fill="#943EE4" fillOpacity="0.6"/>
<rect x="100" y="56" width="1" height="1" transform="rotate(90 100 56)" fill="#943EE4" fillOpacity="0.6"/>
<rect x="100" y="41" width="1" height="1" transform="rotate(90 100 41)" fill="#943EE4" fillOpacity="0.6"/>
<rect x="100" y="34" width="1" height="1" transform="rotate(90 100 34)" fill="#943EE4" fillOpacity="0.6"/>
<rect x="100" y="27" width="1" height="1" transform="rotate(90 100 27)" fill="#943EE4" fillOpacity="0.6"/>
<rect x="100" y="20" width="1" height="1" transform="rotate(90 100 20)" fill="#943EE4" fillOpacity="0.6"/>
<rect x="100" y="13" width="1" height="1" transform="rotate(90 100 13)" fill="#943EE4" fillOpacity="0.6"/>
<rect x="100" y="6" width="1" height="1" transform="rotate(90 100 6)" fill="#943EE4" fillOpacity="0.6"/>
</svg>
