<svg width="300" height="300" viewBox="0 0 300 300" fill="none" xmlns="http://www.w3.org/2000/svg">
<g clip-path="url(#clip0_2_8)">
<path fill-rule="evenodd" clip-rule="evenodd" d="M22.5 0H27.5V50H22.5V0ZM85.3349 2.09936L89.6651 4.59936L64.6651 47.9006L60.3349 45.4006L85.3349 2.09936ZM35.3349 52.0994L39.6651 54.5994L14.6651 97.9006L10.3349 95.4006L35.3349 52.0994ZM145.401 10.3349L147.901 14.6651L104.599 39.6651L102.099 35.3349L145.401 10.3349ZM45.4006 110.335L47.9006 114.665L4.59936 139.665L2.09936 135.335L45.4006 110.335ZM200 22.5V27.5H150V22.5H200ZM50 172.5V177.5H0V172.5H50ZM248.301 35L245.801 39.3301L202.5 14.3301L205 10L248.301 35ZM48.3013 235L45.8013 239.33L2.5 214.33L5 210L48.3013 235ZM289.665 45.4006L285.335 47.9006L260.335 4.59936L264.665 2.09936L289.665 45.4006ZM39.6651 295.401L35.3349 297.901L10.3349 254.599L14.6651 252.099L39.6651 295.401ZM95.4006 60.3349L97.9006 64.6651L54.5994 89.6651L52.0994 85.3349L95.4006 60.3349ZM150 72.5V77.5H100V72.5H150ZM198.301 85L195.801 89.3301L152.5 64.3301L155 60L198.301 85ZM239.665 95.4006L235.335 97.9006L210.335 54.5994L214.665 52.0994L239.665 95.4006ZM277.5 100H272.5V50H277.5V100ZM285.335 102.099L289.665 104.599L264.665 147.901L260.335 145.401L285.335 102.099ZM100 122.5V127.5H50V122.5H100ZM148.301 135L145.801 139.33L102.5 114.33L105 110L148.301 135ZM189.665 145.401L185.335 147.901L160.335 104.599L164.665 102.099L189.665 145.401ZM227.5 150H222.5V100H227.5V150ZM235.335 152.099L239.665 154.599L214.665 197.901L210.335 195.401L235.335 152.099ZM295.401 160.335L297.901 164.665L254.599 189.665L252.099 185.335L295.401 160.335ZM98.3013 185L95.8013 189.33L52.5 164.33L55 160L98.3013 185ZM139.665 195.401L135.335 197.901L110.335 154.599L114.665 152.099L139.665 195.401ZM177.5 200H172.5V150H177.5V200ZM185.335 202.099L189.665 204.599L164.665 247.901L160.335 245.401L185.335 202.099ZM245.401 210.335L247.901 214.665L204.599 239.665L202.099 235.335L245.401 210.335ZM300 222.5V227.5H250V222.5H300ZM89.6651 245.401L85.3349 247.901L60.3349 204.599L64.6651 202.099L89.6651 245.401ZM127.5 250H122.5V200H127.5V250ZM135.335 252.099L139.665 254.599L114.665 297.901L110.335 295.401L135.335 252.099ZM195.401 260.335L197.901 264.665L154.599 289.665L152.099 285.335L195.401 260.335ZM250 272.5V277.5H200V272.5H250ZM298.301 285L295.801 289.33L252.5 264.33L255 260L298.301 285ZM77.5 300H72.5V250H77.5V300Z" fill="#8A2BE2"/>
</g>
<defs>
<clipPath id="clip0_2_8">
<rect width="300" height="300" fill="white"/>
</clipPath>
</defs>
</svg>
