<svg width="100" height="100" viewBox="0 0 100 100" fill="none" xmlns="http://www.w3.org/2000/svg">
<g clip-path="url(#clip0_2_64)">
<rect width="100" height="100" fill="white"/>
<g clip-path="url(#clip1_2_64)">
<path d="M-17.6777 67.6777C-7.91352 77.4418 7.91352 77.4418 17.6777 67.6777C27.4418 57.9135 27.4418 42.0865 17.6777 32.3223C7.91352 22.5582 -7.91352 22.5582 -17.6777 32.3223C-27.4418 42.0865 -27.4418 57.9135 -17.6777 67.6777ZM-11.1452 48.4532C-11.3386 51.1187 -10.7309 54.7371 -7.73398 57.734C-4.73706 60.7309 -1.11867 61.3386 1.5468 61.1452C2.40996 61.0831 3.15574 61.7322 3.21789 62.5953C3.28004 63.4585 2.63093 64.2043 1.76777 64.2664C-1.53989 64.4943 -6.13885 63.7485 -9.94369 59.9437C-13.7485 56.1388 -14.4943 51.5399 -14.2664 48.2322C-14.2043 47.3691 -13.4585 46.72 -12.5953 46.7821C-11.7322 46.8443 -11.0831 47.59 -11.1452 48.4532ZM0.0276209 43.3985C-1.19462 44.6207 -3.16955 44.6207 -4.3918 43.3985C-5.61404 42.1762 -5.61404 40.2013 -4.3918 38.9791C-3.16955 37.7568 -1.19462 37.7568 0.0276209 38.9791C1.24987 40.2013 1.24987 42.1762 0.0276209 43.3985ZM6.65675 54.447C5.4345 53.2248 5.4345 51.2499 6.65675 50.0276C7.87899 48.8054 9.85392 48.8054 11.0762 50.0276C12.2984 51.2499 12.2984 53.2248 11.0762 54.447C9.85392 55.6693 7.87899 55.6693 6.65675 54.447Z" fill="#8A2BE2"/>
</g>
<g clip-path="url(#clip2_2_64)">
<path d="M68.033 118.033C77.7972 108.269 77.7972 92.4418 68.033 82.6777C58.2689 72.9135 42.4418 72.9135 32.6777 82.6777C22.9135 92.4418 22.9135 108.269 32.6777 118.033C42.4418 127.797 58.2689 127.797 68.033 118.033ZM48.8085 111.501C51.474 111.694 55.0924 111.086 58.0893 108.089C61.0862 105.092 61.6939 101.474 61.5006 98.8086C61.4384 97.9454 62.0875 97.1996 62.9507 97.1375C63.8138 97.0753 64.5596 97.7244 64.6218 98.5876C64.8496 101.895 64.1039 106.494 60.299 110.299C56.4942 114.104 51.8952 114.85 48.5876 114.622C47.7244 114.56 47.0753 113.814 47.1374 112.951C47.1996 112.088 47.9454 111.438 48.8085 111.501ZM43.7538 100.328C44.9761 101.55 44.9761 103.525 43.7538 104.747C42.5316 105.969 40.5567 105.969 39.3344 104.747C38.1122 103.525 38.1122 101.55 39.3344 100.328C40.5567 99.1055 42.5316 99.1055 43.7538 100.328ZM54.8024 93.6986C53.5801 94.9208 51.6052 94.9208 50.383 93.6986C49.1607 92.4764 49.1607 90.5014 50.383 89.2792C51.6052 88.0569 53.5801 88.0569 54.8024 89.2792C56.0246 90.5014 56.0246 92.4764 54.8024 93.6986Z" fill="#8A2BE2"/>
</g>
<g clip-path="url(#clip3_2_64)">
<path d="M68.033 18.033C77.7972 8.26887 77.7972 -7.55817 68.033 -17.3223C58.2689 -27.0865 42.4418 -27.0865 32.6777 -17.3223C22.9135 -7.55817 22.9135 8.26887 32.6777 18.033C42.4418 27.7972 58.2689 27.7972 68.033 18.033ZM48.8085 11.5006C51.474 11.6939 55.0924 11.0862 58.0893 8.08933C61.0862 5.09241 61.6939 1.47401 61.5006 -1.19145C61.4384 -2.05462 62.0875 -2.80039 62.9507 -2.86254C63.8138 -2.92469 64.5596 -2.27559 64.6218 -1.41242C64.8496 1.89524 64.1039 6.49419 60.299 10.299C56.4942 14.1039 51.8952 14.8497 48.5876 14.6218C47.7244 14.5596 47.0753 13.8139 47.1374 12.9507C47.1996 12.0875 47.9454 11.4384 48.8085 11.5006ZM43.7538 0.327726C44.9761 1.54997 44.9761 3.5249 43.7538 4.74714C42.5316 5.96939 40.5567 5.96939 39.3344 4.74714C38.1122 3.5249 38.1122 1.54997 39.3344 0.327726C40.5567 -0.894519 42.5316 -0.894519 43.7538 0.327726ZM54.8024 -6.3014C53.5801 -5.07916 51.6052 -5.07916 50.383 -6.3014C49.1607 -7.52365 49.1607 -9.49857 50.383 -10.7208C51.6052 -11.9431 53.5801 -11.9431 54.8024 -10.7208C56.0246 -9.49857 56.0246 -7.52365 54.8024 -6.3014Z" fill="#8A2BE2"/>
</g>
<g clip-path="url(#clip4_2_64)">
<path d="M82.6777 68.033C92.4418 77.7972 108.269 77.7972 118.033 68.033C127.797 58.2689 127.797 42.4418 118.033 32.6777C108.269 22.9135 92.4418 22.9135 82.6777 32.6777C72.9135 42.4418 72.9135 58.2689 82.6777 68.033ZM89.2101 48.8085C89.0168 51.474 89.6244 55.0924 92.6214 58.0893C95.6183 61.0862 99.2367 61.6939 101.902 61.5006C102.765 61.4384 103.511 62.0875 103.573 62.9507C103.635 63.8138 102.986 64.5596 102.123 64.6218C98.8154 64.8496 94.2165 64.1039 90.4116 60.299C86.6068 56.4942 85.861 51.8952 86.0889 48.5876C86.151 47.7244 86.8968 47.0753 87.76 47.1374C88.6232 47.1996 89.2723 47.9454 89.2101 48.8085ZM100.383 43.7538C99.1607 44.9761 97.1858 44.9761 95.9635 43.7538C94.7413 42.5316 94.7413 40.5567 95.9635 39.3344C97.1858 38.1122 99.1607 38.1122 100.383 39.3344C101.605 40.5567 101.605 42.5316 100.383 43.7538ZM107.012 54.8024C105.79 53.5801 105.79 51.6052 107.012 50.383C108.234 49.1607 110.209 49.1607 111.431 50.383C112.654 51.6052 112.654 53.5801 111.431 54.8024C110.209 56.0246 108.234 56.0246 107.012 54.8024Z" fill="#8A2BE2"/>
</g>
</g>
<defs>
<clipPath id="clip0_2_64">
<rect width="100" height="100" fill="white"/>
</clipPath>
<clipPath id="clip1_2_64">
<rect width="50" height="50" fill="white" transform="translate(0 14.6447) rotate(45)"/>
</clipPath>
<clipPath id="clip2_2_64">
<rect width="50" height="50" fill="white" transform="translate(15 100.355) rotate(-45)"/>
</clipPath>
<clipPath id="clip3_2_64">
<rect width="50" height="50" fill="white" transform="translate(15 0.355347) rotate(-45)"/>
</clipPath>
<clipPath id="clip4_2_64">
<rect width="50" height="50" fill="white" transform="translate(100.355 15) rotate(45)"/>
</clipPath>
</defs>
</svg>
